<?xml version="1.0" encoding="UTF-8"?>
<svg xmlns="http://www.w3.org/2000/svg" xmlns:xlink="http://www.w3.org/1999/xlink" width="367.9379pt" height="316.9622pt" viewBox="0 0 367.9379 316.9622" version="1.1">
<defs>
<clipPath id="clip1">
  <path d="M 0 0 L 367.9375 0 L 367.9375 316.960938 L 0 316.960938 Z M 0 0 "/>
</clipPath>
<filter id="alpha" filterUnits="objectBoundingBox" x="0%" y="0%" width="100%" height="100%">
  <feColorMatrix type="matrix" in="SourceGraphic" values="0 0 0 0 1 0 0 0 0 1 0 0 0 0 1 0 0 0 1 0"/>
</filter>
<mask id="mask0">
  <g filter="url(#alpha)">
<rect x="0" y="0" width="367.9379" height="316.9622" style="fill:rgb(0%,0%,0%);fill-opacity:0.7794;stroke:none;"/>
  </g>
</mask>
<clipPath id="clip2">
  <rect x="0" y="0" width="237" height="237"/>
</clipPath>
<g id="surface5" clip-path="url(#clip2)">
<path style=" stroke:none;fill-rule:nonzero;fill:rgb(82.745361%,51.765442%,45.097351%);fill-opacity:1;" d="M 2.917969 234.265625 L 234.773438 234.265625 L 234.773438 2.605469 L 2.917969 2.605469 Z M 2.917969 234.265625 "/>
<path style="fill:none;stroke-width:1;stroke-linecap:butt;stroke-linejoin:miter;stroke:rgb(69.412231%,24.313354%,14.901733%);stroke-opacity:1;stroke-miterlimit:4;" d="M 0.000991436 0.000217815 L 299.018633 0.000217815 L 299.018633 299.017018 L 0.000991436 299.017018 Z M 0.000991436 0.000217815 " transform="matrix(0.775391,0,0,0.77474,2.9172,2.6053)"/>
</g>
<mask id="mask1">
  <g filter="url(#alpha)">
<rect x="0" y="0" width="367.9379" height="316.9622" style="fill:rgb(0%,0%,0%);fill-opacity:0.8569;stroke:none;"/>
  </g>
</mask>
<clipPath id="clip4">
  <path d="M 0.628906 0.1875 L 329.628906 0.1875 L 329.628906 275.1875 L 0.628906 275.1875 Z M 0.628906 0.1875 "/>
</clipPath>
<clipPath id="clip3">
  <rect x="0" y="0" width="330" height="276"/>
</clipPath>
<g id="surface8" clip-path="url(#clip3)">
<path style=" stroke:none;fill-rule:nonzero;fill:rgb(45.097351%,65.490723%,82.745361%);fill-opacity:1;" d="M 56.582031 64.074219 L 327.59375 2.09375 L 273.320312 210.902344 L 2.304688 272.878906 Z M 56.582031 64.074219 "/>
<g clip-path="url(#clip4)" clip-rule="nonzero">
<path style="fill:none;stroke-width:1;stroke-linecap:butt;stroke-linejoin:miter;stroke:rgb(19.215393%,39.99939%,57.647705%);stroke-opacity:1;stroke-miterlimit:4;" d="M 69.999857 80.001873 L 419.521279 0.000193613 L 349.521277 269.521196 L -0.000145088 349.517833 Z M 69.999857 80.001873 " transform="matrix(0.775391,0,0,0.77474,2.3048,2.0936)"/>
</g>
</g>
</defs>
<g id="surface1">
<g clip-path="url(#clip1)" clip-rule="nonzero">
<rect x="0" y="0" width="367.9379" height="316.9622" style="fill:rgb(100%,100%,100%);fill-opacity:1;stroke:none;"/>
</g>
<use xlink:href="#surface5" transform="matrix(1,0,0,1,36,41)" mask="url(#mask0)"/>
<path style="fill:none;stroke-width:2;stroke-linecap:butt;stroke-linejoin:miter;stroke:rgb(0%,0%,0%);stroke-opacity:1;stroke-miterlimit:4;" d="M -0.0000403361 -0.000145088 L 395.591548 -0.000145088 " transform="matrix(0,-0.77474,0.775391,0,39.3048,314.7695)"/>
<path style="fill:none;stroke-width:2;stroke-linecap:butt;stroke-linejoin:miter;stroke:rgb(0%,0%,0%);stroke-opacity:1;stroke-miterlimit:4;" d="M 0.000830227 -0.0023879 L 398.947946 -0.0023879 " transform="matrix(-0.775391,0,0,-0.77474,311.2233,275.6544)"/>
<path style="fill:none;stroke-width:2;stroke-linecap:butt;stroke-linejoin:miter;stroke:rgb(0%,0%,0%);stroke-opacity:1;stroke-miterlimit:4;" d="M -0.00096 -0.0000806045 L 9.755342 -0.0000806045 " transform="matrix(0,-0.77474,0.775391,0,270.7735,283.2141)"/>
<path style="fill:none;stroke-width:2;stroke-linecap:butt;stroke-linejoin:miter;stroke:rgb(0%,0%,0%);stroke-opacity:1;stroke-miterlimit:4;" d="M 0.000145088 0.00141176 L 9.476216 0.00141176 " transform="matrix(-0.775391,0,0,-0.77474,39.3048,44.38)"/>
<use xlink:href="#surface8" transform="matrix(1,0,0,1,37,2)" mask="url(#mask1)"/>
</g>
</svg>
