<?xml version="1.0" encoding="utf-8" standalone="no"?>
<!DOCTYPE svg PUBLIC "-//W3C//DTD SVG 1.1//EN"
  "http://www.w3.org/Graphics/SVG/1.1/DTD/svg11.dtd">
<svg height="144pt" version="1.1" viewBox="0 0 432 144" width="432pt" xmlns="http://www.w3.org/2000/svg" xmlns:xlink="http://www.w3.org/1999/xlink">
 <metadata>
  <rdf:RDF xmlns:cc="http://creativecommons.org/ns#" xmlns:dc="http://purl.org/dc/elements/1.1/" xmlns:rdf="http://www.w3.org/1999/02/22-rdf-syntax-ns#">
   <cc:Work>
    <dc:type rdf:resource="http://purl.org/dc/dcmitype/StillImage"/>
    <dc:date>2021-10-04T18:35:33.245093</dc:date>
    <dc:format>image/svg+xml</dc:format>
    <dc:creator>
     <cc:Agent>
      <dc:title>Matplotlib v3.4.3, https://matplotlib.org/</dc:title>
     </cc:Agent>
    </dc:creator>
   </cc:Work>
  </rdf:RDF>
 </metadata>
 <defs>
  <style type="text/css">*{stroke-linecap:butt;stroke-linejoin:round;}</style>
 </defs>
 <g id="figure_1">
  <g id="patch_1">
   <path d="M 0 144 
L 432 144 
L 432 0 
L 0 0 
z
" style="fill:none;"/>
  </g>
  <g id="axes_1">
   <g id="patch_2">
    <path d="M 18.675 116.2 
L 138.656127 116.2 
L 138.656127 10.8 
L 18.675 10.8 
z
" style="fill:#ffffff;"/>
   </g>
   <g id="patch_3">
    <path clip-path="url(#pade7ab896b)" d="M 17.841798 116.2 
L 19.508202 116.2 
L 19.508202 116.2 
L 17.841798 116.2 
z
" style="fill:#306693;"/>
   </g>
   <g id="patch_4">
    <path clip-path="url(#pade7ab896b)" d="M 22.702144 116.2 
L 24.368549 116.2 
L 24.368549 112.658333 
L 22.702144 112.658333 
z
" style="fill:#306693;"/>
   </g>
   <g id="patch_5">
    <path clip-path="url(#pade7ab896b)" d="M 27.562491 116.2 
L 29.228895 116.2 
L 29.228895 109.116667 
L 27.562491 109.116667 
z
" style="fill:#306693;"/>
   </g>
   <g id="patch_6">
    <path clip-path="url(#pade7ab896b)" d="M 32.422838 116.2 
L 34.089242 116.2 
L 34.089242 105.575 
L 32.422838 105.575 
z
" style="fill:#306693;"/>
   </g>
   <g id="patch_7">
    <path clip-path="url(#pade7ab896b)" d="M 37.283184 116.2 
L 38.949589 116.2 
L 38.949589 102.033333 
L 37.283184 102.033333 
z
" style="fill:#306693;"/>
   </g>
   <g id="patch_8">
    <path clip-path="url(#pade7ab896b)" d="M 42.143531 116.2 
L 43.809935 116.2 
L 43.809935 98.491667 
L 42.143531 98.491667 
z
" style="fill:#306693;"/>
   </g>
   <g id="patch_9">
    <path clip-path="url(#pade7ab896b)" d="M 47.003877 116.2 
L 48.670282 116.2 
L 48.670282 94.95 
L 47.003877 94.95 
z
" style="fill:#306693;"/>
   </g>
   <g id="patch_10">
    <path clip-path="url(#pade7ab896b)" d="M 51.864224 116.2 
L 53.530628 116.2 
L 53.530628 91.408333 
L 51.864224 91.408333 
z
" style="fill:#306693;"/>
   </g>
   <g id="patch_11">
    <path clip-path="url(#pade7ab896b)" d="M 56.724571 116.2 
L 58.390975 116.2 
L 58.390975 87.866667 
L 56.724571 87.866667 
z
" style="fill:#306693;"/>
   </g>
   <g id="patch_12">
    <path clip-path="url(#pade7ab896b)" d="M 61.584917 116.2 
L 63.251322 116.2 
L 63.251322 84.325 
L 61.584917 84.325 
z
" style="fill:#306693;"/>
   </g>
   <g id="patch_13">
    <path clip-path="url(#pade7ab896b)" d="M 66.445264 116.2 
L 68.111668 116.2 
L 68.111668 80.783333 
L 66.445264 80.783333 
z
" style="fill:#306693;"/>
   </g>
   <g id="patch_14">
    <path clip-path="url(#pade7ab896b)" d="M 71.30561 116.2 
L 72.972015 116.2 
L 72.972015 77.241667 
L 71.30561 77.241667 
z
" style="fill:#306693;"/>
   </g>
   <g id="patch_15">
    <path clip-path="url(#pade7ab896b)" d="M 76.165957 116.2 
L 77.832361 116.2 
L 77.832361 73.7 
L 76.165957 73.7 
z
" style="fill:#306693;"/>
   </g>
   <g id="patch_16">
    <path clip-path="url(#pade7ab896b)" d="M 81.026304 116.2 
L 82.692708 116.2 
L 82.692708 70.158333 
L 81.026304 70.158333 
z
" style="fill:#306693;"/>
   </g>
   <g id="patch_17">
    <path clip-path="url(#pade7ab896b)" d="M 85.88665 116.2 
L 87.553055 116.2 
L 87.553055 66.616667 
L 85.88665 66.616667 
z
" style="fill:#306693;"/>
   </g>
   <g id="patch_18">
    <path clip-path="url(#pade7ab896b)" d="M 90.746997 116.2 
L 92.413401 116.2 
L 92.413401 63.075 
L 90.746997 63.075 
z
" style="fill:#306693;"/>
   </g>
   <g id="patch_19">
    <path clip-path="url(#pade7ab896b)" d="M 95.607343 116.2 
L 97.273748 116.2 
L 97.273748 59.533333 
L 95.607343 59.533333 
z
" style="fill:#306693;"/>
   </g>
   <g id="patch_20">
    <path clip-path="url(#pade7ab896b)" d="M 100.46769 116.2 
L 102.134094 116.2 
L 102.134094 55.991667 
L 100.46769 55.991667 
z
" style="fill:#306693;"/>
   </g>
   <g id="patch_21">
    <path clip-path="url(#pade7ab896b)" d="M 105.328036 116.2 
L 106.994441 116.2 
L 106.994441 52.45 
L 105.328036 52.45 
z
" style="fill:#306693;"/>
   </g>
   <g id="patch_22">
    <path clip-path="url(#pade7ab896b)" d="M 110.188383 116.2 
L 111.854788 116.2 
L 111.854788 48.908333 
L 110.188383 48.908333 
z
" style="fill:#306693;"/>
   </g>
   <g id="patch_23">
    <path clip-path="url(#pade7ab896b)" d="M 115.04873 116.2 
L 116.715134 116.2 
L 116.715134 45.366667 
L 115.04873 45.366667 
z
" style="fill:#306693;"/>
   </g>
   <g id="patch_24">
    <path clip-path="url(#pade7ab896b)" d="M 119.909076 116.2 
L 121.575481 116.2 
L 121.575481 41.825 
L 119.909076 41.825 
z
" style="fill:#306693;"/>
   </g>
   <g id="patch_25">
    <path clip-path="url(#pade7ab896b)" d="M 124.769423 116.2 
L 126.435827 116.2 
L 126.435827 38.283333 
L 124.769423 38.283333 
z
" style="fill:#306693;"/>
   </g>
   <g id="patch_26">
    <path clip-path="url(#pade7ab896b)" d="M 129.629769 116.2 
L 131.296174 116.2 
L 131.296174 34.741667 
L 129.629769 34.741667 
z
" style="fill:#306693;"/>
   </g>
   <g id="patch_27">
    <path clip-path="url(#pade7ab896b)" d="M 134.490116 116.2 
L 136.156521 116.2 
L 136.156521 31.2 
L 134.490116 31.2 
z
" style="fill:#306693;"/>
   </g>
   <g id="patch_28">
    <path clip-path="url(#pade7ab896b)" d="M 17.841798 116.2 
L 19.508202 116.2 
L 19.508202 116.2 
L 17.841798 116.2 
z
" style="fill:#e69500;"/>
   </g>
   <g id="patch_29">
    <path clip-path="url(#pade7ab896b)" d="M 22.702144 112.658333 
L 24.368549 112.658333 
L 24.368549 112.628819 
L 22.702144 112.628819 
z
" style="fill:#e69500;"/>
   </g>
   <g id="patch_30">
    <path clip-path="url(#pade7ab896b)" d="M 27.562491 109.116667 
L 29.228895 109.116667 
L 29.228895 108.998611 
L 27.562491 108.998611 
z
" style="fill:#e69500;"/>
   </g>
   <g id="patch_31">
    <path clip-path="url(#pade7ab896b)" d="M 32.422838 105.575 
L 34.089242 105.575 
L 34.089242 105.309375 
L 32.422838 105.309375 
z
" style="fill:#e69500;"/>
   </g>
   <g id="patch_32">
    <path clip-path="url(#pade7ab896b)" d="M 37.283184 102.033333 
L 38.949589 102.033333 
L 38.949589 101.561111 
L 37.283184 101.561111 
z
" style="fill:#e69500;"/>
   </g>
   <g id="patch_33">
    <path clip-path="url(#pade7ab896b)" d="M 42.143531 98.491667 
L 43.809935 98.491667 
L 43.809935 97.753819 
L 42.143531 97.753819 
z
" style="fill:#e69500;"/>
   </g>
   <g id="patch_34">
    <path clip-path="url(#pade7ab896b)" d="M 47.003877 94.95 
L 48.670282 94.95 
L 48.670282 93.8875 
L 47.003877 93.8875 
z
" style="fill:#e69500;"/>
   </g>
   <g id="patch_35">
    <path clip-path="url(#pade7ab896b)" d="M 51.864224 91.408333 
L 53.530628 91.408333 
L 53.530628 89.962153 
L 51.864224 89.962153 
z
" style="fill:#e69500;"/>
   </g>
   <g id="patch_36">
    <path clip-path="url(#pade7ab896b)" d="M 56.724571 87.866667 
L 58.390975 87.866667 
L 58.390975 85.977778 
L 56.724571 85.977778 
z
" style="fill:#e69500;"/>
   </g>
   <g id="patch_37">
    <path clip-path="url(#pade7ab896b)" d="M 61.584917 84.325 
L 63.251322 84.325 
L 63.251322 81.934375 
L 61.584917 81.934375 
z
" style="fill:#e69500;"/>
   </g>
   <g id="patch_38">
    <path clip-path="url(#pade7ab896b)" d="M 66.445264 80.783333 
L 68.111668 80.783333 
L 68.111668 77.831944 
L 66.445264 77.831944 
z
" style="fill:#e69500;"/>
   </g>
   <g id="patch_39">
    <path clip-path="url(#pade7ab896b)" d="M 71.30561 77.241667 
L 72.972015 77.241667 
L 72.972015 73.670486 
L 71.30561 73.670486 
z
" style="fill:#e69500;"/>
   </g>
   <g id="patch_40">
    <path clip-path="url(#pade7ab896b)" d="M 76.165957 73.7 
L 77.832361 73.7 
L 77.832361 69.45 
L 76.165957 69.45 
z
" style="fill:#e69500;"/>
   </g>
   <g id="patch_41">
    <path clip-path="url(#pade7ab896b)" d="M 81.026304 70.158333 
L 82.692708 70.158333 
L 82.692708 65.170486 
L 81.026304 65.170486 
z
" style="fill:#e69500;"/>
   </g>
   <g id="patch_42">
    <path clip-path="url(#pade7ab896b)" d="M 85.88665 66.616667 
L 87.553055 66.616667 
L 87.553055 60.831944 
L 85.88665 60.831944 
z
" style="fill:#e69500;"/>
   </g>
   <g id="patch_43">
    <path clip-path="url(#pade7ab896b)" d="M 90.746997 63.075 
L 92.413401 63.075 
L 92.413401 56.434375 
L 90.746997 56.434375 
z
" style="fill:#e69500;"/>
   </g>
   <g id="patch_44">
    <path clip-path="url(#pade7ab896b)" d="M 95.607343 59.533333 
L 97.273748 59.533333 
L 97.273748 51.977778 
L 95.607343 51.977778 
z
" style="fill:#e69500;"/>
   </g>
   <g id="patch_45">
    <path clip-path="url(#pade7ab896b)" d="M 100.46769 55.991667 
L 102.134094 55.991667 
L 102.134094 47.462153 
L 100.46769 47.462153 
z
" style="fill:#e69500;"/>
   </g>
   <g id="patch_46">
    <path clip-path="url(#pade7ab896b)" d="M 105.328036 52.45 
L 106.994441 52.45 
L 106.994441 42.8875 
L 105.328036 42.8875 
z
" style="fill:#e69500;"/>
   </g>
   <g id="patch_47">
    <path clip-path="url(#pade7ab896b)" d="M 110.188383 48.908333 
L 111.854788 48.908333 
L 111.854788 38.253819 
L 110.188383 38.253819 
z
" style="fill:#e69500;"/>
   </g>
   <g id="patch_48">
    <path clip-path="url(#pade7ab896b)" d="M 115.04873 45.366667 
L 116.715134 45.366667 
L 116.715134 33.561111 
L 115.04873 33.561111 
z
" style="fill:#e69500;"/>
   </g>
   <g id="patch_49">
    <path clip-path="url(#pade7ab896b)" d="M 119.909076 41.825 
L 121.575481 41.825 
L 121.575481 28.809375 
L 119.909076 28.809375 
z
" style="fill:#e69500;"/>
   </g>
   <g id="patch_50">
    <path clip-path="url(#pade7ab896b)" d="M 124.769423 38.283333 
L 126.435827 38.283333 
L 126.435827 23.998611 
L 124.769423 23.998611 
z
" style="fill:#e69500;"/>
   </g>
   <g id="patch_51">
    <path clip-path="url(#pade7ab896b)" d="M 129.629769 34.741667 
L 131.296174 34.741667 
L 131.296174 19.128819 
L 129.629769 19.128819 
z
" style="fill:#e69500;"/>
   </g>
   <g id="patch_52">
    <path clip-path="url(#pade7ab896b)" d="M 134.490116 31.2 
L 136.156521 31.2 
L 136.156521 14.2 
L 134.490116 14.2 
z
" style="fill:#e69500;"/>
   </g>
   <g id="patch_53">
    <path clip-path="url(#pade7ab896b)" d="M 17.841798 116.2 
L 19.508202 116.2 
L 19.508202 116.2 
L 17.841798 116.2 
z
" style="fill:#b13e26;"/>
   </g>
   <g id="patch_54">
    <path clip-path="url(#pade7ab896b)" d="M 22.702144 112.628819 
L 24.368549 112.628819 
L 24.368549 112.628573 
L 22.702144 112.628573 
z
" style="fill:#b13e26;"/>
   </g>
   <g id="patch_55">
    <path clip-path="url(#pade7ab896b)" d="M 27.562491 108.998611 
L 29.228895 108.998611 
L 29.228895 108.996644 
L 27.562491 108.996644 
z
" style="fill:#b13e26;"/>
   </g>
   <g id="patch_56">
    <path clip-path="url(#pade7ab896b)" d="M 32.422838 105.309375 
L 34.089242 105.309375 
L 34.089242 105.302734 
L 32.422838 105.302734 
z
" style="fill:#b13e26;"/>
   </g>
   <g id="patch_57">
    <path clip-path="url(#pade7ab896b)" d="M 37.283184 101.561111 
L 38.949589 101.561111 
L 38.949589 101.54537 
L 37.283184 101.54537 
z
" style="fill:#b13e26;"/>
   </g>
   <g id="patch_58">
    <path clip-path="url(#pade7ab896b)" d="M 42.143531 97.753819 
L 43.809935 97.753819 
L 43.809935 97.723076 
L 42.143531 97.723076 
z
" style="fill:#b13e26;"/>
   </g>
   <g id="patch_59">
    <path clip-path="url(#pade7ab896b)" d="M 47.003877 93.8875 
L 48.670282 93.8875 
L 48.670282 93.834375 
L 47.003877 93.834375 
z
" style="fill:#b13e26;"/>
   </g>
   <g id="patch_60">
    <path clip-path="url(#pade7ab896b)" d="M 51.864224 89.962153 
L 53.530628 89.962153 
L 53.530628 89.877792 
L 51.864224 89.877792 
z
" style="fill:#b13e26;"/>
   </g>
   <g id="patch_61">
    <path clip-path="url(#pade7ab896b)" d="M 56.724571 85.977778 
L 58.390975 85.977778 
L 58.390975 85.851852 
L 56.724571 85.851852 
z
" style="fill:#b13e26;"/>
   </g>
   <g id="patch_62">
    <path clip-path="url(#pade7ab896b)" d="M 61.584917 81.934375 
L 63.251322 81.934375 
L 63.251322 81.755078 
L 61.584917 81.755078 
z
" style="fill:#b13e26;"/>
   </g>
   <g id="patch_63">
    <path clip-path="url(#pade7ab896b)" d="M 66.445264 77.831944 
L 68.111668 77.831944 
L 68.111668 77.585995 
L 66.445264 77.585995 
z
" style="fill:#b13e26;"/>
   </g>
   <g id="patch_64">
    <path clip-path="url(#pade7ab896b)" d="M 71.30561 73.670486 
L 72.972015 73.670486 
L 72.972015 73.343128 
L 71.30561 73.343128 
z
" style="fill:#b13e26;"/>
   </g>
   <g id="patch_65">
    <path clip-path="url(#pade7ab896b)" d="M 76.165957 69.45 
L 77.832361 69.45 
L 77.832361 69.025 
L 76.165957 69.025 
z
" style="fill:#b13e26;"/>
   </g>
   <g id="patch_66">
    <path clip-path="url(#pade7ab896b)" d="M 81.026304 65.170486 
L 82.692708 65.170486 
L 82.692708 64.630136 
L 81.026304 64.630136 
z
" style="fill:#b13e26;"/>
   </g>
   <g id="patch_67">
    <path clip-path="url(#pade7ab896b)" d="M 85.88665 60.831944 
L 87.553055 60.831944 
L 87.553055 60.15706 
L 85.88665 60.15706 
z
" style="fill:#b13e26;"/>
   </g>
   <g id="patch_68">
    <path clip-path="url(#pade7ab896b)" d="M 90.746997 56.434375 
L 92.413401 56.434375 
L 92.413401 55.604297 
L 90.746997 55.604297 
z
" style="fill:#b13e26;"/>
   </g>
   <g id="patch_69">
    <path clip-path="url(#pade7ab896b)" d="M 95.607343 51.977778 
L 97.273748 51.977778 
L 97.273748 50.97037 
L 95.607343 50.97037 
z
" style="fill:#b13e26;"/>
   </g>
   <g id="patch_70">
    <path clip-path="url(#pade7ab896b)" d="M 100.46769 47.462153 
L 102.134094 47.462153 
L 102.134094 46.253805 
L 100.46769 46.253805 
z
" style="fill:#b13e26;"/>
   </g>
   <g id="patch_71">
    <path clip-path="url(#pade7ab896b)" d="M 105.328036 42.8875 
L 106.994441 42.8875 
L 106.994441 41.453125 
L 105.328036 41.453125 
z
" style="fill:#b13e26;"/>
   </g>
   <g id="patch_72">
    <path clip-path="url(#pade7ab896b)" d="M 110.188383 38.253819 
L 111.854788 38.253819 
L 111.854788 36.566855 
L 110.188383 36.566855 
z
" style="fill:#b13e26;"/>
   </g>
   <g id="patch_73">
    <path clip-path="url(#pade7ab896b)" d="M 115.04873 33.561111 
L 116.715134 33.561111 
L 116.715134 31.593519 
L 115.04873 31.593519 
z
" style="fill:#b13e26;"/>
   </g>
   <g id="patch_74">
    <path clip-path="url(#pade7ab896b)" d="M 119.909076 28.809375 
L 121.575481 28.809375 
L 121.575481 26.531641 
L 119.909076 26.531641 
z
" style="fill:#b13e26;"/>
   </g>
   <g id="patch_75">
    <path clip-path="url(#pade7ab896b)" d="M 124.769423 23.998611 
L 126.435827 23.998611 
L 126.435827 21.379745 
L 124.769423 21.379745 
z
" style="fill:#b13e26;"/>
   </g>
   <g id="patch_76">
    <path clip-path="url(#pade7ab896b)" d="M 129.629769 19.128819 
L 131.296174 19.128819 
L 131.296174 16.136357 
L 129.629769 16.136357 
z
" style="fill:#b13e26;"/>
   </g>
   <g id="patch_77">
    <path clip-path="url(#pade7ab896b)" d="M 134.490116 14.2 
L 136.156521 14.2 
L 136.156521 10.8 
L 134.490116 10.8 
z
" style="fill:#b13e26;"/>
   </g>
   <g id="matplotlib.axis_1">
    <g id="xtick_1">
     <g id="line2d_1">
      <defs>
       <path d="M 0 0 
L 0 3.5 
" id="mf3ce0fcbeb" style="stroke:#000000;stroke-width:0.8;"/>
      </defs>
      <g>
       <use style="stroke:#000000;stroke-width:0.8;" x="18.675" xlink:href="#mf3ce0fcbeb" y="116.2"/>
      </g>
     </g>
     <g id="text_1">
      <!-- 0.0 -->
      <g transform="translate(10.723438 130.798438)scale(0.1 -0.1)">
       <defs>
        <path d="M 2034 4250 
Q 1547 4250 1301 3770 
Q 1056 3291 1056 2328 
Q 1056 1369 1301 889 
Q 1547 409 2034 409 
Q 2525 409 2770 889 
Q 3016 1369 3016 2328 
Q 3016 3291 2770 3770 
Q 2525 4250 2034 4250 
z
M 2034 4750 
Q 2819 4750 3233 4129 
Q 3647 3509 3647 2328 
Q 3647 1150 3233 529 
Q 2819 -91 2034 -91 
Q 1250 -91 836 529 
Q 422 1150 422 2328 
Q 422 3509 836 4129 
Q 1250 4750 2034 4750 
z
" id="DejaVuSans-30" transform="scale(0.015625)"/>
        <path d="M 684 794 
L 1344 794 
L 1344 0 
L 684 0 
L 684 794 
z
" id="DejaVuSans-2e" transform="scale(0.015625)"/>
       </defs>
       <use xlink:href="#DejaVuSans-30"/>
       <use x="63.623047" xlink:href="#DejaVuSans-2e"/>
       <use x="95.410156" xlink:href="#DejaVuSans-30"/>
      </g>
     </g>
    </g>
    <g id="xtick_2">
     <g id="line2d_2">
      <g>
       <use style="stroke:#000000;stroke-width:0.8;" x="135.323318" xlink:href="#mf3ce0fcbeb" y="116.2"/>
      </g>
     </g>
     <g id="text_2">
      <!-- 0.2 -->
      <g transform="translate(127.371756 130.798438)scale(0.1 -0.1)">
       <defs>
        <path d="M 1228 531 
L 3431 531 
L 3431 0 
L 469 0 
L 469 531 
Q 828 903 1448 1529 
Q 2069 2156 2228 2338 
Q 2531 2678 2651 2914 
Q 2772 3150 2772 3378 
Q 2772 3750 2511 3984 
Q 2250 4219 1831 4219 
Q 1534 4219 1204 4116 
Q 875 4013 500 3803 
L 500 4441 
Q 881 4594 1212 4672 
Q 1544 4750 1819 4750 
Q 2544 4750 2975 4387 
Q 3406 4025 3406 3419 
Q 3406 3131 3298 2873 
Q 3191 2616 2906 2266 
Q 2828 2175 2409 1742 
Q 1991 1309 1228 531 
z
" id="DejaVuSans-32" transform="scale(0.015625)"/>
       </defs>
       <use xlink:href="#DejaVuSans-30"/>
       <use x="63.623047" xlink:href="#DejaVuSans-2e"/>
       <use x="95.410156" xlink:href="#DejaVuSans-32"/>
      </g>
     </g>
    </g>
   </g>
   <g id="matplotlib.axis_2">
    <g id="ytick_1">
     <g id="line2d_3">
      <defs>
       <path d="M 0 0 
L -3.5 0 
" id="m3900ab1a42" style="stroke:#000000;stroke-width:0.8;"/>
      </defs>
      <g>
       <use style="stroke:#000000;stroke-width:0.8;" x="18.675" xlink:href="#m3900ab1a42" y="116.2"/>
      </g>
     </g>
    </g>
    <g id="ytick_2">
     <g id="line2d_4">
      <g>
       <use style="stroke:#000000;stroke-width:0.8;" x="18.675" xlink:href="#m3900ab1a42" y="94.95"/>
      </g>
     </g>
    </g>
    <g id="ytick_3">
     <g id="line2d_5">
      <g>
       <use style="stroke:#000000;stroke-width:0.8;" x="18.675" xlink:href="#m3900ab1a42" y="73.7"/>
      </g>
     </g>
    </g>
    <g id="ytick_4">
     <g id="line2d_6">
      <g>
       <use style="stroke:#000000;stroke-width:0.8;" x="18.675" xlink:href="#m3900ab1a42" y="52.45"/>
      </g>
     </g>
    </g>
    <g id="ytick_5">
     <g id="line2d_7">
      <g>
       <use style="stroke:#000000;stroke-width:0.8;" x="18.675" xlink:href="#m3900ab1a42" y="31.2"/>
      </g>
     </g>
    </g>
   </g>
   <g id="line2d_8">
    <path clip-path="url(#pade7ab896b)" d="M 18.640002 116.225501 
L 29.069405 108.48835 
L 39.288819 100.629339 
L 49.298246 92.652111 
L 59.167681 84.502783 
L 68.897123 76.181247 
L 78.486574 67.688254 
L 88.006029 58.960093 
L 97.385491 50.059896 
L 106.694958 40.920769 
L 115.934429 31.53932 
L 125.103904 21.91257 
L 134.203383 12.03794 
L 135.323318 10.8 
L 135.323318 10.8 
" style="fill:none;stroke:#677d00;stroke-linecap:square;stroke-width:1.5;"/>
   </g>
   <g id="patch_78">
    <path d="M 18.675 116.2 
L 18.675 10.8 
" style="fill:none;stroke:#000000;stroke-linecap:square;stroke-linejoin:miter;stroke-width:0.8;"/>
   </g>
   <g id="patch_79">
    <path d="M 18.675 116.2 
L 18.675 10.8 
" style="fill:none;stroke:#000000;stroke-linecap:square;stroke-linejoin:miter;stroke-width:0.8;"/>
   </g>
   <g id="patch_80">
    <path d="M 18.675 116.2 
L 138.656127 116.2 
" style="fill:none;stroke:#000000;stroke-linecap:square;stroke-linejoin:miter;stroke-width:0.8;"/>
   </g>
   <g id="patch_81">
    <path d="M 18.675 116.2 
L 138.656127 116.2 
" style="fill:none;stroke:#000000;stroke-linecap:square;stroke-linejoin:miter;stroke-width:0.8;"/>
   </g>
  </g>
  <g id="axes_2">
   <g id="patch_82">
    <path d="M 158.158333 116.2 
L 278.139461 116.2 
L 278.139461 10.8 
L 158.158333 10.8 
z
" style="fill:#ffffff;"/>
   </g>
   <g id="patch_83">
    <path clip-path="url(#pb9e5df50d3)" d="M 157.325131 116.2 
L 158.991536 116.2 
L 158.991536 116.2 
L 157.325131 116.2 
z
" style="fill:#306693;"/>
   </g>
   <g id="patch_84">
    <path clip-path="url(#pb9e5df50d3)" d="M 162.185478 116.2 
L 163.851882 116.2 
L 163.851882 115.572619 
L 162.185478 115.572619 
z
" style="fill:#306693;"/>
   </g>
   <g id="patch_85">
    <path clip-path="url(#pb9e5df50d3)" d="M 167.045824 116.2 
L 168.712229 116.2 
L 168.712229 114.945238 
L 167.045824 114.945238 
z
" style="fill:#306693;"/>
   </g>
   <g id="patch_86">
    <path clip-path="url(#pb9e5df50d3)" d="M 171.906171 116.2 
L 173.572575 116.2 
L 173.572575 114.317857 
L 171.906171 114.317857 
z
" style="fill:#306693;"/>
   </g>
   <g id="patch_87">
    <path clip-path="url(#pb9e5df50d3)" d="M 176.766517 116.2 
L 178.432922 116.2 
L 178.432922 113.690476 
L 176.766517 113.690476 
z
" style="fill:#306693;"/>
   </g>
   <g id="patch_88">
    <path clip-path="url(#pb9e5df50d3)" d="M 181.626864 116.2 
L 183.293269 116.2 
L 183.293269 113.063095 
L 181.626864 113.063095 
z
" style="fill:#306693;"/>
   </g>
   <g id="patch_89">
    <path clip-path="url(#pb9e5df50d3)" d="M 186.487211 116.2 
L 188.153615 116.2 
L 188.153615 112.435714 
L 186.487211 112.435714 
z
" style="fill:#306693;"/>
   </g>
   <g id="patch_90">
    <path clip-path="url(#pb9e5df50d3)" d="M 191.347557 116.2 
L 193.013962 116.2 
L 193.013962 111.808333 
L 191.347557 111.808333 
z
" style="fill:#306693;"/>
   </g>
   <g id="patch_91">
    <path clip-path="url(#pb9e5df50d3)" d="M 196.207904 116.2 
L 197.874308 116.2 
L 197.874308 111.180952 
L 196.207904 111.180952 
z
" style="fill:#306693;"/>
   </g>
   <g id="patch_92">
    <path clip-path="url(#pb9e5df50d3)" d="M 201.06825 116.2 
L 202.734655 116.2 
L 202.734655 110.553571 
L 201.06825 110.553571 
z
" style="fill:#306693;"/>
   </g>
   <g id="patch_93">
    <path clip-path="url(#pb9e5df50d3)" d="M 205.928597 116.2 
L 207.595002 116.2 
L 207.595002 109.92619 
L 205.928597 109.92619 
z
" style="fill:#306693;"/>
   </g>
   <g id="patch_94">
    <path clip-path="url(#pb9e5df50d3)" d="M 210.788944 116.2 
L 212.455348 116.2 
L 212.455348 109.29881 
L 210.788944 109.29881 
z
" style="fill:#306693;"/>
   </g>
   <g id="patch_95">
    <path clip-path="url(#pb9e5df50d3)" d="M 215.64929 116.2 
L 217.315695 116.2 
L 217.315695 108.671429 
L 215.64929 108.671429 
z
" style="fill:#306693;"/>
   </g>
   <g id="patch_96">
    <path clip-path="url(#pb9e5df50d3)" d="M 220.509637 116.2 
L 222.176041 116.2 
L 222.176041 108.044048 
L 220.509637 108.044048 
z
" style="fill:#306693;"/>
   </g>
   <g id="patch_97">
    <path clip-path="url(#pb9e5df50d3)" d="M 225.369983 116.2 
L 227.036388 116.2 
L 227.036388 107.416667 
L 225.369983 107.416667 
z
" style="fill:#306693;"/>
   </g>
   <g id="patch_98">
    <path clip-path="url(#pb9e5df50d3)" d="M 230.23033 116.2 
L 231.896735 116.2 
L 231.896735 106.789286 
L 230.23033 106.789286 
z
" style="fill:#306693;"/>
   </g>
   <g id="patch_99">
    <path clip-path="url(#pb9e5df50d3)" d="M 235.090677 116.2 
L 236.757081 116.2 
L 236.757081 106.161905 
L 235.090677 106.161905 
z
" style="fill:#306693;"/>
   </g>
   <g id="patch_100">
    <path clip-path="url(#pb9e5df50d3)" d="M 239.951023 116.2 
L 241.617428 116.2 
L 241.617428 105.534524 
L 239.951023 105.534524 
z
" style="fill:#306693;"/>
   </g>
   <g id="patch_101">
    <path clip-path="url(#pb9e5df50d3)" d="M 244.81137 116.2 
L 246.477774 116.2 
L 246.477774 104.907143 
L 244.81137 104.907143 
z
" style="fill:#306693;"/>
   </g>
   <g id="patch_102">
    <path clip-path="url(#pb9e5df50d3)" d="M 249.671716 116.2 
L 251.338121 116.2 
L 251.338121 104.279762 
L 249.671716 104.279762 
z
" style="fill:#306693;"/>
   </g>
   <g id="patch_103">
    <path clip-path="url(#pb9e5df50d3)" d="M 254.532063 116.2 
L 256.198468 116.2 
L 256.198468 103.652381 
L 254.532063 103.652381 
z
" style="fill:#306693;"/>
   </g>
   <g id="patch_104">
    <path clip-path="url(#pb9e5df50d3)" d="M 259.39241 116.2 
L 261.058814 116.2 
L 261.058814 103.025 
L 259.39241 103.025 
z
" style="fill:#306693;"/>
   </g>
   <g id="patch_105">
    <path clip-path="url(#pb9e5df50d3)" d="M 264.252756 116.2 
L 265.919161 116.2 
L 265.919161 102.397619 
L 264.252756 102.397619 
z
" style="fill:#306693;"/>
   </g>
   <g id="patch_106">
    <path clip-path="url(#pb9e5df50d3)" d="M 269.113103 116.2 
L 270.779507 116.2 
L 270.779507 101.770238 
L 269.113103 101.770238 
z
" style="fill:#306693;"/>
   </g>
   <g id="patch_107">
    <path clip-path="url(#pb9e5df50d3)" d="M 273.973449 116.2 
L 275.639854 116.2 
L 275.639854 101.142857 
L 273.973449 101.142857 
z
" style="fill:#306693;"/>
   </g>
   <g id="patch_108">
    <path clip-path="url(#pb9e5df50d3)" d="M 157.325131 116.2 
L 158.991536 116.2 
L 158.991536 116.2 
L 157.325131 116.2 
z
" style="fill:#e69500;"/>
   </g>
   <g id="patch_109">
    <path clip-path="url(#pb9e5df50d3)" d="M 162.185478 115.572619 
L 163.851882 115.572619 
L 163.851882 115.520337 
L 162.185478 115.520337 
z
" style="fill:#e69500;"/>
   </g>
   <g id="patch_110">
    <path clip-path="url(#pb9e5df50d3)" d="M 167.045824 114.945238 
L 168.712229 114.945238 
L 168.712229 114.736111 
L 167.045824 114.736111 
z
" style="fill:#e69500;"/>
   </g>
   <g id="patch_111">
    <path clip-path="url(#pb9e5df50d3)" d="M 171.906171 114.317857 
L 173.572575 114.317857 
L 173.572575 113.847321 
L 171.906171 113.847321 
z
" style="fill:#e69500;"/>
   </g>
   <g id="patch_112">
    <path clip-path="url(#pb9e5df50d3)" d="M 176.766517 113.690476 
L 178.432922 113.690476 
L 178.432922 112.853968 
L 176.766517 112.853968 
z
" style="fill:#e69500;"/>
   </g>
   <g id="patch_113">
    <path clip-path="url(#pb9e5df50d3)" d="M 181.626864 113.063095 
L 183.293269 113.063095 
L 183.293269 111.756052 
L 181.626864 111.756052 
z
" style="fill:#e69500;"/>
   </g>
   <g id="patch_114">
    <path clip-path="url(#pb9e5df50d3)" d="M 186.487211 112.435714 
L 188.153615 112.435714 
L 188.153615 110.553571 
L 186.487211 110.553571 
z
" style="fill:#e69500;"/>
   </g>
   <g id="patch_115">
    <path clip-path="url(#pb9e5df50d3)" d="M 191.347557 111.808333 
L 193.013962 111.808333 
L 193.013962 109.246528 
L 191.347557 109.246528 
z
" style="fill:#e69500;"/>
   </g>
   <g id="patch_116">
    <path clip-path="url(#pb9e5df50d3)" d="M 196.207904 111.180952 
L 197.874308 111.180952 
L 197.874308 107.834921 
L 196.207904 107.834921 
z
" style="fill:#e69500;"/>
   </g>
   <g id="patch_117">
    <path clip-path="url(#pb9e5df50d3)" d="M 201.06825 110.553571 
L 202.734655 110.553571 
L 202.734655 106.31875 
L 201.06825 106.31875 
z
" style="fill:#e69500;"/>
   </g>
   <g id="patch_118">
    <path clip-path="url(#pb9e5df50d3)" d="M 205.928597 109.92619 
L 207.595002 109.92619 
L 207.595002 104.698016 
L 205.928597 104.698016 
z
" style="fill:#e69500;"/>
   </g>
   <g id="patch_119">
    <path clip-path="url(#pb9e5df50d3)" d="M 210.788944 109.29881 
L 212.455348 109.29881 
L 212.455348 102.972718 
L 210.788944 102.972718 
z
" style="fill:#e69500;"/>
   </g>
   <g id="patch_120">
    <path clip-path="url(#pb9e5df50d3)" d="M 215.64929 108.671429 
L 217.315695 108.671429 
L 217.315695 101.142857 
L 215.64929 101.142857 
z
" style="fill:#e69500;"/>
   </g>
   <g id="patch_121">
    <path clip-path="url(#pb9e5df50d3)" d="M 220.509637 108.044048 
L 222.176041 108.044048 
L 222.176041 99.208433 
L 220.509637 99.208433 
z
" style="fill:#e69500;"/>
   </g>
   <g id="patch_122">
    <path clip-path="url(#pb9e5df50d3)" d="M 225.369983 107.416667 
L 227.036388 107.416667 
L 227.036388 97.169444 
L 225.369983 97.169444 
z
" style="fill:#e69500;"/>
   </g>
   <g id="patch_123">
    <path clip-path="url(#pb9e5df50d3)" d="M 230.23033 106.789286 
L 231.896735 106.789286 
L 231.896735 95.025893 
L 230.23033 95.025893 
z
" style="fill:#e69500;"/>
   </g>
   <g id="patch_124">
    <path clip-path="url(#pb9e5df50d3)" d="M 235.090677 106.161905 
L 236.757081 106.161905 
L 236.757081 92.777778 
L 235.090677 92.777778 
z
" style="fill:#e69500;"/>
   </g>
   <g id="patch_125">
    <path clip-path="url(#pb9e5df50d3)" d="M 239.951023 105.534524 
L 241.617428 105.534524 
L 241.617428 90.425099 
L 239.951023 90.425099 
z
" style="fill:#e69500;"/>
   </g>
   <g id="patch_126">
    <path clip-path="url(#pb9e5df50d3)" d="M 244.81137 104.907143 
L 246.477774 104.907143 
L 246.477774 87.967857 
L 244.81137 87.967857 
z
" style="fill:#e69500;"/>
   </g>
   <g id="patch_127">
    <path clip-path="url(#pb9e5df50d3)" d="M 249.671716 104.279762 
L 251.338121 104.279762 
L 251.338121 85.406052 
L 249.671716 85.406052 
z
" style="fill:#e69500;"/>
   </g>
   <g id="patch_128">
    <path clip-path="url(#pb9e5df50d3)" d="M 254.532063 103.652381 
L 256.198468 103.652381 
L 256.198468 82.739683 
L 254.532063 82.739683 
z
" style="fill:#e69500;"/>
   </g>
   <g id="patch_129">
    <path clip-path="url(#pb9e5df50d3)" d="M 259.39241 103.025 
L 261.058814 103.025 
L 261.058814 79.96875 
L 259.39241 79.96875 
z
" style="fill:#e69500;"/>
   </g>
   <g id="patch_130">
    <path clip-path="url(#pb9e5df50d3)" d="M 264.252756 102.397619 
L 265.919161 102.397619 
L 265.919161 77.093254 
L 264.252756 77.093254 
z
" style="fill:#e69500;"/>
   </g>
   <g id="patch_131">
    <path clip-path="url(#pb9e5df50d3)" d="M 269.113103 101.770238 
L 270.779507 101.770238 
L 270.779507 74.113194 
L 269.113103 74.113194 
z
" style="fill:#e69500;"/>
   </g>
   <g id="patch_132">
    <path clip-path="url(#pb9e5df50d3)" d="M 273.973449 101.142857 
L 275.639854 101.142857 
L 275.639854 71.028571 
L 273.973449 71.028571 
z
" style="fill:#e69500;"/>
   </g>
   <g id="patch_133">
    <path clip-path="url(#pb9e5df50d3)" d="M 157.325131 116.2 
L 158.991536 116.2 
L 158.991536 116.2 
L 157.325131 116.2 
z
" style="fill:#b13e26;"/>
   </g>
   <g id="patch_134">
    <path clip-path="url(#pb9e5df50d3)" d="M 162.185478 115.520337 
L 163.851882 115.520337 
L 163.851882 115.51598 
L 162.185478 115.51598 
z
" style="fill:#b13e26;"/>
   </g>
   <g id="patch_135">
    <path clip-path="url(#pb9e5df50d3)" d="M 167.045824 114.736111 
L 168.712229 114.736111 
L 168.712229 114.701257 
L 167.045824 114.701257 
z
" style="fill:#b13e26;"/>
   </g>
   <g id="patch_136">
    <path clip-path="url(#pb9e5df50d3)" d="M 171.906171 113.847321 
L 173.572575 113.847321 
L 173.572575 113.729688 
L 171.906171 113.729688 
z
" style="fill:#b13e26;"/>
   </g>
   <g id="patch_137">
    <path clip-path="url(#pb9e5df50d3)" d="M 176.766517 112.853968 
L 178.432922 112.853968 
L 178.432922 112.575132 
L 176.766517 112.575132 
z
" style="fill:#b13e26;"/>
   </g>
   <g id="patch_138">
    <path clip-path="url(#pb9e5df50d3)" d="M 181.626864 111.756052 
L 183.293269 111.756052 
L 183.293269 111.21145 
L 181.626864 111.21145 
z
" style="fill:#b13e26;"/>
   </g>
   <g id="patch_139">
    <path clip-path="url(#pb9e5df50d3)" d="M 186.487211 110.553571 
L 188.153615 110.553571 
L 188.153615 109.6125 
L 186.487211 109.6125 
z
" style="fill:#b13e26;"/>
   </g>
   <g id="patch_140">
    <path clip-path="url(#pb9e5df50d3)" d="M 191.347557 109.246528 
L 193.013962 109.246528 
L 193.013962 107.752141 
L 191.347557 107.752141 
z
" style="fill:#b13e26;"/>
   </g>
   <g id="patch_141">
    <path clip-path="url(#pb9e5df50d3)" d="M 196.207904 107.834921 
L 197.874308 107.834921 
L 197.874308 105.604233 
L 196.207904 105.604233 
z
" style="fill:#b13e26;"/>
   </g>
   <g id="patch_142">
    <path clip-path="url(#pb9e5df50d3)" d="M 201.06825 106.31875 
L 202.734655 106.31875 
L 202.734655 103.142634 
L 201.06825 103.142634 
z
" style="fill:#b13e26;"/>
   </g>
   <g id="patch_143">
    <path clip-path="url(#pb9e5df50d3)" d="M 205.928597 104.698016 
L 207.595002 104.698016 
L 207.595002 100.341204 
L 205.928597 100.341204 
z
" style="fill:#b13e26;"/>
   </g>
   <g id="patch_144">
    <path clip-path="url(#pb9e5df50d3)" d="M 210.788944 102.972718 
L 212.455348 102.972718 
L 212.455348 97.173801 
L 210.788944 97.173801 
z
" style="fill:#b13e26;"/>
   </g>
   <g id="patch_145">
    <path clip-path="url(#pb9e5df50d3)" d="M 215.64929 101.142857 
L 217.315695 101.142857 
L 217.315695 93.614286 
L 215.64929 93.614286 
z
" style="fill:#b13e26;"/>
   </g>
   <g id="patch_146">
    <path clip-path="url(#pb9e5df50d3)" d="M 220.509637 99.208433 
L 222.176041 99.208433 
L 222.176041 89.636516 
L 220.509637 89.636516 
z
" style="fill:#b13e26;"/>
   </g>
   <g id="patch_147">
    <path clip-path="url(#pb9e5df50d3)" d="M 225.369983 97.169444 
L 227.036388 97.169444 
L 227.036388 85.214352 
L 225.369983 85.214352 
z
" style="fill:#b13e26;"/>
   </g>
   <g id="patch_148">
    <path clip-path="url(#pb9e5df50d3)" d="M 230.23033 95.025893 
L 231.896735 95.025893 
L 231.896735 80.321652 
L 230.23033 80.321652 
z
" style="fill:#b13e26;"/>
   </g>
   <g id="patch_149">
    <path clip-path="url(#pb9e5df50d3)" d="M 235.090677 92.777778 
L 236.757081 92.777778 
L 236.757081 74.932275 
L 235.090677 74.932275 
z
" style="fill:#b13e26;"/>
   </g>
   <g id="patch_150">
    <path clip-path="url(#pb9e5df50d3)" d="M 239.951023 90.425099 
L 241.617428 90.425099 
L 241.617428 69.020081 
L 239.951023 69.020081 
z
" style="fill:#b13e26;"/>
   </g>
   <g id="patch_151">
    <path clip-path="url(#pb9e5df50d3)" d="M 244.81137 87.967857 
L 246.477774 87.967857 
L 246.477774 62.558929 
L 244.81137 62.558929 
z
" style="fill:#b13e26;"/>
   </g>
   <g id="patch_152">
    <path clip-path="url(#pb9e5df50d3)" d="M 249.671716 85.406052 
L 251.338121 85.406052 
L 251.338121 55.522677 
L 249.671716 55.522677 
z
" style="fill:#b13e26;"/>
   </g>
   <g id="patch_153">
    <path clip-path="url(#pb9e5df50d3)" d="M 254.532063 82.739683 
L 256.198468 82.739683 
L 256.198468 47.885185 
L 254.532063 47.885185 
z
" style="fill:#b13e26;"/>
   </g>
   <g id="patch_154">
    <path clip-path="url(#pb9e5df50d3)" d="M 259.39241 79.96875 
L 261.058814 79.96875 
L 261.058814 39.620312 
L 259.39241 39.620312 
z
" style="fill:#b13e26;"/>
   </g>
   <g id="patch_155">
    <path clip-path="url(#pb9e5df50d3)" d="M 264.252756 77.093254 
L 265.919161 77.093254 
L 265.919161 30.701918 
L 264.252756 30.701918 
z
" style="fill:#b13e26;"/>
   </g>
   <g id="patch_156">
    <path clip-path="url(#pb9e5df50d3)" d="M 269.113103 74.113194 
L 270.779507 74.113194 
L 270.779507 21.103861 
L 269.113103 21.103861 
z
" style="fill:#b13e26;"/>
   </g>
   <g id="patch_157">
    <path clip-path="url(#pb9e5df50d3)" d="M 273.973449 71.028571 
L 275.639854 71.028571 
L 275.639854 10.8 
L 273.973449 10.8 
z
" style="fill:#b13e26;"/>
   </g>
   <g id="matplotlib.axis_3">
    <g id="xtick_3">
     <g id="line2d_9">
      <g>
       <use style="stroke:#000000;stroke-width:0.8;" x="158.158333" xlink:href="#mf3ce0fcbeb" y="116.2"/>
      </g>
     </g>
     <g id="text_3">
      <!-- 0 -->
      <g transform="translate(154.977083 130.798438)scale(0.1 -0.1)">
       <use xlink:href="#DejaVuSans-30"/>
      </g>
     </g>
    </g>
    <g id="xtick_4">
     <g id="line2d_10">
      <g>
       <use style="stroke:#000000;stroke-width:0.8;" x="216.482493" xlink:href="#mf3ce0fcbeb" y="116.2"/>
      </g>
     </g>
     <g id="text_4">
      <!-- 1 -->
      <g transform="translate(213.301243 130.798438)scale(0.1 -0.1)">
       <defs>
        <path d="M 794 531 
L 1825 531 
L 1825 4091 
L 703 3866 
L 703 4441 
L 1819 4666 
L 2450 4666 
L 2450 531 
L 3481 531 
L 3481 0 
L 794 0 
L 794 531 
z
" id="DejaVuSans-31" transform="scale(0.015625)"/>
       </defs>
       <use xlink:href="#DejaVuSans-31"/>
      </g>
     </g>
    </g>
    <g id="xtick_5">
     <g id="line2d_11">
      <g>
       <use style="stroke:#000000;stroke-width:0.8;" x="274.806652" xlink:href="#mf3ce0fcbeb" y="116.2"/>
      </g>
     </g>
     <g id="text_5">
      <!-- 2 -->
      <g transform="translate(271.625402 130.798438)scale(0.1 -0.1)">
       <use xlink:href="#DejaVuSans-32"/>
      </g>
     </g>
    </g>
   </g>
   <g id="matplotlib.axis_4">
    <g id="ytick_6">
     <g id="line2d_12">
      <g>
       <use style="stroke:#000000;stroke-width:0.8;" x="158.158333" xlink:href="#m3900ab1a42" y="116.2"/>
      </g>
     </g>
    </g>
    <g id="ytick_7">
     <g id="line2d_13">
      <g>
       <use style="stroke:#000000;stroke-width:0.8;" x="158.158333" xlink:href="#m3900ab1a42" y="78.557143"/>
      </g>
     </g>
    </g>
    <g id="ytick_8">
     <g id="line2d_14">
      <g>
       <use style="stroke:#000000;stroke-width:0.8;" x="158.158333" xlink:href="#m3900ab1a42" y="40.914286"/>
      </g>
     </g>
    </g>
   </g>
   <g id="line2d_15">
    <path clip-path="url(#pb9e5df50d3)" d="M 158.140834 116.202258 
L 164.877948 115.221177 
L 170.810109 114.135786 
L 176.234798 112.919355 
L 181.292008 111.559665 
L 186.086734 110.042075 
L 190.671471 108.3594 
L 195.098717 106.498791 
L 199.403471 104.448574 
L 203.60323 102.201756 
L 207.715495 99.749379 
L 211.757763 97.07992 
L 215.747535 94.178736 
L 219.702308 91.027529 
L 223.639583 87.603816 
L 227.541859 83.914828 
L 231.444136 79.917884 
L 235.346412 75.599455 
L 239.248688 70.946011 
L 243.150965 65.944023 
L 247.07074 60.555071 
L 251.008015 54.76046 
L 254.962788 48.5411 
L 258.935061 41.877506 
L 262.942331 34.717552 
L 266.9846 27.034878 
L 271.061866 18.802243 
L 274.806652 10.8 
L 274.806652 10.8 
" style="fill:none;stroke:#677d00;stroke-linecap:square;stroke-width:1.5;"/>
   </g>
   <g id="patch_158">
    <path d="M 158.158333 116.2 
L 158.158333 10.8 
" style="fill:none;stroke:#000000;stroke-linecap:square;stroke-linejoin:miter;stroke-width:0.8;"/>
   </g>
   <g id="patch_159">
    <path d="M 158.158333 116.2 
L 158.158333 10.8 
" style="fill:none;stroke:#000000;stroke-linecap:square;stroke-linejoin:miter;stroke-width:0.8;"/>
   </g>
   <g id="patch_160">
    <path d="M 158.158333 116.2 
L 278.139461 116.2 
" style="fill:none;stroke:#000000;stroke-linecap:square;stroke-linejoin:miter;stroke-width:0.8;"/>
   </g>
   <g id="patch_161">
    <path d="M 158.158333 116.2 
L 278.139461 116.2 
" style="fill:none;stroke:#000000;stroke-linecap:square;stroke-linejoin:miter;stroke-width:0.8;"/>
   </g>
  </g>
  <g id="axes_3">
   <g id="patch_162">
    <path d="M 297.641667 116.2 
L 417.622794 116.2 
L 417.622794 10.8 
L 297.641667 10.8 
z
" style="fill:#ffffff;"/>
   </g>
   <g id="patch_163">
    <path clip-path="url(#p6fd21d00fb)" d="M 296.808464 116.2 
L 298.474869 116.2 
L 298.474869 116.2 
L 296.808464 116.2 
z
" style="fill:#306693;"/>
   </g>
   <g id="patch_164">
    <path clip-path="url(#p6fd21d00fb)" d="M 301.668811 116.2 
L 303.335216 116.2 
L 303.335216 116.160435 
L 301.668811 116.160435 
z
" style="fill:#306693;"/>
   </g>
   <g id="patch_165">
    <path clip-path="url(#p6fd21d00fb)" d="M 306.529158 116.2 
L 308.195562 116.2 
L 308.195562 116.120871 
L 306.529158 116.120871 
z
" style="fill:#306693;"/>
   </g>
   <g id="patch_166">
    <path clip-path="url(#p6fd21d00fb)" d="M 311.389504 116.2 
L 313.055909 116.2 
L 313.055909 116.081306 
L 311.389504 116.081306 
z
" style="fill:#306693;"/>
   </g>
   <g id="patch_167">
    <path clip-path="url(#p6fd21d00fb)" d="M 316.249851 116.2 
L 317.916255 116.2 
L 317.916255 116.041742 
L 316.249851 116.041742 
z
" style="fill:#306693;"/>
   </g>
   <g id="patch_168">
    <path clip-path="url(#p6fd21d00fb)" d="M 321.110197 116.2 
L 322.776602 116.2 
L 322.776602 116.002177 
L 321.110197 116.002177 
z
" style="fill:#306693;"/>
   </g>
   <g id="patch_169">
    <path clip-path="url(#p6fd21d00fb)" d="M 325.970544 116.2 
L 327.636949 116.2 
L 327.636949 115.962613 
L 325.970544 115.962613 
z
" style="fill:#306693;"/>
   </g>
   <g id="patch_170">
    <path clip-path="url(#p6fd21d00fb)" d="M 330.830891 116.2 
L 332.497295 116.2 
L 332.497295 115.923048 
L 330.830891 115.923048 
z
" style="fill:#306693;"/>
   </g>
   <g id="patch_171">
    <path clip-path="url(#p6fd21d00fb)" d="M 335.691237 116.2 
L 337.357642 116.2 
L 337.357642 115.883483 
L 335.691237 115.883483 
z
" style="fill:#306693;"/>
   </g>
   <g id="patch_172">
    <path clip-path="url(#p6fd21d00fb)" d="M 340.551584 116.2 
L 342.217988 116.2 
L 342.217988 115.843919 
L 340.551584 115.843919 
z
" style="fill:#306693;"/>
   </g>
   <g id="patch_173">
    <path clip-path="url(#p6fd21d00fb)" d="M 345.41193 116.2 
L 347.078335 116.2 
L 347.078335 115.804354 
L 345.41193 115.804354 
z
" style="fill:#306693;"/>
   </g>
   <g id="patch_174">
    <path clip-path="url(#p6fd21d00fb)" d="M 350.272277 116.2 
L 351.938682 116.2 
L 351.938682 115.76479 
L 350.272277 115.76479 
z
" style="fill:#306693;"/>
   </g>
   <g id="patch_175">
    <path clip-path="url(#p6fd21d00fb)" d="M 355.132624 116.2 
L 356.799028 116.2 
L 356.799028 115.725225 
L 355.132624 115.725225 
z
" style="fill:#306693;"/>
   </g>
   <g id="patch_176">
    <path clip-path="url(#p6fd21d00fb)" d="M 359.99297 116.2 
L 361.659375 116.2 
L 361.659375 115.685661 
L 359.99297 115.685661 
z
" style="fill:#306693;"/>
   </g>
   <g id="patch_177">
    <path clip-path="url(#p6fd21d00fb)" d="M 364.853317 116.2 
L 366.519721 116.2 
L 366.519721 115.646096 
L 364.853317 115.646096 
z
" style="fill:#306693;"/>
   </g>
   <g id="patch_178">
    <path clip-path="url(#p6fd21d00fb)" d="M 369.713663 116.2 
L 371.380068 116.2 
L 371.380068 115.606532 
L 369.713663 115.606532 
z
" style="fill:#306693;"/>
   </g>
   <g id="patch_179">
    <path clip-path="url(#p6fd21d00fb)" d="M 374.57401 116.2 
L 376.240415 116.2 
L 376.240415 115.566967 
L 374.57401 115.566967 
z
" style="fill:#306693;"/>
   </g>
   <g id="patch_180">
    <path clip-path="url(#p6fd21d00fb)" d="M 379.434357 116.2 
L 381.100761 116.2 
L 381.100761 115.527402 
L 379.434357 115.527402 
z
" style="fill:#306693;"/>
   </g>
   <g id="patch_181">
    <path clip-path="url(#p6fd21d00fb)" d="M 384.294703 116.2 
L 385.961108 116.2 
L 385.961108 115.487838 
L 384.294703 115.487838 
z
" style="fill:#306693;"/>
   </g>
   <g id="patch_182">
    <path clip-path="url(#p6fd21d00fb)" d="M 389.15505 116.2 
L 390.821454 116.2 
L 390.821454 115.448273 
L 389.15505 115.448273 
z
" style="fill:#306693;"/>
   </g>
   <g id="patch_183">
    <path clip-path="url(#p6fd21d00fb)" d="M 394.015396 116.2 
L 395.681801 116.2 
L 395.681801 115.408709 
L 394.015396 115.408709 
z
" style="fill:#306693;"/>
   </g>
   <g id="patch_184">
    <path clip-path="url(#p6fd21d00fb)" d="M 398.875743 116.2 
L 400.542148 116.2 
L 400.542148 115.369144 
L 398.875743 115.369144 
z
" style="fill:#306693;"/>
   </g>
   <g id="patch_185">
    <path clip-path="url(#p6fd21d00fb)" d="M 403.73609 116.2 
L 405.402494 116.2 
L 405.402494 115.32958 
L 403.73609 115.32958 
z
" style="fill:#306693;"/>
   </g>
   <g id="patch_186">
    <path clip-path="url(#p6fd21d00fb)" d="M 408.596436 116.2 
L 410.262841 116.2 
L 410.262841 115.290015 
L 408.596436 115.290015 
z
" style="fill:#306693;"/>
   </g>
   <g id="patch_187">
    <path clip-path="url(#p6fd21d00fb)" d="M 413.456783 116.2 
L 415.123187 116.2 
L 415.123187 115.25045 
L 413.456783 115.25045 
z
" style="fill:#306693;"/>
   </g>
   <g id="patch_188">
    <path clip-path="url(#p6fd21d00fb)" d="M 296.808464 116.2 
L 298.474869 116.2 
L 298.474869 116.2 
L 296.808464 116.2 
z
" style="fill:#e69500;"/>
   </g>
   <g id="patch_189">
    <path clip-path="url(#p6fd21d00fb)" d="M 301.668811 116.160435 
L 303.335216 116.160435 
L 303.335216 116.14395 
L 301.668811 116.14395 
z
" style="fill:#e69500;"/>
   </g>
   <g id="patch_190">
    <path clip-path="url(#p6fd21d00fb)" d="M 306.529158 116.120871 
L 308.195562 116.120871 
L 308.195562 116.05493 
L 306.529158 116.05493 
z
" style="fill:#e69500;"/>
   </g>
   <g id="patch_191">
    <path clip-path="url(#p6fd21d00fb)" d="M 311.389504 116.081306 
L 313.055909 116.081306 
L 313.055909 115.932939 
L 311.389504 115.932939 
z
" style="fill:#e69500;"/>
   </g>
   <g id="patch_192">
    <path clip-path="url(#p6fd21d00fb)" d="M 316.249851 116.041742 
L 317.916255 116.041742 
L 317.916255 115.777978 
L 316.249851 115.777978 
z
" style="fill:#e69500;"/>
   </g>
   <g id="patch_193">
    <path clip-path="url(#p6fd21d00fb)" d="M 321.110197 116.002177 
L 322.776602 116.002177 
L 322.776602 115.590046 
L 321.110197 115.590046 
z
" style="fill:#e69500;"/>
   </g>
   <g id="patch_194">
    <path clip-path="url(#p6fd21d00fb)" d="M 325.970544 115.962613 
L 327.636949 115.962613 
L 327.636949 115.369144 
L 325.970544 115.369144 
z
" style="fill:#e69500;"/>
   </g>
   <g id="patch_195">
    <path clip-path="url(#p6fd21d00fb)" d="M 330.830891 115.923048 
L 332.497295 115.923048 
L 332.497295 115.115272 
L 330.830891 115.115272 
z
" style="fill:#e69500;"/>
   </g>
   <g id="patch_196">
    <path clip-path="url(#p6fd21d00fb)" d="M 335.691237 115.883483 
L 337.357642 115.883483 
L 337.357642 114.828428 
L 335.691237 114.828428 
z
" style="fill:#e69500;"/>
   </g>
   <g id="patch_197">
    <path clip-path="url(#p6fd21d00fb)" d="M 340.551584 115.843919 
L 342.217988 115.843919 
L 342.217988 114.508615 
L 340.551584 114.508615 
z
" style="fill:#e69500;"/>
   </g>
   <g id="patch_198">
    <path clip-path="url(#p6fd21d00fb)" d="M 345.41193 115.804354 
L 347.078335 115.804354 
L 347.078335 114.155831 
L 345.41193 114.155831 
z
" style="fill:#e69500;"/>
   </g>
   <g id="patch_199">
    <path clip-path="url(#p6fd21d00fb)" d="M 350.272277 115.76479 
L 351.938682 115.76479 
L 351.938682 113.770076 
L 350.272277 113.770076 
z
" style="fill:#e69500;"/>
   </g>
   <g id="patch_200">
    <path clip-path="url(#p6fd21d00fb)" d="M 355.132624 115.725225 
L 356.799028 115.725225 
L 356.799028 113.351351 
L 355.132624 113.351351 
z
" style="fill:#e69500;"/>
   </g>
   <g id="patch_201">
    <path clip-path="url(#p6fd21d00fb)" d="M 359.99297 115.685661 
L 361.659375 115.685661 
L 361.659375 112.899656 
L 359.99297 112.899656 
z
" style="fill:#e69500;"/>
   </g>
   <g id="patch_202">
    <path clip-path="url(#p6fd21d00fb)" d="M 364.853317 115.646096 
L 366.519721 115.646096 
L 366.519721 112.41499 
L 364.853317 112.41499 
z
" style="fill:#e69500;"/>
   </g>
   <g id="patch_203">
    <path clip-path="url(#p6fd21d00fb)" d="M 369.713663 115.606532 
L 371.380068 115.606532 
L 371.380068 111.897354 
L 369.713663 111.897354 
z
" style="fill:#e69500;"/>
   </g>
   <g id="patch_204">
    <path clip-path="url(#p6fd21d00fb)" d="M 374.57401 115.566967 
L 376.240415 115.566967 
L 376.240415 111.346747 
L 374.57401 111.346747 
z
" style="fill:#e69500;"/>
   </g>
   <g id="patch_205">
    <path clip-path="url(#p6fd21d00fb)" d="M 379.434357 115.527402 
L 381.100761 115.527402 
L 381.100761 110.763169 
L 379.434357 110.763169 
z
" style="fill:#e69500;"/>
   </g>
   <g id="patch_206">
    <path clip-path="url(#p6fd21d00fb)" d="M 384.294703 115.487838 
L 385.961108 115.487838 
L 385.961108 110.146622 
L 384.294703 110.146622 
z
" style="fill:#e69500;"/>
   </g>
   <g id="patch_207">
    <path clip-path="url(#p6fd21d00fb)" d="M 389.15505 115.448273 
L 390.821454 115.448273 
L 390.821454 109.497103 
L 389.15505 109.497103 
z
" style="fill:#e69500;"/>
   </g>
   <g id="patch_208">
    <path clip-path="url(#p6fd21d00fb)" d="M 394.015396 115.408709 
L 395.681801 115.408709 
L 395.681801 108.814615 
L 394.015396 108.814615 
z
" style="fill:#e69500;"/>
   </g>
   <g id="patch_209">
    <path clip-path="url(#p6fd21d00fb)" d="M 398.875743 115.369144 
L 400.542148 115.369144 
L 400.542148 108.099155 
L 398.875743 108.099155 
z
" style="fill:#e69500;"/>
   </g>
   <g id="patch_210">
    <path clip-path="url(#p6fd21d00fb)" d="M 403.73609 115.32958 
L 405.402494 115.32958 
L 405.402494 107.350726 
L 403.73609 107.350726 
z
" style="fill:#e69500;"/>
   </g>
   <g id="patch_211">
    <path clip-path="url(#p6fd21d00fb)" d="M 408.596436 115.290015 
L 410.262841 115.290015 
L 410.262841 106.569326 
L 408.596436 106.569326 
z
" style="fill:#e69500;"/>
   </g>
   <g id="patch_212">
    <path clip-path="url(#p6fd21d00fb)" d="M 413.456783 115.25045 
L 415.123187 115.25045 
L 415.123187 105.754955 
L 413.456783 105.754955 
z
" style="fill:#e69500;"/>
   </g>
   <g id="patch_213">
    <path clip-path="url(#p6fd21d00fb)" d="M 296.808464 116.2 
L 298.474869 116.2 
L 298.474869 116.2 
L 296.808464 116.2 
z
" style="fill:#b13e26;"/>
   </g>
   <g id="patch_214">
    <path clip-path="url(#p6fd21d00fb)" d="M 301.668811 116.14395 
L 303.335216 116.14395 
L 303.335216 116.137081 
L 301.668811 116.137081 
z
" style="fill:#b13e26;"/>
   </g>
   <g id="patch_215">
    <path clip-path="url(#p6fd21d00fb)" d="M 306.529158 116.05493 
L 308.195562 116.05493 
L 308.195562 115.999979 
L 306.529158 115.999979 
z
" style="fill:#b13e26;"/>
   </g>
   <g id="patch_216">
    <path clip-path="url(#p6fd21d00fb)" d="M 311.389504 115.932939 
L 313.055909 115.932939 
L 313.055909 115.74748 
L 311.389504 115.74748 
z
" style="fill:#b13e26;"/>
   </g>
   <g id="patch_217">
    <path clip-path="url(#p6fd21d00fb)" d="M 316.249851 115.777978 
L 317.916255 115.777978 
L 317.916255 115.338372 
L 316.249851 115.338372 
z
" style="fill:#b13e26;"/>
   </g>
   <g id="patch_218">
    <path clip-path="url(#p6fd21d00fb)" d="M 321.110197 115.590046 
L 322.776602 115.590046 
L 322.776602 114.73144 
L 321.110197 114.73144 
z
" style="fill:#b13e26;"/>
   </g>
   <g id="patch_219">
    <path clip-path="url(#p6fd21d00fb)" d="M 325.970544 115.369144 
L 327.636949 115.369144 
L 327.636949 113.885473 
L 325.970544 113.885473 
z
" style="fill:#b13e26;"/>
   </g>
   <g id="patch_220">
    <path clip-path="url(#p6fd21d00fb)" d="M 330.830891 115.115272 
L 332.497295 115.115272 
L 332.497295 112.759257 
L 330.830891 112.759257 
z
" style="fill:#b13e26;"/>
   </g>
   <g id="patch_221">
    <path clip-path="url(#p6fd21d00fb)" d="M 335.691237 114.828428 
L 337.357642 114.828428 
L 337.357642 111.311578 
L 335.691237 111.311578 
z
" style="fill:#b13e26;"/>
   </g>
   <g id="patch_222">
    <path clip-path="url(#p6fd21d00fb)" d="M 340.551584 114.508615 
L 342.217988 114.508615 
L 342.217988 109.501225 
L 340.551584 109.501225 
z
" style="fill:#b13e26;"/>
   </g>
   <g id="patch_223">
    <path clip-path="url(#p6fd21d00fb)" d="M 345.41193 114.155831 
L 347.078335 114.155831 
L 347.078335 107.286983 
L 345.41193 107.286983 
z
" style="fill:#b13e26;"/>
   </g>
   <g id="patch_224">
    <path clip-path="url(#p6fd21d00fb)" d="M 350.272277 113.770076 
L 351.938682 113.770076 
L 351.938682 104.62764 
L 350.272277 104.62764 
z
" style="fill:#b13e26;"/>
   </g>
   <g id="patch_225">
    <path clip-path="url(#p6fd21d00fb)" d="M 355.132624 113.351351 
L 356.799028 113.351351 
L 356.799028 101.481982 
L 355.132624 101.481982 
z
" style="fill:#b13e26;"/>
   </g>
   <g id="patch_226">
    <path clip-path="url(#p6fd21d00fb)" d="M 359.99297 112.899656 
L 361.659375 112.899656 
L 361.659375 97.808797 
L 359.99297 97.808797 
z
" style="fill:#b13e26;"/>
   </g>
   <g id="patch_227">
    <path clip-path="url(#p6fd21d00fb)" d="M 364.853317 112.41499 
L 366.519721 112.41499 
L 366.519721 93.566871 
L 364.853317 93.566871 
z
" style="fill:#b13e26;"/>
   </g>
   <g id="patch_228">
    <path clip-path="url(#p6fd21d00fb)" d="M 369.713663 111.897354 
L 371.380068 111.897354 
L 371.380068 88.714992 
L 369.713663 88.714992 
z
" style="fill:#b13e26;"/>
   </g>
   <g id="patch_229">
    <path clip-path="url(#p6fd21d00fb)" d="M 374.57401 111.346747 
L 376.240415 111.346747 
L 376.240415 83.211945 
L 374.57401 83.211945 
z
" style="fill:#b13e26;"/>
   </g>
   <g id="patch_230">
    <path clip-path="url(#p6fd21d00fb)" d="M 379.434357 110.763169 
L 381.100761 110.763169 
L 381.100761 77.016519 
L 379.434357 77.016519 
z
" style="fill:#b13e26;"/>
   </g>
   <g id="patch_231">
    <path clip-path="url(#p6fd21d00fb)" d="M 384.294703 110.146622 
L 385.961108 110.146622 
L 385.961108 70.0875 
L 384.294703 70.0875 
z
" style="fill:#b13e26;"/>
   </g>
   <g id="patch_232">
    <path clip-path="url(#p6fd21d00fb)" d="M 389.15505 109.497103 
L 390.821454 109.497103 
L 390.821454 62.383675 
L 389.15505 62.383675 
z
" style="fill:#b13e26;"/>
   </g>
   <g id="patch_233">
    <path clip-path="url(#p6fd21d00fb)" d="M 394.015396 108.814615 
L 395.681801 108.814615 
L 395.681801 53.86383 
L 394.015396 53.86383 
z
" style="fill:#b13e26;"/>
   </g>
   <g id="patch_234">
    <path clip-path="url(#p6fd21d00fb)" d="M 398.875743 108.099155 
L 400.542148 108.099155 
L 400.542148 44.486754 
L 398.875743 44.486754 
z
" style="fill:#b13e26;"/>
   </g>
   <g id="patch_235">
    <path clip-path="url(#p6fd21d00fb)" d="M 403.73609 107.350726 
L 405.402494 107.350726 
L 405.402494 34.211232 
L 403.73609 34.211232 
z
" style="fill:#b13e26;"/>
   </g>
   <g id="patch_236">
    <path clip-path="url(#p6fd21d00fb)" d="M 408.596436 106.569326 
L 410.262841 106.569326 
L 410.262841 22.996052 
L 408.596436 22.996052 
z
" style="fill:#b13e26;"/>
   </g>
   <g id="patch_237">
    <path clip-path="url(#p6fd21d00fb)" d="M 413.456783 105.754955 
L 415.123187 105.754955 
L 415.123187 10.8 
L 413.456783 10.8 
z
" style="fill:#b13e26;"/>
   </g>
   <g id="matplotlib.axis_5">
    <g id="xtick_6">
     <g id="line2d_16">
      <g>
       <use style="stroke:#000000;stroke-width:0.8;" x="297.641667" xlink:href="#mf3ce0fcbeb" y="116.2"/>
      </g>
     </g>
     <g id="text_6">
      <!-- 0 -->
      <g transform="translate(294.460417 130.798438)scale(0.1 -0.1)">
       <use xlink:href="#DejaVuSans-30"/>
      </g>
     </g>
    </g>
    <g id="xtick_7">
     <g id="line2d_17">
      <g>
       <use style="stroke:#000000;stroke-width:0.8;" x="414.289985" xlink:href="#mf3ce0fcbeb" y="116.2"/>
      </g>
     </g>
     <g id="text_7">
      <!-- 10 -->
      <g transform="translate(407.927485 130.798438)scale(0.1 -0.1)">
       <use xlink:href="#DejaVuSans-31"/>
       <use x="63.623047" xlink:href="#DejaVuSans-30"/>
      </g>
     </g>
    </g>
   </g>
   <g id="matplotlib.axis_6">
    <g id="ytick_9">
     <g id="line2d_18">
      <g>
       <use style="stroke:#000000;stroke-width:0.8;" x="297.641667" xlink:href="#m3900ab1a42" y="116.2"/>
      </g>
     </g>
    </g>
    <g id="ytick_10">
     <g id="line2d_19">
      <g>
       <use style="stroke:#000000;stroke-width:0.8;" x="297.641667" xlink:href="#m3900ab1a42" y="92.461261"/>
      </g>
     </g>
    </g>
    <g id="ytick_11">
     <g id="line2d_20">
      <g>
       <use style="stroke:#000000;stroke-width:0.8;" x="297.641667" xlink:href="#m3900ab1a42" y="68.722523"/>
      </g>
     </g>
    </g>
    <g id="ytick_12">
     <g id="line2d_21">
      <g>
       <use style="stroke:#000000;stroke-width:0.8;" x="297.641667" xlink:href="#m3900ab1a42" y="44.983784"/>
      </g>
     </g>
    </g>
    <g id="ytick_13">
     <g id="line2d_22">
      <g>
       <use style="stroke:#000000;stroke-width:0.8;" x="297.641667" xlink:href="#m3900ab1a42" y="21.245045"/>
      </g>
     </g>
    </g>
   </g>
   <g id="line2d_23">
    <path clip-path="url(#p6fd21d00fb)" d="M 297.628834 116.200104 
L 307.022296 116.012848 
L 313.3616 115.667187 
L 318.751291 115.154429 
L 323.58918 114.47381 
L 328.067757 113.621212 
L 332.276849 112.595305 
L 336.293453 111.388262 
L 340.156065 109.995412 
L 343.890351 108.412795 
L 347.534809 106.626413 
L 351.102271 104.629551 
L 354.60557 102.413739 
L 358.070372 99.958654 
L 361.509508 97.247714 
L 364.922979 94.272591 
L 368.323618 91.012687 
L 371.724257 87.443241 
L 375.137728 83.534815 
L 378.551199 79.286007 
L 381.990335 74.646549 
L 385.442304 69.613048 
L 388.919938 64.145523 
L 392.423238 58.219897 
L 395.965035 51.787222 
L 399.532497 44.842643 
L 403.138457 37.331985 
L 406.782915 29.222332 
L 410.465871 20.479504 
L 414.187324 11.068028 
L 414.289985 10.8 
L 414.289985 10.8 
" style="fill:none;stroke:#677d00;stroke-linecap:square;stroke-width:1.5;"/>
   </g>
   <g id="patch_238">
    <path d="M 297.641667 116.2 
L 297.641667 10.8 
" style="fill:none;stroke:#000000;stroke-linecap:square;stroke-linejoin:miter;stroke-width:0.8;"/>
   </g>
   <g id="patch_239">
    <path d="M 297.641667 116.2 
L 297.641667 10.8 
" style="fill:none;stroke:#000000;stroke-linecap:square;stroke-linejoin:miter;stroke-width:0.8;"/>
   </g>
   <g id="patch_240">
    <path d="M 297.641667 116.2 
L 417.622794 116.2 
" style="fill:none;stroke:#000000;stroke-linecap:square;stroke-linejoin:miter;stroke-width:0.8;"/>
   </g>
   <g id="patch_241">
    <path d="M 297.641667 116.2 
L 417.622794 116.2 
" style="fill:none;stroke:#000000;stroke-linecap:square;stroke-linejoin:miter;stroke-width:0.8;"/>
   </g>
   <g id="legend_1">
    <g id="line2d_24">
     <path d="M 306.641667 23.898437 
L 326.641667 23.898437 
" style="fill:none;stroke:#677d00;stroke-linecap:square;stroke-width:1.5;"/>
    </g>
    <g id="line2d_25"/>
    <g id="text_8">
     <!-- $x^3 + x^2 + x$ -->
     <g transform="translate(334.641667 27.398437)scale(0.1 -0.1)">
      <defs>
       <path d="M 3841 3500 
L 2234 1784 
L 3219 0 
L 2559 0 
L 1819 1388 
L 531 0 
L -166 0 
L 1556 1844 
L 641 3500 
L 1300 3500 
L 1972 2234 
L 3144 3500 
L 3841 3500 
z
" id="DejaVuSans-Oblique-78" transform="scale(0.015625)"/>
       <path d="M 2597 2516 
Q 3050 2419 3304 2112 
Q 3559 1806 3559 1356 
Q 3559 666 3084 287 
Q 2609 -91 1734 -91 
Q 1441 -91 1130 -33 
Q 819 25 488 141 
L 488 750 
Q 750 597 1062 519 
Q 1375 441 1716 441 
Q 2309 441 2620 675 
Q 2931 909 2931 1356 
Q 2931 1769 2642 2001 
Q 2353 2234 1838 2234 
L 1294 2234 
L 1294 2753 
L 1863 2753 
Q 2328 2753 2575 2939 
Q 2822 3125 2822 3475 
Q 2822 3834 2567 4026 
Q 2313 4219 1838 4219 
Q 1578 4219 1281 4162 
Q 984 4106 628 3988 
L 628 4550 
Q 988 4650 1302 4700 
Q 1616 4750 1894 4750 
Q 2613 4750 3031 4423 
Q 3450 4097 3450 3541 
Q 3450 3153 3228 2886 
Q 3006 2619 2597 2516 
z
" id="DejaVuSans-33" transform="scale(0.015625)"/>
       <path d="M 2944 4013 
L 2944 2272 
L 4684 2272 
L 4684 1741 
L 2944 1741 
L 2944 0 
L 2419 0 
L 2419 1741 
L 678 1741 
L 678 2272 
L 2419 2272 
L 2419 4013 
L 2944 4013 
z
" id="DejaVuSans-2b" transform="scale(0.015625)"/>
      </defs>
      <use transform="translate(0 0.765625)" xlink:href="#DejaVuSans-Oblique-78"/>
      <use transform="translate(63.645833 39.046875)scale(0.7)" xlink:href="#DejaVuSans-33"/>
      <use transform="translate(130.398763 0.765625)" xlink:href="#DejaVuSans-2b"/>
      <use transform="translate(233.670247 0.765625)" xlink:href="#DejaVuSans-Oblique-78"/>
      <use transform="translate(297.316081 39.046875)scale(0.7)" xlink:href="#DejaVuSans-32"/>
      <use transform="translate(364.06901 0.765625)" xlink:href="#DejaVuSans-2b"/>
      <use transform="translate(467.340495 0.765625)" xlink:href="#DejaVuSans-Oblique-78"/>
     </g>
    </g>
    <g id="patch_242">
     <path d="M 306.641667 42.076562 
L 326.641667 42.076562 
L 326.641667 35.076562 
L 306.641667 35.076562 
z
" style="fill:#306693;"/>
    </g>
    <g id="text_9">
     <!-- $x$ -->
     <g transform="translate(334.641667 42.076562)scale(0.1 -0.1)">
      <use transform="translate(0 0.3125)" xlink:href="#DejaVuSans-Oblique-78"/>
     </g>
    </g>
    <g id="patch_243">
     <path d="M 306.641667 56.754687 
L 326.641667 56.754687 
L 326.641667 49.754687 
L 306.641667 49.754687 
z
" style="fill:#e69500;"/>
    </g>
    <g id="text_10">
     <!-- $x^2$ -->
     <g transform="translate(334.641667 56.754687)scale(0.1 -0.1)">
      <use transform="translate(0 0.765625)" xlink:href="#DejaVuSans-Oblique-78"/>
      <use transform="translate(63.645833 39.046875)scale(0.7)" xlink:href="#DejaVuSans-32"/>
     </g>
    </g>
    <g id="patch_244">
     <path d="M 306.641667 71.432812 
L 326.641667 71.432812 
L 326.641667 64.432812 
L 306.641667 64.432812 
z
" style="fill:#b13e26;"/>
    </g>
    <g id="text_11">
     <!-- $x^3$ -->
     <g transform="translate(334.641667 71.432812)scale(0.1 -0.1)">
      <use transform="translate(0 0.765625)" xlink:href="#DejaVuSans-Oblique-78"/>
      <use transform="translate(63.645833 39.046875)scale(0.7)" xlink:href="#DejaVuSans-33"/>
     </g>
    </g>
   </g>
  </g>
 </g>
 <defs>
  <clipPath id="pade7ab896b">
   <rect height="105.4" width="119.981127" x="18.675" y="10.8"/>
  </clipPath>
  <clipPath id="pb9e5df50d3">
   <rect height="105.4" width="119.981127" x="158.158333" y="10.8"/>
  </clipPath>
  <clipPath id="p6fd21d00fb">
   <rect height="105.4" width="119.981127" x="297.641667" y="10.8"/>
  </clipPath>
 </defs>
</svg>
