<?xml version="1.0" encoding="UTF-8"?>
<svg xmlns="http://www.w3.org/2000/svg" xmlns:xlink="http://www.w3.org/1999/xlink" width="718.02064pt" height="270.2718pt" viewBox="0 0 718.02064 270.2718" version="1.1">
<defs>
<clipPath id="clip1">
  <path d="M 0 0 L 718.019531 0 L 718.019531 270.273438 L 0 270.273438 Z M 0 0 "/>
</clipPath>
<filter id="alpha" filterUnits="objectBoundingBox" x="0%" y="0%" width="100%" height="100%">
  <feColorMatrix type="matrix" in="SourceGraphic" values="0 0 0 0 1 0 0 0 0 1 0 0 0 0 1 0 0 0 1 0"/>
</filter>
<mask id="mask0">
  <g filter="url(#alpha)">
<rect x="0" y="0" width="718.02064" height="270.2718" style="fill:rgb(0%,0%,0%);fill-opacity:0.8569;stroke:none;"/>
  </g>
</mask>
<clipPath id="clip3">
  <path d="M 0.507812 1 L 201 1 L 201 148.945312 L 0.507812 148.945312 Z M 0.507812 1 "/>
</clipPath>
<clipPath id="clip2">
  <rect x="0" y="0" width="202" height="149"/>
</clipPath>
<g id="surface5" clip-path="url(#clip2)">
<path style=" stroke:none;fill-rule:nonzero;fill:rgb(45.097351%,65.490723%,82.745361%);fill-opacity:1;" d="M 64.441406 34.875 L 196.847656 4.59375 L 136.601562 115.164062 L 4.195312 145.441406 Z M 64.441406 34.875 "/>
<g clip-path="url(#clip3)" clip-rule="nonzero">
<path style=" stroke:none;fill-rule:nonzero;fill:rgb(19.215393%,39.99939%,57.647705%);fill-opacity:1;" d="M 41.410156 75.0625 C 41.894531 74.105469 44.132812 69.972656 44.234375 69.921875 C 43.378906 71.46875 41.632812 74.757812 41.410156 75.0625 Z M 36.84375 83.378906 C 37.605469 81.890625 39.441406 78.582031 40.0625 77.527344 C 39.085938 79.285156 37.207031 82.820312 36.84375 83.378906 Z M 44.003906 70.613281 C 45.226562 68.40625 47.398438 64.328125 48.003906 63.324219 C 46.785156 65.53125 44.609375 69.605469 44.003906 70.613281 Z M 46.425781 137.730469 C 45.304688 138.019531 40.609375 139.105469 40.683594 139.023438 C 42.371094 138.652344 46.148438 137.742188 46.425781 137.730469 Z M 20.511719 143.507812 C 18.742188 143.957031 15.066406 144.769531 13.945312 144.988281 C 15.90625 144.550781 19.980469 143.578125 20.511719 143.507812 Z M 5.328125 147.007812 C 3.703125 147.378906 2.023438 147.757812 0.769531 148.039062 C 1.507812 146.699219 1.984375 145.851562 1.863281 146.148438 C 1.652344 146.496094 1.269531 147.191406 0.828125 147.992188 C 2.707031 147.566406 5.164062 146.996094 5.328125 147.007812 Z M 45.6875 72.785156 C 43.921875 75.976562 42.726562 78.273438 41.550781 80.425781 C 35.65625 91.21875 44.40625 74.921875 45.6875 72.785156 Z M 11.902344 127.992188 C 10.664062 130.269531 9.652344 132.097656 8.996094 133.234375 C 10.152344 131.121094 11.71875 128.191406 11.902344 127.992188 Z M 22.6875 108.332031 C 22.90625 107.855469 29.273438 96.210938 32.851562 89.738281 C 29.882812 95.207031 22.46875 108.808594 22.6875 108.332031 Z M 31.6875 98.535156 C 27.726562 105.699219 21.53125 117.085938 18.660156 122.292969 C 15.8125 127.46875 23.5625 113.179688 30.753906 100.007812 C 37.96875 86.796875 32.210938 97.609375 35.171875 92.222656 C 38.113281 86.882812 32.460938 97.316406 29.511719 102.667969 C 26.578125 107.980469 31.40625 99.140625 31.6875 98.535156 Z M 32.191406 98.070312 C 33.589844 95.496094 34.816406 93.269531 35.664062 91.785156 C 34.25 94.425781 32.894531 96.949219 32.191406 98.070312 Z M 66.285156 34.792969 C 67.171875 33.949219 74.28125 31.800781 82.203125 29.613281 C 84.1875 29.078125 86.175781 28.539062 88.234375 27.980469 C 102.9375 24.335938 117.777344 20.800781 132.621094 17.332031 C 135.5625 16.648438 138.503906 15.964844 141.535156 15.261719 C 150.664062 13.128906 159.8125 11.015625 169.007812 8.902344 C 172.054688 8.203125 175.105469 7.5 178.246094 6.777344 C 185.988281 4.949219 193.371094 3.285156 200.789062 1.605469 C 199.148438 4.601562 197.511719 7.59375 195.875 10.601562 C 193.199219 15.519531 190.519531 20.496094 187.859375 25.550781 C 186.53125 28.082031 180.496094 39.125 178.289062 43.066406 C 180.546875 39.199219 170.59375 57.355469 171.03125 56.539062 C 169.871094 58.574219 168.6875 60.683594 167.527344 62.785156 C 166.363281 64.890625 167.785156 62.238281 169.210938 59.585938 C 167.894531 61.949219 166.597656 64.304688 165.289062 66.699219 C 163.925781 69.210938 162.5625 71.722656 161.15625 74.3125 C 156.621094 82.75 151.632812 91.816406 147.3125 99.613281 C 144.886719 104.070312 141.574219 110.148438 137.902344 116.878906 C 109.605469 123.339844 70.894531 132.152344 80.183594 130.007812 C 93.425781 126.941406 86.640625 128.441406 83.105469 129.238281 C 81.03125 129.710938 78.25 130.339844 75.136719 131.046875 C 75.21875 131.050781 75.445312 131.023438 75.910156 130.929688 C 69.996094 132.300781 61.625 134.289062 53.550781 136.066406 C 55.074219 135.707031 57.011719 135.261719 57.746094 135.058594 C 53.636719 136.003906 56.957031 135.171875 54.289062 135.761719 C 46.8125 137.453125 43.253906 138.25 51.914062 136.273438 C 43.925781 138.039062 38.917969 139.082031 31.101562 140.78125 C 28.085938 141.484375 29.734375 141.101562 30.578125 140.941406 C 25.273438 142.191406 13.234375 144.929688 12.050781 145.234375 C 10.855469 145.546875 44.71875 137.777344 38.652344 139.210938 C 36.183594 139.796875 31.121094 140.941406 29.15625 141.414062 C 33.425781 140.445312 38.699219 139.238281 41.398438 138.648438 C 38.417969 139.34375 34.226562 140.300781 31.894531 140.851562 C 34.769531 140.195312 36.734375 139.753906 37.554688 139.59375 C 33.355469 140.554688 30.179688 141.292969 25.191406 142.429688 C 23.007812 142.90625 27.15625 141.925781 22.445312 143 C 21.648438 143.148438 25.574219 142.273438 25.335938 142.296875 C 21.550781 143.144531 13.972656 144.878906 12.117188 145.289062 C 10.320312 145.679688 16.726562 144.234375 16.902344 144.171875 C 11.699219 145.355469 6.246094 146.597656 1.140625 147.757812 C 5.714844 139.382812 9.71875 132.054688 11.371094 129.046875 C 13.945312 124.351562 11.558594 128.734375 10.503906 130.699219 C 13.507812 125.238281 15.734375 121.152344 19.257812 114.703125 C 21.519531 110.570312 20.640625 112.203125 19.816406 113.746094 C 20.421875 112.648438 20.957031 111.675781 21.3125 111.039062 C 21.574219 110.570312 22.226562 109.390625 22.679688 108.582031 C 21.324219 111.09375 18.738281 115.8125 17.652344 117.851562 C 19.78125 114.03125 24.613281 105.074219 26.476562 101.761719 C 23.691406 106.945312 20.632812 112.53125 17.492188 118.347656 C 23.734375 106.953125 29.886719 95.371094 35.039062 86.160156 C 34.160156 87.792969 33.824219 88.488281 33.125 89.820312 C 34.972656 86.355469 37.722656 81.210938 39.515625 78.085938 C 40.464844 76.363281 42.347656 72.964844 44.210938 69.570312 C 40.992188 75.511719 38.84375 79.484375 36.550781 83.636719 C 36.613281 83.550781 36.835938 83.167969 37.234375 82.453125 C 32.304688 91.695312 29.160156 97.105469 25.507812 103.75 C 25.234375 104.257812 24.960938 104.765625 24.679688 105.289062 C 23.609375 107.382812 27.683594 99.859375 28.15625 99.078125 C 22.855469 108.855469 16.96875 119.566406 14.457031 124.3125 C 20.824219 112.667969 26.363281 102.441406 31.214844 93.667969 C 30.082031 95.886719 25.238281 104.683594 23.023438 108.828125 C 33.457031 89.804688 34.507812 87.886719 35.363281 86.339844 C 34.578125 87.792969 33.792969 89.25 32.984375 90.746094 C 33.203125 90.371094 33.421875 89.992188 33.644531 89.605469 C 38.191406 81.273438 43.519531 71.488281 43.273438 71.984375 C 43.089844 72.355469 38.953125 79.96875 34.578125 88 C 35.074219 87.148438 35.566406 86.300781 36.078125 85.425781 C 41.207031 76.035156 47.136719 65.394531 52.191406 56.019531 C 51.421875 57.558594 51.839844 56.769531 52.941406 54.828125 C 51.378906 57.769531 49.101562 61.953125 47.421875 65.097656 C 48.027344 64.019531 49.078125 62.078125 49.445312 61.457031 C 48.609375 63.027344 47.246094 65.507812 46.867188 66.289062 C 49.300781 61.871094 51.902344 57.121094 54.460938 52.457031 C 55.039062 51.519531 53.371094 54.480469 53.546875 54.238281 C 55.972656 49.832031 59.316406 43.636719 61.125 40.441406 C 59.144531 44.164062 55.15625 51.402344 53.953125 53.675781 C 54.773438 52.210938 55.589844 50.746094 56.433594 49.238281 C 58.074219 46.238281 58.871094 44.800781 57.058594 48.179688 C 56.089844 49.992188 56.113281 49.953125 56.367188 49.5 C 57.523438 47.457031 61.414062 40.308594 61.378906 40.542969 C 60.394531 42.347656 56.503906 49.484375 55.582031 51.300781 C 56.382812 49.960938 58.332031 46.308594 58.585938 45.957031 C 54.257812 53.847656 54.445312 53.566406 53.328125 55.523438 C 53.789062 54.664062 55.03125 52.414062 54.949219 52.492188 C 52.296875 57.355469 49.648438 62.222656 46.917969 67.238281 C 47.214844 66.78125 47.191406 66.941406 46.980469 67.386719 C 48.144531 65.261719 49.363281 63.054688 51.511719 59.09375 C 51.03125 60.15625 49.039062 63.789062 47.183594 67.136719 C 47.214844 67.109375 47.242188 67.082031 47.273438 67.054688 C 50.226562 61.625 54.769531 53.347656 57.835938 47.8125 C 56.476562 50.34375 51.394531 59.671875 47.914062 66.027344 C 48.042969 65.824219 48.171875 65.621094 48.304688 65.414062 C 43.933594 73.398438 38.929688 82.734375 34.003906 91.703125 C 36.5 87.339844 39.132812 82.335938 42.199219 76.753906 C 43.609375 74.191406 44.9375 71.828125 46.328125 69.34375 C 50.152344 62.277344 61.582031 41.273438 62.925781 38.890625 C 64.402344 36.269531 52.816406 57.53125 52.777344 57.65625 C 52.738281 57.777344 58.152344 47.894531 55.609375 52.550781 C 54.277344 54.984375 51.375 60.292969 49.265625 64.144531 C 49.25 64.273438 49.234375 64.40625 49.21875 64.542969 C 51.050781 61.1875 53.238281 57.226562 53.21875 57.054688 C 54.136719 55.398438 55.992188 51.910156 56.328125 51.390625 C 56.027344 51.960938 55.558594 52.808594 55.582031 52.8125 C 56.027344 52.003906 56.65625 50.828125 56.75 50.714844 C 54.558594 54.757812 51.546875 60.335938 49.144531 64.742188 C 48.96875 65.113281 48.792969 65.484375 48.609375 65.867188 C 48.664062 65.789062 50.558594 62.355469 52.175781 59.414062 C 53.882812 56.308594 50.394531 62.761719 47.601562 67.878906 C 47.1875 68.6875 46.777344 69.496094 46.351562 70.328125 C 47.3125 68.554688 48.429688 66.503906 49.753906 64.085938 C 51.324219 61.269531 51.335938 61.351562 52.902344 58.539062 C 50.101562 63.722656 46.691406 69.984375 43.9375 75.007812 C 43 76.824219 42.0625 78.636719 41.101562 80.503906 C 43.398438 76.332031 45.539062 72.480469 46.824219 70.195312 C 47.820312 68.355469 48.859375 66.433594 49.265625 65.753906 C 48.355469 67.46875 50.804688 62.992188 50.503906 63.671875 C 49.109375 66.109375 46.484375 70.980469 45.429688 72.753906 C 43.335938 76.59375 41.050781 80.792969 39.023438 84.511719 C 38.773438 84.984375 38.527344 85.457031 38.269531 85.941406 C 40 82.78125 41.648438 79.78125 43.511719 76.414062 C 42.792969 77.910156 37.757812 87.160156 34.035156 93.890625 C 26.691406 107.492188 18.648438 121.621094 11.089844 135.390625 C 10.785156 135.953125 10.363281 136.746094 9.90625 137.609375 C 9.410156 138.570312 8.910156 139.53125 8.398438 140.523438 C 10.199219 137.226562 11.816406 134.289062 13.15625 131.863281 C 8 141.460938 20.789062 117.960938 21.722656 116.378906 C 17.996094 123.308594 12.734375 132.984375 7.1875 143.179688 C 21.234375 139.960938 36.132812 136.558594 47.273438 133.972656 C 42.46875 135.066406 40.933594 135.40625 46.125 134.199219 C 47.527344 133.871094 48.933594 133.542969 50.378906 133.207031 C 35.792969 136.5 20.660156 140.019531 7.355469 143.050781 C 9.914062 138.363281 12.367188 133.894531 14.660156 129.757812 C 12.535156 133.667969 9.890625 138.511719 7.457031 142.972656 C 13.453125 141.605469 18.84375 140.363281 21.113281 139.800781 C 18.300781 140.441406 14.1875 141.394531 13.667969 141.484375 C 18.699219 140.269531 35.074219 136.605469 40 135.414062 C 30.164062 137.644531 18.835938 140.234375 7.722656 142.769531 C 15.386719 128.71875 22.855469 115.03125 27.960938 105.8125 C 21.855469 116.972656 14.792969 129.941406 7.855469 142.671875 C 23.800781 139.023438 39.398438 135.460938 51.300781 132.789062 C 47.375 133.695312 47.308594 133.734375 49.339844 133.304688 C 56.320312 131.722656 63.308594 130.140625 70.511719 128.511719 C 71.972656 128.160156 71.496094 128.261719 68.03125 129.03125 C 65.1875 129.664062 63.511719 130.054688 62.613281 130.222656 C 64.558594 129.765625 86.835938 124.675781 69.140625 128.703125 C 51.503906 132.714844 21.007812 139.648438 38.894531 135.535156 C 56.761719 131.429688 63.855469 129.753906 54.15625 131.953125 C 44.417969 134.15625 13.765625 141.085938 24.089844 138.714844 C 34.363281 136.355469 56.070312 131.339844 68.273438 128.5625 C 80.527344 125.777344 59.792969 130.726562 77.890625 126.59375 C 95.992188 122.457031 80.945312 125.824219 84.402344 125.035156 C 89.875 123.789062 99.941406 121.480469 109.484375 119.296875 C 116.179688 117.753906 124.800781 115.785156 129.113281 114.765625 C 128.789062 114.800781 108.429688 119.484375 116.464844 117.609375 C 122.84375 116.152344 129.464844 114.636719 135.207031 113.324219 C 141.105469 102.503906 145.105469 95.183594 142.140625 100.742188 C 148.121094 89.746094 152.535156 81.660156 156.292969 74.792969 C 162.007812 64.128906 168.777344 51.734375 169.496094 50.371094 C 170.332031 48.78125 186.476562 19.511719 191.996094 8.882812 C 192.050781 8.785156 192.257812 8.410156 192.578125 7.824219 C 187.859375 8.890625 170.75 12.746094 169.179688 13.042969 C 148.128906 17.933594 151.003906 17.335938 130.421875 22.015625 C 113.203125 25.929688 107.949219 27.089844 105.046875 27.746094 C 86.878906 31.859375 86.996094 31.914062 78.113281 33.621094 C 75.414062 34.140625 71.25 35.089844 69.808594 35.257812 C 66.910156 35.59375 65.484375 35.503906 66.285156 34.792969 Z M 45.582031 69.460938 C 47.183594 66.46875 50.160156 61.050781 51.847656 57.886719 C 49.808594 61.5 47.386719 65.980469 44.933594 70.539062 C 45.148438 70.183594 45.363281 69.828125 45.582031 69.460938 Z M 34.371094 92.082031 C 35.453125 90.105469 36.675781 87.75 37.90625 85.523438 C 39.050781 83.421875 40.222656 81.246094 42.003906 78.050781 C 41.890625 78.324219 39.082031 83.550781 36.851562 87.625 C 36.875 87.617188 36.902344 87.609375 36.925781 87.597656 C 38.039062 85.617188 39.335938 83.273438 40.847656 80.5 C 41.355469 79.558594 41.863281 78.617188 42.386719 77.644531 C 42.386719 77.574219 41.546875 79.070312 41.25 79.632812 C 41.578125 78.921875 42.886719 76.472656 44.605469 73.289062 C 44.800781 72.902344 45 72.519531 45.203125 72.125 C 45.386719 71.6875 44.035156 74.117188 45.519531 71.410156 C 44.417969 73.320312 41.785156 78.238281 40.09375 81.316406 C 42.113281 77.847656 34.957031 90.835938 33.285156 93.996094 C 33.644531 93.363281 34.003906 92.734375 34.371094 92.082031 Z M 17.121094 119.050781 C 16.136719 120.859375 15.152344 122.671875 14.136719 124.539062 C 15.605469 121.851562 16.734375 119.789062 17.773438 117.894531 C 17.558594 118.277344 17.34375 118.65625 17.121094 119.050781 Z M 138.226562 115.914062 C 138.082031 116.175781 137.933594 116.441406 137.78125 116.714844 C 125.054688 119.492188 100.335938 125.277344 98.683594 125.570312 C 96.039062 126.1875 93.398438 126.800781 90.671875 127.433594 C 107.460938 123.605469 125.425781 119.515625 137.785156 116.722656 C 137.933594 116.449219 138.082031 116.183594 138.226562 115.914062 Z M 95.574219 122.730469 C 94.605469 122.957031 95 122.878906 97.328125 122.351562 C 109.746094 119.554688 117.117188 117.917969 109.269531 119.710938 C 102.566406 121.246094 87.96875 124.597656 92.242188 123.644531 C 97.933594 122.351562 103.628906 121.058594 109.496094 119.726562 C 113.996094 118.675781 118.347656 117.625 122.769531 116.539062 C 113.171875 118.722656 103.976562 120.820312 95.574219 122.730469 Z M 128.089844 115.226562 C 124.667969 116.011719 120.582031 116.953125 116.453125 117.90625 C 120.039062 117.089844 123.621094 116.273438 127.316406 115.433594 C 127.570312 115.363281 127.828125 115.296875 128.089844 115.226562 Z M 132.441406 114.15625 C 125.464844 115.746094 118.492188 117.351562 125.523438 115.765625 C 127.105469 115.410156 128.683594 115.050781 130.3125 114.683594 C 131.015625 114.511719 131.71875 114.335938 132.441406 114.15625 Z M 136 112.203125 C 135.980469 112.265625 135.761719 112.691406 135.335938 113.492188 C 134.777344 113.625 134.046875 113.792969 133.148438 114 C 133.800781 113.851562 134.546875 113.683594 135.34375 113.503906 C 137.777344 109.046875 141.203125 102.777344 140.984375 103.089844 C 139.433594 105.917969 137.738281 109.019531 136 112.203125 Z M 142.332031 108.566406 C 140.710938 111.5625 139.296875 114.171875 141.894531 109.445312 C 142.878906 107.648438 143.867188 105.847656 144.882812 103.992188 C 144.042969 105.503906 143.199219 107.011719 142.332031 108.566406 Z M 19.925781 120.246094 C 19.265625 121.445312 16.800781 125.972656 15.332031 128.625 C 14.882812 129.101562 20.71875 118.644531 19.925781 120.246094 Z M 29.28125 103.214844 C 28.644531 104.371094 26.183594 108.898438 24.703125 111.574219 C 24.277344 112.003906 30.085938 101.597656 29.28125 103.214844 Z M 192.011719 8.847656 C 192.003906 8.863281 191.996094 8.875 191.992188 8.886719 C 191.996094 8.875 192.003906 8.863281 192.011719 8.847656 Z M 192.011719 8.847656 "/>
</g>
</g>
<mask id="mask1">
  <g filter="url(#alpha)">
<rect x="0" y="0" width="718.02064" height="270.2718" style="fill:rgb(0%,0%,0%);fill-opacity:0.8569;stroke:none;"/>
  </g>
</mask>
<clipPath id="clip5">
  <path d="M 0.507812 0.945312 L 137.507812 0.945312 L 137.507812 132.945312 L 0.507812 132.945312 Z M 0.507812 0.945312 "/>
</clipPath>
<clipPath id="clip4">
  <rect x="0" y="0" width="138" height="133"/>
</clipPath>
<g id="surface8" clip-path="url(#clip4)">
<path style=" stroke:none;fill-rule:nonzero;fill:rgb(45.097351%,65.490723%,82.745361%);fill-opacity:1;" d="M 3.53125 33.394531 L 135.933594 3.113281 L 135.292969 100.746094 L 2.886719 131.027344 Z M 3.53125 33.394531 "/>
<g clip-path="url(#clip5)" clip-rule="nonzero">
<path style="fill:none;stroke-width:1;stroke-linecap:butt;stroke-linejoin:miter;stroke:rgb(19.215393%,39.99939%,57.647705%);stroke-opacity:1;stroke-miterlimit:4;" d="M 0.830949 39.085044 L 171.586622 -0.00066958 L 170.760425 126.019496 L -0.00028534 165.105209 Z M 0.830949 39.085044 " transform="matrix(0.775391,0,0,0.77474,2.88694,3.1138)"/>
</g>
</g>
<mask id="mask2">
  <g filter="url(#alpha)">
<rect x="0" y="0" width="718.02064" height="270.2718" style="fill:rgb(0%,0%,0%);fill-opacity:0.6765;stroke:none;"/>
  </g>
</mask>
<clipPath id="clip7">
  <path d="M 0.507812 0.945312 L 65.507812 0.945312 L 65.507812 114.945312 L 0.507812 114.945312 Z M 0.507812 0.945312 "/>
</clipPath>
<clipPath id="clip6">
  <rect x="0" y="0" width="66" height="115"/>
</clipPath>
<g id="surface11" clip-path="url(#clip6)">
<path style=" stroke:none;fill-rule:nonzero;fill:rgb(67.451477%,82.745361%,45.097351%);fill-opacity:1;" d="M 29.5625 10.8125 L 63.660156 3.011719 L 3.046875 112.824219 Z M 29.5625 10.8125 "/>
<g clip-path="url(#clip7)" clip-rule="nonzero">
<path style="fill:none;stroke-width:1;stroke-linecap:butt;stroke-linejoin:miter;stroke:rgb(40.391541%,49.01886%,0%);stroke-opacity:1;stroke-miterlimit:4;" d="M 34.198454 10.067383 L 78.173267 -0.00152471 L 0.00197965 141.739649 Z M 34.198454 10.067383 " transform="matrix(0.775391,0,0,0.77474,3.04534,3.0129)"/>
</g>
</g>
<mask id="mask3">
  <g filter="url(#alpha)">
<rect x="0" y="0" width="718.02064" height="270.2718" style="fill:rgb(0%,0%,0%);fill-opacity:0.8215;stroke:none;"/>
  </g>
</mask>
<clipPath id="clip9">
  <path d="M 0.507812 0.945312 L 65.507812 0.945312 L 65.507812 114.945312 L 0.507812 114.945312 Z M 0.507812 0.945312 "/>
</clipPath>
<clipPath id="clip8">
  <rect x="0" y="0" width="66" height="115"/>
</clipPath>
<g id="surface14" clip-path="url(#clip8)">
<path style=" stroke:none;fill-rule:nonzero;fill:rgb(82.745361%,51.765442%,45.097351%);fill-opacity:1;" d="M 29.515625 10.394531 L 63.613281 2.59375 L 3 112.40625 Z M 29.515625 10.394531 "/>
<g clip-path="url(#clip9)" clip-rule="nonzero">
<path style="fill:none;stroke-width:1;stroke-linecap:butt;stroke-linejoin:miter;stroke:rgb(69.412231%,24.313354%,14.901733%);stroke-opacity:1;stroke-miterlimit:4;" d="M 34.196681 10.067681 L 78.171494 -0.00122622 L 0.000206348 141.739947 Z M 34.196681 10.067681 " transform="matrix(0.775391,0,0,0.77474,2.99984,2.5947)"/>
</g>
</g>
<mask id="mask4">
  <g filter="url(#alpha)">
<rect x="0" y="0" width="718.02064" height="270.2718" style="fill:rgb(0%,0%,0%);fill-opacity:0.8569;stroke:none;"/>
  </g>
</mask>
<clipPath id="clip11">
  <path d="M 0.507812 1 L 165 1 L 165 138.945312 L 0.507812 138.945312 Z M 0.507812 1 "/>
</clipPath>
<clipPath id="clip10">
  <rect x="0" y="0" width="166" height="139"/>
</clipPath>
<g id="surface17" clip-path="url(#clip10)">
<path style=" stroke:none;fill-rule:nonzero;fill:rgb(45.097351%,65.490723%,82.745361%);fill-opacity:1;" d="M 29.605469 34.679688 L 162.011719 4.398438 L 135.492188 106.410156 L 3.089844 136.691406 Z M 29.605469 34.679688 "/>
<g clip-path="url(#clip11)" clip-rule="nonzero">
<path style=" stroke:none;fill-rule:nonzero;fill:rgb(19.215393%,39.99939%,57.647705%);fill-opacity:1;" d="M 17.925781 75.648438 C 18.148438 74.6875 19.222656 70.496094 19.304688 70.4375 C 18.882812 72.003906 18.0625 75.332031 17.925781 75.648438 Z M 15.703125 84.085938 C 16.050781 82.582031 16.953125 79.222656 17.273438 78.148438 C 16.792969 79.933594 15.90625 83.507812 15.703125 84.085938 Z M 19.261719 71.117188 C 19.859375 68.875 20.890625 64.746094 21.207031 63.722656 C 20.609375 65.960938 19.582031 70.085938 19.261719 71.117188 Z M 53.242188 127.167969 C 52.230469 127.429688 47.929688 128.425781 47.96875 128.351562 C 49.523438 128.011719 52.96875 127.179688 53.242188 127.167969 Z M 29.417969 132.46875 C 27.816406 132.878906 24.429688 133.621094 23.386719 133.824219 C 25.1875 133.425781 28.902344 132.53125 29.417969 132.46875 Z M 15.507812 135.675781 C 12.273438 136.410156 8.8125 137.199219 9.535156 136.972656 C 10.511719 136.800781 15.246094 135.660156 15.507812 135.675781 Z M 21.394531 72.921875 C 20.519531 76.179688 19.964844 78.515625 19.390625 80.707031 C 16.519531 91.707031 20.714844 75.117188 21.394531 72.921875 Z M 3.367188 129.335938 C 2.769531 131.640625 2.273438 133.492188 1.941406 134.644531 C 2.5 132.503906 3.246094 129.542969 3.367188 129.335938 Z M 8.609375 109.421875 C 8.695312 108.941406 11.78125 97.148438 13.535156 90.589844 C 12.105469 96.128906 8.519531 109.902344 8.609375 109.421875 Z M 14.597656 99.164062 C 12.648438 106.46875 9.636719 118.074219 8.230469 123.382812 C 6.832031 128.65625 10.582031 114.101562 14.085938 100.675781 C 17.601562 87.214844 14.859375 98.21875 16.3125 92.726562 C 17.757812 87.277344 15.023438 97.914062 13.570312 103.367188 C 12.128906 108.789062 14.484375 99.777344 14.597656 99.164062 Z M 14.953125 98.667969 C 15.632812 96.042969 16.238281 93.769531 16.664062 92.253906 C 15.988281 94.945312 15.339844 97.515625 14.953125 98.667969 Z M 31.3125 34.628906 C 32.113281 33.804688 38.632812 31.792969 45.875 29.761719 C 47.6875 29.261719 49.503906 28.761719 51.378906 28.246094 C 64.808594 24.894531 78.363281 21.652344 91.921875 18.480469 C 94.609375 17.851562 97.296875 17.226562 100.066406 16.582031 C 108.394531 14.632812 116.753906 12.703125 125.15625 10.769531 C 127.941406 10.128906 130.726562 9.488281 133.597656 8.828125 C 143.757812 6.421875 153.300781 4.324219 163.210938 2.050781 C 163.742188 1.929688 164.273438 1.804688 164.808594 1.683594 C 163.65625 6.152344 162.511719 10.671875 161.398438 15.253906 C 160.777344 17.824219 157.84375 29.046875 156.746094 33.050781 C 157.90625 29.117188 153.054688 47.566406 153.265625 46.738281 C 152.679688 48.808594 152.089844 50.953125 151.523438 53.089844 C 150.949219 55.226562 151.628906 52.535156 152.3125 49.84375 C 151.660156 52.242188 151.027344 54.636719 150.390625 57.070312 C 149.730469 59.625 149.070312 62.175781 148.390625 64.808594 C 146.21875 73.378906 143.78125 82.589844 141.65625 90.515625 C 140.480469 95.046875 138.875 101.21875 137.097656 108.058594 C 111.164062 113.980469 75.671875 122.054688 84.179688 120.085938 C 96.304688 117.277344 90.066406 118.652344 86.824219 119.382812 C 84.917969 119.816406 82.367188 120.394531 79.515625 121.039062 C 79.597656 121.046875 79.8125 121.019531 80.242188 120.933594 C 74.828125 122.1875 67.183594 124.015625 59.757812 125.640625 C 61.148438 125.3125 62.921875 124.90625 63.585938 124.71875 C 59.820312 125.585938 62.832031 124.824219 60.375 125.363281 C 53.515625 126.914062 50.242188 127.644531 58.1875 125.835938 C 50.835938 127.453125 46.195312 128.414062 38.980469 129.976562 C 36.21875 130.617188 37.730469 130.265625 38.519531 130.121094 C 33.667969 131.265625 22.613281 133.777344 21.546875 134.058594 C 20.472656 134.34375 51.527344 127.21875 45.980469 128.53125 C 43.726562 129.066406 39.074219 130.117188 37.289062 130.550781 C 41.207031 129.664062 46.042969 128.554688 48.527344 128.011719 C 45.800781 128.648438 41.957031 129.527344 39.828125 130.03125 C 42.464844 129.429688 44.273438 129.027344 45.035156 128.875 C 41.183594 129.761719 38.28125 130.4375 33.703125 131.476562 C 31.691406 131.914062 35.476562 131.015625 31.160156 132.003906 C 30.410156 132.140625 34.019531 131.335938 33.785156 131.359375 C 30.304688 132.136719 23.355469 133.730469 21.648438 134.105469 C 19.988281 134.464844 25.875 133.136719 26.023438 133.082031 C 17.3125 135.0625 7.820312 137.222656 0.929688 138.789062 C 1.910156 135.042969 2.6875 132.066406 3.128906 130.402344 C 4.378906 125.648438 3.226562 130.085938 2.722656 132.070312 C 4.1875 126.539062 5.261719 122.40625 6.96875 115.871094 C 8.066406 111.683594 7.648438 113.339844 7.257812 114.902344 C 7.550781 113.785156 7.8125 112.800781 7.988281 112.15625 C 8.117188 111.683594 8.433594 110.484375 8.660156 109.664062 C 8.011719 112.207031 6.757812 116.988281 6.242188 119.054688 C 7.292969 115.179688 9.605469 106.109375 10.53125 102.75 C 9.203125 107.996094 7.722656 113.660156 6.210938 119.546875 C 9.246094 108 12.148438 96.285156 14.699219 86.9375 C 14.277344 88.589844 14.136719 89.289062 13.808594 90.636719 C 14.6875 87.128906 15.992188 81.925781 16.898438 78.746094 C 17.363281 77 18.285156 73.554688 19.191406 70.113281 C 17.648438 76.128906 16.613281 80.15625 15.492188 84.367188 C 15.53125 84.273438 15.644531 83.886719 15.839844 83.160156 C 13.503906 92.515625 11.894531 98.019531 10.113281 104.753906 C 9.984375 105.269531 9.855469 105.78125 9.71875 106.3125 C 9.234375 108.425781 11.191406 100.804688 11.441406 100.007812 C 8.890625 109.914062 6.023438 120.773438 4.839844 125.582031 C 7.929688 113.777344 10.59375 103.417969 12.96875 94.515625 C 12.457031 96.757812 10.089844 105.679688 9.039062 109.878906 C 14.117188 90.585938 14.628906 88.640625 15.046875 87.070312 C 14.671875 88.542969 14.292969 90.019531 13.90625 91.539062 C 14.019531 91.152344 14.128906 90.769531 14.246094 90.375 C 16.449219 81.925781 19.023438 72.003906 18.914062 72.503906 C 18.832031 72.878906 16.839844 80.597656 14.722656 88.738281 C 14.976562 87.875 15.230469 87.011719 15.492188 86.121094 C 17.980469 76.589844 20.910156 65.777344 23.332031 56.277344 C 22.992188 57.828125 23.1875 57.03125 23.742188 55.050781 C 23.003906 58.03125 21.898438 62.273438 21.101562 65.460938 C 21.40625 64.363281 21.910156 62.394531 22.101562 61.757812 C 21.707031 63.351562 21.042969 65.871094 20.882812 66.65625 C 22.070312 62.164062 23.335938 57.34375 24.582031 52.605469 C 24.894531 51.644531 24.0625 54.660156 24.167969 54.40625 C 25.355469 49.925781 26.960938 43.644531 27.863281 40.386719 C 26.929688 44.15625 24.976562 51.515625 24.410156 53.816406 C 24.816406 52.324219 25.222656 50.835938 25.640625 49.300781 C 26.441406 46.253906 26.832031 44.792969 25.964844 48.21875 C 25.503906 50.054688 25.519531 50.011719 25.644531 49.554688 C 26.226562 47.46875 28.105469 40.210938 28.136719 40.433594 C 27.660156 42.265625 25.773438 49.515625 25.355469 51.347656 C 25.777344 49.972656 26.703125 46.269531 26.855469 45.898438 C 24.742188 53.925781 24.851562 53.632812 24.289062 55.628906 C 24.503906 54.757812 25.117188 52.46875 25.054688 52.554688 C 23.773438 57.496094 22.488281 62.441406 21.164062 67.53125 C 21.335938 67.0625 21.351562 67.214844 21.265625 67.664062 C 21.828125 65.503906 22.429688 63.257812 23.464844 59.234375 C 23.277344 60.300781 22.304688 63.992188 21.390625 67.402344 C 21.414062 67.371094 21.433594 67.339844 21.457031 67.308594 C 22.886719 61.792969 25.101562 53.375 26.613281 47.738281 C 25.964844 50.308594 23.5 59.789062 21.804688 66.253906 C 21.875 66.042969 21.945312 65.835938 22.019531 65.621094 C 19.890625 73.738281 17.503906 83.222656 15.09375 92.34375 C 16.359375 87.894531 17.59375 82.816406 19.09375 77.140625 C 19.785156 74.53125 20.445312 72.121094 21.136719 69.59375 C 22.980469 62.410156 28.519531 41.054688 29.191406 38.625 C 29.929688 35.949219 24.308594 57.570312 24.304688 57.691406 C 24.296875 57.8125 26.9375 47.753906 25.703125 52.496094 C 25.050781 54.96875 23.640625 60.371094 22.609375 64.289062 C 22.628906 64.414062 22.648438 64.539062 22.667969 64.667969 C 23.558594 61.253906 24.632812 57.21875 24.574219 57.0625 C 25.023438 55.375 25.902344 51.835938 26.09375 51.296875 C 25.949219 51.875 25.71875 52.738281 25.742188 52.738281 C 25.960938 51.914062 26.261719 50.722656 26.320312 50.597656 C 25.261719 54.710938 23.816406 60.382812 22.648438 64.867188 C 22.574219 65.242188 22.5 65.613281 22.421875 66 C 22.453125 65.917969 23.382812 62.421875 24.175781 59.421875 C 25.011719 56.261719 23.332031 62.824219 21.972656 68.035156 C 21.785156 68.851562 21.597656 69.671875 21.40625 70.511719 C 21.871094 68.710938 22.414062 66.621094 23.058594 64.160156 C 23.835938 61.289062 23.871094 61.363281 24.648438 58.492188 C 23.296875 63.765625 21.640625 70.144531 20.296875 75.257812 C 19.863281 77.101562 19.433594 78.941406 18.988281 80.835938 C 20.117188 76.585938 21.175781 72.65625 21.816406 70.320312 C 22.296875 68.449219 22.800781 66.492188 23.015625 65.792969 C 22.585938 67.539062 23.78125 62.976562 23.664062 63.65625 C 22.957031 66.152344 21.695312 71.109375 21.140625 72.929688 C 20.125 76.839844 19.015625 81.117188 18.027344 84.90625 C 17.910156 85.386719 17.792969 85.867188 17.671875 86.359375 C 18.515625 83.140625 19.324219 80.078125 20.246094 76.648438 C 19.9375 78.15625 17.492188 87.585938 15.660156 94.445312 C 12.261719 107.734375 8.390625 121.527344 4.820312 135.011719 C 5.394531 134.882812 5.96875 134.753906 6.542969 134.625 C 7.117188 134.492188 7.953125 134.292969 8.871094 134.070312 C 9.917969 133.808594 10.964844 133.542969 12.042969 133.273438 C 9.429688 133.867188 7.046875 134.402344 4.96875 134.867188 C 5.128906 134.265625 5.28125 133.691406 5.429688 133.140625 C 5.238281 133.898438 5.097656 134.453125 5.003906 134.832031 C 5.972656 134.601562 5.851562 134.621094 5.035156 134.800781 C 5.878906 131.648438 9.292969 118.542969 9.644531 117.363281 C 8.449219 122.09375 6.90625 128.074219 5.210938 134.632812 C 20.757812 131.058594 39.402344 126.816406 52.4375 123.785156 C 47.984375 124.800781 46.558594 125.117188 51.355469 123.996094 C 52.652344 123.695312 53.953125 123.390625 55.289062 123.078125 C 37.914062 127 19.757812 131.261719 5.382812 134.464844 C 5.695312 133.28125 6.007812 132.121094 6.3125 130.984375 C 6.03125 132.074219 5.730469 133.230469 5.417969 134.429688 C 14.03125 132.460938 24.796875 130.023438 28.125 129.191406 C 25.515625 129.785156 21.710938 130.667969 21.210938 130.753906 C 25.84375 129.632812 41.0625 126.230469 45.59375 125.128906 C 33.460938 127.878906 18.902344 131.214844 5.609375 134.242188 C 8.386719 123.601562 10.964844 113.753906 12.890625 106.5625 C 10.671875 115.027344 8.207031 124.511719 5.699219 134.15625 C 23.804688 130.019531 42.488281 125.738281 56.046875 122.695312 C 52.417969 123.539062 52.363281 123.574219 54.261719 123.171875 C 60.738281 121.707031 67.222656 120.242188 73.902344 118.730469 C 75.25 118.40625 74.804688 118.5 71.589844 119.214844 C 68.941406 119.800781 67.390625 120.160156 66.546875 120.320312 C 68.34375 119.894531 88.996094 115.175781 72.585938 118.910156 C 56.226562 122.628906 27.933594 129.058594 44.503906 125.246094 C 61.0625 121.4375 67.625 119.890625 58.617188 121.929688 C 49.574219 123.972656 21.09375 130.40625 30.667969 128.207031 C 40.199219 126.015625 60.316406 121.363281 71.648438 118.789062 C 83.027344 116.199219 63.871094 120.789062 80.65625 116.953125 C 97.445312 113.121094 83.464844 116.242188 86.671875 115.511719 C 91.75 114.355469 101.085938 112.214844 109.9375 110.1875 C 116.140625 108.757812 124.140625 106.929688 128.136719 105.984375 C 127.824219 106.015625 108.941406 110.363281 116.386719 108.625 C 122.308594 107.269531 128.453125 105.863281 133.777344 104.644531 C 136.636719 93.660156 138.578125 86.226562 137.171875 91.867188 C 140.0625 80.707031 142.203125 72.496094 144.03125 65.519531 C 146.757812 54.699219 150.046875 42.113281 150.382812 40.734375 C 150.695312 39.449219 155.746094 20.429688 159.101562 7.222656 C 155.546875 8.054688 152.367188 8.8125 149.964844 9.414062 C 149.117188 9.601562 128.734375 14.203125 127.042969 14.519531 C 107.492188 19.066406 110.191406 18.507812 91.03125 22.859375 C 75.003906 26.503906 70.109375 27.582031 67.40625 28.191406 C 50.503906 32.015625 50.625 32.070312 42.335938 33.640625 C 39.820312 34.121094 35.957031 35 34.613281 35.144531 C 31.914062 35.4375 30.585938 35.320312 31.3125 34.628906 Z M 20.460938 69.8125 C 21.226562 66.773438 22.675781 61.269531 23.480469 58.0625 C 22.457031 61.742188 21.292969 66.289062 20.121094 70.914062 C 20.234375 70.550781 20.34375 70.1875 20.460938 69.8125 Z M 15.53125 92.671875 C 16.058594 90.65625 16.621094 88.269531 17.226562 86 C 17.785156 83.863281 18.347656 81.652344 19.230469 78.390625 C 19.191406 78.664062 17.84375 83.980469 16.757812 88.128906 C 16.777344 88.117188 16.800781 88.105469 16.820312 88.097656 C 17.375 86.074219 18.015625 83.6875 18.75 80.863281 C 18.992188 79.90625 19.238281 78.945312 19.492188 77.960938 C 19.472656 77.890625 19.054688 79.417969 18.914062 79.988281 C 19.046875 79.273438 19.671875 76.78125 20.496094 73.546875 C 20.585938 73.15625 20.679688 72.765625 20.773438 72.367188 C 20.835938 71.929688 20.167969 74.40625 20.890625 71.648438 C 20.328125 73.601562 19.074219 78.601562 18.242188 81.730469 C 19.285156 78.1875 15.769531 91.410156 14.984375 94.625 C 15.164062 93.980469 15.34375 93.335938 15.53125 92.671875 Z M 6.039062 120.257812 C 5.566406 122.09375 5.089844 123.929688 4.601562 125.820312 C 5.3125 123.097656 5.859375 121.007812 6.367188 119.089844 C 6.257812 119.476562 6.152344 119.859375 6.039062 120.257812 Z M 137.167969 107.089844 C 137.09375 107.351562 137.019531 107.625 136.945312 107.902344 C 125.246094 110.445312 102.613281 115.75 101.074219 116.019531 C 98.652344 116.582031 96.230469 117.148438 93.734375 117.726562 C 109.132812 114.21875 125.613281 110.46875 136.949219 107.910156 C 137.023438 107.632812 137.09375 107.359375 137.167969 107.089844 Z M 97.113281 113.375 C 96.214844 113.585938 96.585938 113.507812 98.746094 113.023438 C 110.265625 110.429688 117.105469 108.914062 109.835938 110.578125 C 103.625 111.996094 90.105469 115.105469 94.074219 114.21875 C 99.347656 113.023438 104.628906 111.824219 110.066406 110.59375 C 114.226562 109.617188 118.246094 108.640625 122.324219 107.636719 C 113.429688 109.660156 104.902344 111.605469 97.113281 113.375 Z M 127.234375 106.417969 C 124.0625 107.144531 120.277344 108.019531 116.453125 108.902344 C 119.777344 108.144531 123.097656 107.390625 126.523438 106.609375 C 126.757812 106.546875 126.992188 106.480469 127.234375 106.417969 Z M 131.253906 105.425781 C 124.78125 106.898438 118.320312 108.386719 124.84375 106.917969 C 126.3125 106.585938 127.777344 106.253906 129.289062 105.914062 C 129.9375 105.75 130.585938 105.589844 131.253906 105.425781 Z M 134.242188 103.5 C 134.238281 103.5625 134.136719 103.992188 133.933594 104.808594 C 133.417969 104.929688 132.746094 105.089844 131.910156 105.28125 C 132.515625 105.140625 133.207031 104.984375 133.945312 104.816406 C 135.128906 100.292969 136.792969 93.925781 136.664062 94.246094 C 135.910156 97.117188 135.085938 100.269531 134.242188 103.5 Z M 139.199219 99.617188 C 138.417969 102.660156 137.738281 105.3125 139.003906 100.511719 C 139.484375 98.683594 139.964844 96.851562 140.460938 94.96875 C 140.042969 96.503906 139.628906 98.039062 139.199219 99.617188 Z M 8.90625 121.289062 C 8.582031 122.511719 7.386719 127.128906 6.664062 129.828125 C 6.363281 130.324219 9.257812 119.660156 8.90625 121.289062 Z M 13.492188 103.921875 C 13.179688 105.101562 11.984375 109.714844 11.253906 112.445312 C 10.964844 112.894531 13.847656 102.277344 13.492188 103.921875 Z M 149.921875 9.425781 C 149.933594 9.421875 149.949219 9.421875 149.960938 9.417969 C 149.949219 9.421875 149.933594 9.421875 149.921875 9.425781 Z M 149.921875 9.425781 "/>
</g>
</g>
<mask id="mask5">
  <g filter="url(#alpha)">
<rect x="0" y="0" width="718.02064" height="270.2718" style="fill:rgb(0%,0%,0%);fill-opacity:0.6765;stroke:none;"/>
  </g>
</mask>
<clipPath id="clip13">
  <path d="M 0.507812 0.945312 L 65.507812 0.945312 L 65.507812 115.945312 L 0.507812 115.945312 Z M 0.507812 0.945312 "/>
</clipPath>
<clipPath id="clip12">
  <rect x="0" y="0" width="66" height="116"/>
</clipPath>
<g id="surface20" clip-path="url(#clip12)">
<path style=" stroke:none;fill-rule:nonzero;fill:rgb(67.451477%,82.745361%,45.097351%);fill-opacity:1;" d="M 3.414062 17.03125 L 63.890625 3.175781 L 2.9375 113.5625 Z M 3.414062 17.03125 "/>
<g clip-path="url(#clip13)" clip-rule="nonzero">
<path style="fill:none;stroke-width:1;stroke-linecap:butt;stroke-linejoin:miter;stroke:rgb(40.391541%,49.01886%,0%);stroke-opacity:1;stroke-miterlimit:4;" d="M 0.614687 17.885171 L 78.609652 0.00113748 L 0.0000773804 142.483487 Z M 0.614687 17.885171 " transform="matrix(0.775391,0,0,0.77474,2.93744,3.1749)"/>
</g>
</g>
<mask id="mask6">
  <g filter="url(#alpha)">
<rect x="0" y="0" width="718.02064" height="270.2718" style="fill:rgb(0%,0%,0%);fill-opacity:0.8215;stroke:none;"/>
  </g>
</mask>
<clipPath id="clip15">
  <path d="M 0.507812 0.945312 L 65.507812 0.945312 L 65.507812 115.945312 L 0.507812 115.945312 Z M 0.507812 0.945312 "/>
</clipPath>
<clipPath id="clip14">
  <rect x="0" y="0" width="66" height="116"/>
</clipPath>
<g id="surface23" clip-path="url(#clip14)">
<path style=" stroke:none;fill-rule:nonzero;fill:rgb(82.745361%,51.765442%,45.097351%);fill-opacity:1;" d="M 3.359375 17.246094 L 63.839844 3.390625 L 2.882812 113.777344 Z M 3.359375 17.246094 "/>
<g clip-path="url(#clip15)" clip-rule="nonzero">
<path style="fill:none;stroke-width:1;stroke-linecap:butt;stroke-linejoin:miter;stroke:rgb(69.412231%,24.313354%,14.901733%);stroke-opacity:1;stroke-miterlimit:4;" d="M 0.613542 17.885227 L 78.613545 0.00119395 L -0.0010672 142.483544 Z M 0.613542 17.885227 " transform="matrix(0.775391,0,0,0.77474,2.88364,3.3897)"/>
</g>
</g>
<mask id="mask7">
  <g filter="url(#alpha)">
<rect x="0" y="0" width="718.02064" height="270.2718" style="fill:rgb(0%,0%,0%);fill-opacity:0.8569;stroke:none;"/>
  </g>
</mask>
<clipPath id="clip17">
  <path d="M 2.507812 3.945312 L 206.507812 3.945312 L 206.507812 154.945312 L 2.507812 154.945312 Z M 2.507812 3.945312 "/>
</clipPath>
<clipPath id="clip16">
  <rect x="0" y="0" width="207" height="155"/>
</clipPath>
<g id="surface26" clip-path="url(#clip16)">
<g clip-path="url(#clip17)" clip-rule="nonzero">
<path style="fill:none;stroke-width:4;stroke-linecap:butt;stroke-linejoin:miter;stroke:rgb(19.215393%,39.99939%,57.647705%);stroke-opacity:1;stroke-miterlimit:4;" d="M 77.695379 39.086423 L 248.456089 0.000709916 L 170.758354 142.720035 L -0.00235688 181.800706 Z M 77.695379 39.086423 " transform="matrix(0.775391,0,0,0.77474,7.19714,7.5932)"/>
</g>
</g>
<mask id="mask8">
  <g filter="url(#alpha)">
<rect x="0" y="0" width="718.02064" height="270.2718" style="fill:rgb(0%,0%,0%);fill-opacity:0.8569;stroke:none;"/>
  </g>
</mask>
<clipPath id="clip19">
  <path d="M 1 1 L 138.507812 1 L 138.507812 134.945312 L 1 134.945312 Z M 1 1 "/>
</clipPath>
<clipPath id="clip18">
  <rect x="0" y="0" width="139" height="135"/>
</clipPath>
<g id="surface29" clip-path="url(#clip18)">
<g clip-path="url(#clip19)" clip-rule="nonzero">
<path style=" stroke:none;fill-rule:nonzero;fill:rgb(19.215393%,39.99939%,57.647705%);fill-opacity:1;" d="M 2.261719 75.496094 C 2.238281 74.539062 2.253906 70.367188 2.316406 70.292969 C 2.296875 71.863281 2.316406 75.171875 2.261719 75.496094 Z M 2.175781 83.914062 C 2.144531 82.417969 2.195312 79.066406 2.238281 77.988281 C 2.214844 79.769531 2.230469 83.332031 2.175781 83.914062 Z M 2.441406 70.953125 C 2.472656 68.714844 2.457031 64.601562 2.515625 63.570312 C 2.484375 65.808594 2.5 69.917969 2.441406 70.953125 Z M 56.296875 121.757812 C 55.332031 122.011719 51.183594 122.972656 51.203125 122.902344 C 52.703125 122.570312 56.015625 121.769531 56.296875 121.757812 Z M 33.25 126.878906 C 31.722656 127.273438 28.441406 127.992188 27.421875 128.191406 C 29.164062 127.804688 32.734375 126.945312 33.25 126.878906 Z M 19.835938 129.976562 C 16.707031 130.683594 13.367188 131.449219 14.042969 131.230469 C 15.003906 131.0625 19.554688 129.964844 19.835938 129.976562 Z M 4.953125 72.402344 C 4.90625 75.675781 4.9375 78.011719 4.921875 80.214844 C 4.835938 91.269531 4.832031 74.617188 4.953125 72.402344 Z M 1.324219 129.035156 C 1.3125 131.164062 1.289062 132.902344 1.253906 134.058594 C 1.335938 134.042969 1.417969 134.027344 1.492188 134.011719 C 1.414062 134.03125 1.332031 134.050781 1.246094 134.070312 C 1.261719 131.964844 1.261719 129.234375 1.324219 129.035156 Z M 1.519531 109.203125 C 1.484375 108.726562 1.582031 96.980469 1.671875 90.445312 C 1.644531 95.960938 1.550781 109.679688 1.519531 109.203125 Z M 4.800781 98.757812 C 4.707031 106.097656 4.632812 117.753906 4.574219 123.085938 C 4.511719 128.382812 4.578125 113.765625 4.679688 100.28125 C 4.78125 86.761719 4.824219 97.804688 4.886719 92.285156 C 4.949219 86.808594 4.910156 97.492188 4.839844 102.976562 C 4.769531 108.425781 4.84375 99.371094 4.800781 98.757812 Z M 5.027344 98.246094 C 5.042969 95.605469 5.070312 93.320312 5.113281 91.792969 C 5.113281 94.496094 5.117188 97.082031 5.027344 98.246094 Z M 5.183594 34.355469 C 5.953125 33.542969 12.238281 31.582031 19.214844 29.609375 C 20.957031 29.128906 22.707031 28.644531 24.507812 28.144531 C 37.425781 24.910156 50.460938 21.785156 63.507812 18.730469 C 66.09375 18.128906 68.675781 17.523438 71.339844 16.90625 C 79.347656 15.027344 87.390625 13.167969 95.472656 11.308594 C 98.152344 10.691406 100.832031 10.078125 103.597656 9.441406 C 113.351562 7.128906 122.5625 5.109375 132.09375 2.917969 C 134.042969 2.472656 136.003906 2.015625 137.992188 1.550781 C 137.988281 4.535156 138 7.542969 138.027344 10.578125 C 138.058594 13.144531 137.96875 24.355469 137.886719 28.359375 C 138.046875 24.425781 137.871094 42.863281 137.871094 42.035156 C 137.8125 44.101562 137.765625 46.246094 137.742188 48.382812 C 137.710938 50.519531 137.707031 47.828125 137.710938 45.140625 C 137.667969 47.539062 137.640625 49.929688 137.621094 52.363281 C 137.609375 54.914062 137.597656 57.464844 137.582031 60.09375 C 137.582031 68.65625 137.476562 77.859375 137.363281 85.785156 C 137.335938 90.308594 137.292969 96.480469 137.246094 103.3125 C 112.214844 109.027344 77.953125 116.824219 86.15625 114.925781 C 97.851562 112.210938 91.816406 113.539062 88.679688 114.25 C 86.84375 114.664062 84.378906 115.222656 81.621094 115.847656 C 81.710938 115.851562 81.921875 115.824219 82.34375 115.742188 C 77.121094 116.953125 69.765625 118.710938 62.574219 120.285156 C 63.914062 119.96875 65.628906 119.574219 66.253906 119.398438 C 62.621094 120.234375 65.507812 119.5 63.132812 120.023438 C 56.5 121.523438 53.335938 122.226562 61.007812 120.480469 C 53.890625 122.042969 49.378906 122.976562 42.382812 124.484375 C 39.71875 125.105469 41.175781 124.769531 41.953125 124.625 C 37.277344 125.730469 26.597656 128.15625 25.578125 128.425781 C 24.554688 128.699219 54.53125 121.816406 49.191406 123.085938 C 47.019531 123.601562 42.527344 124.617188 40.808594 125.03125 C 44.597656 124.175781 49.265625 123.105469 51.675781 122.582031 C 49.042969 123.195312 45.335938 124.042969 43.285156 124.53125 C 45.828125 123.949219 47.578125 123.558594 48.320312 123.414062 C 44.605469 124.265625 41.804688 124.917969 37.386719 125.925781 C 35.433594 126.347656 39.078125 125.480469 34.910156 126.433594 C 34.175781 126.570312 37.667969 125.792969 37.429688 125.816406 C 34.066406 126.566406 27.355469 128.105469 25.699219 128.46875 C 24.089844 128.8125 29.78125 127.535156 29.917969 127.480469 C 19.457031 129.855469 7.84375 132.5 1.316406 133.980469 C 1.332031 132.34375 1.34375 131.019531 1.355469 130.097656 C 1.398438 125.363281 1.371094 129.78125 1.371094 131.757812 C 1.433594 126.25 1.460938 122.132812 1.511719 115.625 C 1.546875 111.453125 1.546875 113.101562 1.550781 114.65625 C 1.566406 113.546875 1.578125 112.5625 1.585938 111.921875 C 1.597656 111.449219 1.609375 110.253906 1.628906 109.4375 C 1.625 111.972656 1.578125 116.734375 1.585938 118.792969 C 1.65625 114.929688 1.671875 105.898438 1.746094 102.546875 C 1.742188 107.769531 1.699219 113.414062 1.679688 119.28125 C 1.785156 107.773438 1.726562 96.109375 1.902344 86.785156 C 1.902344 88.429688 1.9375 89.121094 1.949219 90.460938 C 1.9375 86.972656 1.925781 81.789062 2.027344 78.613281 C 2.046875 76.871094 2.097656 73.429688 2.128906 70 C 2.109375 75.996094 2.09375 80.007812 2.042969 84.207031 C 2.054688 84.113281 2.070312 83.726562 2.085938 83.003906 C 2.117188 92.320312 1.90625 97.820312 1.832031 104.535156 C 1.832031 105.046875 1.832031 105.5625 1.832031 106.089844 C 1.878906 108.191406 1.910156 100.597656 1.957031 99.800781 C 1.910156 109.675781 1.796875 120.5 1.828125 125.292969 C 1.929688 113.523438 1.96875 103.195312 2.085938 94.316406 C 2.140625 96.542969 2.035156 105.445312 2.046875 109.628906 C 2.238281 90.386719 2.253906 88.441406 2.273438 86.875 C 2.269531 88.347656 2.265625 89.816406 2.261719 91.332031 C 2.277344 90.945312 2.292969 90.5625 2.308594 90.167969 C 2.367188 81.738281 2.429688 71.839844 2.449219 72.335938 C 2.460938 72.707031 2.421875 80.40625 2.367188 88.53125 C 2.402344 87.664062 2.4375 86.800781 2.46875 85.910156 C 2.542969 76.398438 2.730469 65.585938 2.746094 56.109375 C 2.796875 57.648438 2.792969 56.851562 2.84375 54.871094 C 2.859375 57.839844 2.832031 62.074219 2.839844 65.25 C 2.867188 64.15625 2.871094 62.1875 2.902344 61.550781 C 2.910156 63.136719 2.882812 65.652344 2.917969 66.433594 C 2.96875 61.945312 3.015625 57.125 3.058594 52.390625 C 3.125 51.414062 3.058594 54.4375 3.097656 54.175781 C 3.148438 49.699219 3.164062 43.429688 3.242188 40.160156 C 3.261719 43.917969 3.171875 51.28125 3.191406 53.570312 C 3.21875 52.078125 3.246094 50.585938 3.273438 49.046875 C 3.300781 46 3.320312 44.535156 3.324219 47.957031 C 3.328125 49.789062 3.328125 49.746094 3.339844 49.285156 C 3.390625 47.195312 3.433594 39.941406 3.515625 40.140625 C 3.503906 41.976562 3.453125 49.222656 3.5 51.046875 C 3.570312 49.660156 3.558594 45.960938 3.617188 45.582031 C 3.539062 53.613281 3.570312 53.3125 3.515625 55.320312 C 3.511719 54.449219 3.542969 52.15625 3.503906 52.25 C 3.472656 57.191406 3.441406 62.136719 3.410156 67.230469 C 3.457031 66.753906 3.511719 66.898438 3.539062 67.34375 C 3.554688 65.179688 3.585938 62.933594 3.601562 58.90625 C 3.683594 59.957031 3.644531 63.65625 3.597656 67.070312 C 3.609375 67.035156 3.621094 67.003906 3.636719 66.96875 C 3.667969 61.453125 3.753906 53.023438 3.835938 47.371094 C 3.835938 49.941406 3.773438 59.429688 3.714844 65.902344 C 3.734375 65.691406 3.75 65.480469 3.769531 65.261719 C 3.695312 73.390625 3.707031 82.875 3.613281 92.011719 C 3.746094 87.550781 3.695312 82.472656 3.757812 76.785156 C 3.789062 74.171875 3.835938 71.753906 3.886719 69.21875 C 3.914062 62.027344 4.039062 40.644531 4.097656 38.203125 C 4.15625 35.515625 4.011719 57.167969 4.035156 57.285156 C 4.058594 57.402344 4.152344 47.320312 4.117188 52.070312 C 4.09375 54.550781 4.046875 59.960938 4.015625 63.890625 C 4.0625 64.007812 4.113281 64.125 4.160156 64.246094 C 4.1875 60.820312 4.238281 56.773438 4.144531 56.636719 C 4.164062 54.941406 4.148438 51.402344 4.203125 50.855469 C 4.203125 51.433594 4.191406 52.300781 4.214844 52.296875 C 4.226562 51.46875 4.222656 50.277344 4.25 50.148438 C 4.234375 54.265625 4.222656 59.945312 4.191406 64.4375 C 4.210938 64.8125 4.230469 65.183594 4.253906 65.566406 C 4.261719 65.480469 4.304688 61.972656 4.335938 58.964844 C 4.375 55.792969 4.355469 62.367188 4.3125 67.589844 C 4.332031 68.40625 4.351562 69.226562 4.371094 70.066406 C 4.382812 68.257812 4.394531 66.164062 4.417969 63.695312 C 4.464844 60.808594 4.515625 60.875 4.566406 57.992188 C 4.550781 63.277344 4.511719 69.675781 4.460938 74.808594 C 4.496094 76.652344 4.527344 78.492188 4.5625 80.386719 C 4.613281 76.117188 4.675781 72.167969 4.726562 69.820312 C 4.730469 67.941406 4.738281 65.980469 4.777344 65.273438 C 4.785156 67.023438 4.824219 62.441406 4.878906 63.113281 C 4.808594 65.628906 4.796875 70.601562 4.707031 72.4375 C 4.683594 76.367188 4.65625 80.65625 4.628906 84.464844 C 4.632812 84.945312 4.636719 85.425781 4.644531 85.917969 C 4.671875 82.6875 4.703125 79.613281 4.753906 76.164062 C 4.828125 77.667969 4.765625 87.136719 4.675781 94.03125 C 4.648438 105.953125 4.347656 118.273438 4.175781 130.421875 C 6.117188 129.992188 8.058594 129.558594 10.003906 129.121094 C 10.5625 128.992188 11.367188 128.800781 12.253906 128.585938 C 13.261719 128.332031 14.269531 128.078125 15.304688 127.816406 C 12.042969 128.558594 9.148438 129.207031 6.773438 129.730469 C 11.292969 128.667969 8.617188 129.265625 4.324219 130.238281 C 4.371094 125.15625 4.429688 117.90625 4.46875 117.042969 C 4.46875 120.742188 4.453125 125.203125 4.429688 130.105469 C 20.21875 126.464844 40.574219 121.84375 54.394531 118.628906 C 50.074219 119.609375 48.6875 119.917969 53.332031 118.835938 C 54.589844 118.539062 55.847656 118.246094 57.144531 117.945312 C 38.894531 122.058594 19.816406 126.558594 5.375 129.730469 C 14.019531 127.742188 27.101562 124.796875 30.757812 123.878906 C 28.226562 124.457031 24.535156 125.3125 24.042969 125.394531 C 28.511719 124.3125 43.308594 121.007812 47.683594 119.941406 C 34.628906 122.898438 18.691406 126.554688 4.730469 129.730469 C 4.800781 120.691406 4.875 112.433594 4.964844 106.179688 C 4.902344 113.4375 4.84375 121.441406 4.789062 129.65625 C 23.617188 125.351562 43.601562 120.765625 57.816406 117.582031 C 54.296875 118.398438 54.25 118.429688 56.101562 118.039062 C 62.394531 116.617188 68.6875 115.195312 75.175781 113.726562 C 76.480469 113.414062 76.046875 113.503906 72.917969 114.199219 C 70.347656 114.769531 68.84375 115.117188 68.011719 115.273438 C 69.753906 114.859375 89.796875 110.28125 73.863281 113.90625 C 57.980469 117.515625 30.507812 123.757812 46.582031 120.0625 C 62.648438 116.363281 69.003906 114.863281 60.253906 116.84375 C 51.46875 118.828125 23.789062 125.078125 33.082031 122.941406 C 42.332031 120.816406 61.851562 116.300781 72.855469 113.800781 C 83.910156 111.289062 65.371094 115.734375 81.667969 112.011719 C 97.964844 108.292969 84.375 111.324219 87.488281 110.613281 C 92.417969 109.488281 101.480469 107.414062 110.070312 105.445312 C 116.09375 104.058594 123.859375 102.285156 127.730469 101.363281 C 127.421875 101.398438 109.09375 105.617188 116.3125 103.929688 C 122.0625 102.613281 128.027344 101.25 133.199219 100.066406 C 133.269531 89.074219 133.332031 81.636719 133.351562 87.28125 C 133.417969 76.109375 133.476562 67.894531 133.539062 60.914062 C 133.523438 50.089844 133.621094 37.496094 133.609375 36.113281 C 133.597656 34.960938 133.78125 19.464844 133.828125 6.738281 C 128.710938 7.921875 124.003906 9.035156 120.769531 9.84375 C 119.941406 10.027344 100.070312 14.507812 98.402344 14.820312 C 79.390625 19.246094 82.027344 18.699219 63.363281 22.941406 C 47.753906 26.488281 42.980469 27.539062 40.347656 28.132812 C 23.886719 31.855469 24.007812 31.910156 15.925781 33.433594 C 13.476562 33.898438 9.714844 34.753906 8.40625 34.890625 C 5.777344 35.164062 4.484375 35.042969 5.183594 34.355469 Z M 3.285156 69.527344 C 3.28125 66.492188 3.335938 60.984375 3.328125 57.785156 C 3.242188 61.476562 3.230469 66.015625 3.226562 70.632812 C 3.246094 70.269531 3.265625 69.902344 3.285156 69.527344 Z M 4.113281 92.296875 C 4.132812 90.277344 4.09375 87.886719 4.121094 85.613281 C 4.140625 83.46875 4.144531 81.253906 4.195312 77.984375 C 4.230469 78.253906 4.226562 83.578125 4.191406 87.738281 C 4.207031 87.726562 4.226562 87.714844 4.246094 87.699219 C 4.285156 85.667969 4.320312 83.273438 4.335938 80.441406 C 4.339844 79.480469 4.34375 78.519531 4.34375 77.53125 C 4.3125 77.46875 4.277344 79.003906 4.28125 79.574219 C 4.238281 78.863281 4.230469 76.367188 4.234375 73.125 C 4.226562 72.734375 4.21875 72.34375 4.214844 71.945312 C 4.167969 71.515625 4.128906 74 4.152344 71.234375 C 4.085938 73.199219 4.097656 78.203125 4.0625 81.34375 C 4.199219 77.777344 4.039062 91.039062 4.066406 94.257812 C 4.082031 93.609375 4.097656 92.960938 4.113281 92.296875 Z M 1.6875 119.988281 C 1.675781 121.820312 1.667969 123.648438 1.65625 125.53125 C 1.679688 122.816406 1.699219 120.734375 1.714844 118.824219 C 1.707031 119.207031 1.695312 119.59375 1.6875 119.988281 Z M 137.078125 102.351562 C 137.070312 102.617188 137.066406 102.886719 137.0625 103.164062 C 125.738281 105.621094 103.917969 110.742188 102.414062 111.003906 C 100.078125 111.546875 97.742188 112.089844 95.335938 112.648438 C 110.203125 109.261719 126.117188 105.644531 137.070312 103.171875 C 137.070312 102.894531 137.074219 102.621094 137.078125 102.351562 Z M 97.683594 108.53125 C 96.816406 108.734375 97.175781 108.664062 99.277344 108.191406 C 110.464844 105.671875 117.113281 104.203125 110.058594 105.816406 C 104.035156 107.191406 90.921875 110.207031 94.773438 109.347656 C 99.894531 108.1875 105.019531 107.023438 110.300781 105.828125 C 114.332031 104.882812 118.214844 103.9375 122.15625 102.960938 C 113.523438 104.925781 105.25 106.8125 97.683594 108.53125 Z M 126.902344 101.78125 C 123.824219 102.488281 120.152344 103.335938 116.441406 104.191406 C 119.667969 103.457031 122.894531 102.726562 126.21875 101.96875 C 126.445312 101.90625 126.671875 101.84375 126.902344 101.78125 Z M 130.785156 100.820312 C 124.503906 102.25 118.238281 103.695312 124.570312 102.269531 C 125.996094 101.945312 127.421875 101.625 128.886719 101.292969 C 129.515625 101.136719 130.140625 100.980469 130.785156 100.820312 Z M 133.363281 98.917969 C 133.378906 98.976562 133.386719 99.40625 133.390625 100.222656 C 132.890625 100.339844 132.234375 100.492188 131.425781 100.679688 C 132.011719 100.546875 132.683594 100.394531 133.402344 100.230469 C 133.4375 95.703125 133.488281 89.332031 133.445312 89.65625 C 133.417969 92.527344 133.390625 95.679688 133.363281 98.917969 Z M 137.210938 94.882812 C 137.203125 97.921875 137.191406 100.570312 137.242188 95.773438 C 137.261719 93.945312 137.277344 92.117188 137.296875 90.234375 C 137.269531 91.769531 137.242188 93.304688 137.210938 94.882812 Z M 4.714844 120.980469 C 4.703125 122.210938 4.675781 126.847656 4.636719 129.5625 C 4.464844 130.054688 4.65625 119.347656 4.714844 120.980469 Z M 4.898438 103.53125 C 4.886719 104.714844 4.859375 109.351562 4.820312 112.097656 C 4.652344 112.554688 4.839844 101.882812 4.898438 103.53125 Z M 120.730469 9.855469 C 120.742188 9.851562 120.753906 9.847656 120.769531 9.847656 C 120.753906 9.847656 120.742188 9.851562 120.730469 9.855469 Z M 120.730469 9.855469 "/>
</g>
</g>
</defs>
<g id="surface1">
<g clip-path="url(#clip1)" clip-rule="nonzero">
<rect x="0" y="0" width="718.02064" height="270.2718" style="fill:rgb(100%,100%,100%);fill-opacity:1;stroke:none;"/>
</g>
<path style="fill:none;stroke-width:2;stroke-linecap:butt;stroke-linejoin:round;stroke:rgb(57.255554%,57.255554%,57.255554%);stroke-opacity:1;stroke-dasharray:2,4;stroke-miterlimit:4;" d="M 0.000384903 0.00224378 L 887.776969 -0.00186254 " transform="matrix(0.755078,-0.17617,0.176318,0.754444,44.97197,161.0765)"/>
<path style="fill:none;stroke-width:2;stroke-linecap:butt;stroke-linejoin:round;stroke:rgb(57.255554%,57.255554%,57.255554%);stroke-opacity:1;stroke-dasharray:2,4;stroke-miterlimit:4;" d="M 0.00164543 -0.00216203 L 819.451612 0.00198227 " transform="matrix(0.755536,-0.174197,0.174343,0.754902,4.47179,267.1152)"/>
<use xlink:href="#surface5" transform="matrix(1,0,0,1,236,66)" mask="url(#mask0)"/>
<use xlink:href="#surface8" transform="matrix(1,0,0,1,464,29)" mask="url(#mask1)"/>
<use xlink:href="#surface11" transform="matrix(1,0,0,1,236,99)" mask="url(#mask2)"/>
<use xlink:href="#surface14" transform="matrix(1,0,0,1,370,68)" mask="url(#mask3)"/>
<use xlink:href="#surface17" transform="matrix(1,0,0,1,44,119)" mask="url(#mask4)"/>
<use xlink:href="#surface20" transform="matrix(1,0,0,1,597,15)" mask="url(#mask5)"/>
<use xlink:href="#surface23" transform="matrix(1,0,0,1,464,45)" mask="url(#mask6)"/>
<use xlink:href="#surface26" transform="matrix(1,0,0,1,233,63)" mask="url(#mask7)"/>
<use xlink:href="#surface29" transform="matrix(1,0,0,1,464,28)" mask="url(#mask8)"/>
</g>
</svg>
