<?xml version="1.0" encoding="utf-8" standalone="no"?>
<!DOCTYPE svg PUBLIC "-//W3C//DTD SVG 1.1//EN"
  "http://www.w3.org/Graphics/SVG/1.1/DTD/svg11.dtd">
<!-- Created with matplotlib (https://matplotlib.org/) -->
<svg height="288pt" version="1.1" viewBox="0 0 576 288" width="576pt" xmlns="http://www.w3.org/2000/svg" xmlns:xlink="http://www.w3.org/1999/xlink">
 <metadata>
  <rdf:RDF xmlns:cc="http://creativecommons.org/ns#" xmlns:dc="http://purl.org/dc/elements/1.1/" xmlns:rdf="http://www.w3.org/1999/02/22-rdf-syntax-ns#">
   <cc:Work>
    <dc:type rdf:resource="http://purl.org/dc/dcmitype/StillImage"/>
    <dc:date>2020-09-03T22:48:51.741579</dc:date>
    <dc:format>image/svg+xml</dc:format>
    <dc:creator>
     <cc:Agent>
      <dc:title>Matplotlib v3.3.0, https://matplotlib.org/</dc:title>
     </cc:Agent>
    </dc:creator>
   </cc:Work>
  </rdf:RDF>
 </metadata>
 <defs>
  <style type="text/css">*{stroke-linecap:butt;stroke-linejoin:round;}</style>
 </defs>
 <g id="figure_1">
  <g id="patch_1">
   <path d="M 0 288 
L 576 288 
L 576 0 
L 0 0 
z
" style="fill:none;"/>
  </g>
  <g id="axes_1">
   <g id="patch_2">
    <path d="M 72 217.536706 
L 518.4 217.536706 
L 518.4 69.023294 
L 72 69.023294 
z
" style="fill:#ffffff;"/>
   </g>
   <g id="PathCollection_1">
    <defs>
     <path d="M 0 4.301163 
C 1.140682 4.301163 2.234798 3.847965 3.041381 3.041381 
C 3.847965 2.234798 4.301163 1.140682 4.301163 0 
C 4.301163 -1.140682 3.847965 -2.234798 3.041381 -3.041381 
C 2.234798 -3.847965 1.140682 -4.301163 0 -4.301163 
C -1.140682 -4.301163 -2.234798 -3.847965 -3.041381 -3.041381 
C -3.847965 -2.234798 -4.301163 -1.140682 -4.301163 0 
C -4.301163 1.140682 -3.847965 2.234798 -3.041381 3.041381 
C -2.234798 3.847965 -1.140682 4.301163 0 4.301163 
z
" id="m6acaa6351f"/>
    </defs>
    <g clip-path="url(#pe6367fd166)">
     <use style="fill:#677d00;fill-opacity:0.4;" x="144.689446" xlink:href="#m6acaa6351f" y="184.607469"/>
     <use style="fill:#677d00;fill-opacity:0.4;" x="144.233532" xlink:href="#m6acaa6351f" y="193.458862"/>
     <use style="fill:#677d00;fill-opacity:0.4;" x="142.16239" xlink:href="#m6acaa6351f" y="193.543085"/>
     <use style="fill:#677d00;fill-opacity:0.4;" x="125.282184" xlink:href="#m6acaa6351f" y="197.139839"/>
     <use style="fill:#677d00;fill-opacity:0.4;" x="129.281275" xlink:href="#m6acaa6351f" y="198.442948"/>
     <use style="fill:#677d00;fill-opacity:0.4;" x="201.803872" xlink:href="#m6acaa6351f" y="174.268749"/>
     <use style="fill:#677d00;fill-opacity:0.4;" x="169.566484" xlink:href="#m6acaa6351f" y="158.608249"/>
     <use style="fill:#677d00;fill-opacity:0.4;" x="146.557527" xlink:href="#m6acaa6351f" y="192.475729"/>
     <use style="fill:#677d00;fill-opacity:0.4;" x="151.34696" xlink:href="#m6acaa6351f" y="179.456599"/>
     <use style="fill:#677d00;fill-opacity:0.4;" x="262.731456" xlink:href="#m6acaa6351f" y="153.959554"/>
     <use style="fill:#677d00;fill-opacity:0.4;" x="130.940734" xlink:href="#m6acaa6351f" y="185.560067"/>
     <use style="fill:#677d00;fill-opacity:0.4;" x="165.7941" xlink:href="#m6acaa6351f" y="168.521912"/>
     <use style="fill:#677d00;fill-opacity:0.4;" x="219.342934" xlink:href="#m6acaa6351f" y="168.422395"/>
     <use style="fill:#677d00;fill-opacity:0.4;" x="155.80999" xlink:href="#m6acaa6351f" y="179.326766"/>
     <use style="fill:#677d00;fill-opacity:0.4;" x="132.429238" xlink:href="#m6acaa6351f" y="197.393627"/>
     <use style="fill:#677d00;fill-opacity:0.4;" x="135.690072" xlink:href="#m6acaa6351f" y="187.600956"/>
     <use style="fill:#677d00;fill-opacity:0.4;" x="128.936394" xlink:href="#m6acaa6351f" y="187.568026"/>
     <use style="fill:#677d00;fill-opacity:0.4;" x="123.682971" xlink:href="#m6acaa6351f" y="200.309049"/>
     <use style="fill:#677d00;fill-opacity:0.4;" x="125.531926" xlink:href="#m6acaa6351f" y="199.692731"/>
     <use style="fill:#677d00;fill-opacity:0.4;" x="209.17394" xlink:href="#m6acaa6351f" y="161.109074"/>
     <use style="fill:#677d00;fill-opacity:0.4;" x="145.93269" xlink:href="#m6acaa6351f" y="180.921101"/>
     <use style="fill:#677d00;fill-opacity:0.4;" x="130.19534" xlink:href="#m6acaa6351f" y="189.180154"/>
     <use style="fill:#677d00;fill-opacity:0.4;" x="155.209159" xlink:href="#m6acaa6351f" y="176.200434"/>
     <use style="fill:#677d00;fill-opacity:0.4;" x="135.446373" xlink:href="#m6acaa6351f" y="188.595472"/>
     <use style="fill:#677d00;fill-opacity:0.4;" x="146.439276" xlink:href="#m6acaa6351f" y="192.424813"/>
     <use style="fill:#677d00;fill-opacity:0.4;" x="257.756603" xlink:href="#m6acaa6351f" y="155.617839"/>
     <use style="fill:#677d00;fill-opacity:0.4;" x="133.425234" xlink:href="#m6acaa6351f" y="197.061628"/>
     <use style="fill:#677d00;fill-opacity:0.4;" x="222.524907" xlink:href="#m6acaa6351f" y="136.941809"/>
     <use style="fill:#677d00;fill-opacity:0.4;" x="128.131273" xlink:href="#m6acaa6351f" y="198.360031"/>
     <use style="fill:#677d00;fill-opacity:0.4;" x="290.91503" xlink:href="#m6acaa6351f" y="144.565029"/>
     <use style="fill:#677d00;fill-opacity:0.4;" x="151.276545" xlink:href="#m6acaa6351f" y="191.111191"/>
     <use style="fill:#677d00;fill-opacity:0.4;" x="220.187845" xlink:href="#m6acaa6351f" y="167.694658"/>
     <use style="fill:#677d00;fill-opacity:0.4;" x="141.416367" xlink:href="#m6acaa6351f" y="194.397917"/>
     <use style="fill:#677d00;fill-opacity:0.4;" x="129.6605" xlink:href="#m6acaa6351f" y="189.756926"/>
     <use style="fill:#677d00;fill-opacity:0.4;" x="124.219289" xlink:href="#m6acaa6351f" y="200.130276"/>
     <use style="fill:#677d00;fill-opacity:0.4;" x="133.964273" xlink:href="#m6acaa6351f" y="196.881948"/>
     <use style="fill:#677d00;fill-opacity:0.4;" x="131.261848" xlink:href="#m6acaa6351f" y="197.782757"/>
     <use style="fill:#677d00;fill-opacity:0.4;" x="153.90945" xlink:href="#m6acaa6351f" y="187.864871"/>
     <use style="fill:#677d00;fill-opacity:0.4;" x="170.804054" xlink:href="#m6acaa6351f" y="184.602021"/>
     <use style="fill:#677d00;fill-opacity:0.4;" x="126.070591" xlink:href="#m6acaa6351f" y="182.250236"/>
     <use style="fill:#677d00;fill-opacity:0.4;" x="145.829554" xlink:href="#m6acaa6351f" y="181.639395"/>
     <use style="fill:#677d00;fill-opacity:0.4;" x="165.917588" xlink:href="#m6acaa6351f" y="176.256609"/>
     <use style="fill:#677d00;fill-opacity:0.4;" x="134.599376" xlink:href="#m6acaa6351f" y="196.670248"/>
     <use style="fill:#677d00;fill-opacity:0.4;" x="204.076061" xlink:href="#m6acaa6351f" y="173.504206"/>
     <use style="fill:#677d00;fill-opacity:0.4;" x="140.199536" xlink:href="#m6acaa6351f" y="194.803527"/>
     <use style="fill:#677d00;fill-opacity:0.4;" x="236.061906" xlink:href="#m6acaa6351f" y="162.839795"/>
     <use style="fill:#677d00;fill-opacity:0.4;" x="142.905191" xlink:href="#m6acaa6351f" y="193.901642"/>
     <use style="fill:#677d00;fill-opacity:0.4;" x="162.298351" xlink:href="#m6acaa6351f" y="187.437256"/>
     <use style="fill:#677d00;fill-opacity:0.4;" x="190.655539" xlink:href="#m6acaa6351f" y="167.295486"/>
     <use style="fill:#677d00;fill-opacity:0.4;" x="161.957098" xlink:href="#m6acaa6351f" y="185.537657"/>
     <use style="fill:#677d00;fill-opacity:0.4;" x="134.983018" xlink:href="#m6acaa6351f" y="189.143189"/>
     <use style="fill:#677d00;fill-opacity:0.4;" x="210.573464" xlink:href="#m6acaa6351f" y="151.929708"/>
     <use style="fill:#677d00;fill-opacity:0.4;" x="410.649227" xlink:href="#m6acaa6351f" y="95.90775"/>
     <use style="fill:#677d00;fill-opacity:0.4;" x="126.758182" xlink:href="#m6acaa6351f" y="199.283979"/>
     <use style="fill:#677d00;fill-opacity:0.4;" x="127.85698" xlink:href="#m6acaa6351f" y="180.965101"/>
     <use style="fill:#677d00;fill-opacity:0.4;" x="161.681928" xlink:href="#m6acaa6351f" y="187.64273"/>
     <use style="fill:#677d00;fill-opacity:0.4;" x="132.467428" xlink:href="#m6acaa6351f" y="186.393025"/>
     <use style="fill:#677d00;fill-opacity:0.4;" x="145.232969" xlink:href="#m6acaa6351f" y="193.125716"/>
     <use style="fill:#677d00;fill-opacity:0.4;" x="124.504034" xlink:href="#m6acaa6351f" y="190.554147"/>
     <use style="fill:#677d00;fill-opacity:0.4;" x="150.192029" xlink:href="#m6acaa6351f" y="191.472696"/>
     <use style="fill:#677d00;fill-opacity:0.4;" x="130.494885" xlink:href="#m6acaa6351f" y="188.827701"/>
     <use style="fill:#677d00;fill-opacity:0.4;" x="149.149141" xlink:href="#m6acaa6351f" y="191.820326"/>
     <use style="fill:#677d00;fill-opacity:0.4;" x="132.419322" xlink:href="#m6acaa6351f" y="197.071296"/>
     <use style="fill:#677d00;fill-opacity:0.4;" x="209.650604" xlink:href="#m6acaa6351f" y="160.246643"/>
     <use style="fill:#677d00;fill-opacity:0.4;" x="128.574304" xlink:href="#m6acaa6351f" y="195.130407"/>
     <use style="fill:#677d00;fill-opacity:0.4;" x="131.96065" xlink:href="#m6acaa6351f" y="196.8547"/>
     <use style="fill:#677d00;fill-opacity:0.4;" x="126.462881" xlink:href="#m6acaa6351f" y="199.382412"/>
     <use style="fill:#677d00;fill-opacity:0.4;" x="134.670375" xlink:href="#m6acaa6351f" y="196.646581"/>
     <use style="fill:#677d00;fill-opacity:0.4;" x="144.661635" xlink:href="#m6acaa6351f" y="193.043435"/>
     <use style="fill:#677d00;fill-opacity:0.4;" x="149.951162" xlink:href="#m6acaa6351f" y="191.552986"/>
     <use style="fill:#677d00;fill-opacity:0.4;" x="163.487128" xlink:href="#m6acaa6351f" y="174.531741"/>
     <use style="fill:#677d00;fill-opacity:0.4;" x="208.731923" xlink:href="#m6acaa6351f" y="171.892157"/>
     <use style="fill:#677d00;fill-opacity:0.4;" x="272.960321" xlink:href="#m6acaa6351f" y="140.19423"/>
     <use style="fill:#677d00;fill-opacity:0.4;" x="126.913119" xlink:href="#m6acaa6351f" y="199.232333"/>
     <use style="fill:#677d00;fill-opacity:0.4;" x="136.035342" xlink:href="#m6acaa6351f" y="186.818302"/>
     <use style="fill:#677d00;fill-opacity:0.4;" x="124.169694" xlink:href="#m6acaa6351f" y="200.146808"/>
     <use style="fill:#677d00;fill-opacity:0.4;" x="231.94655" xlink:href="#m6acaa6351f" y="164.22119"/>
     <use style="fill:#677d00;fill-opacity:0.4;" x="127.816937" xlink:href="#m6acaa6351f" y="198.931061"/>
     <use style="fill:#677d00;fill-opacity:0.4;" x="132.490471" xlink:href="#m6acaa6351f" y="197.373216"/>
     <use style="fill:#677d00;fill-opacity:0.4;" x="138.151822" xlink:href="#m6acaa6351f" y="176.684882"/>
     <use style="fill:#677d00;fill-opacity:0.4;" x="126.76176" xlink:href="#m6acaa6351f" y="191.947022"/>
     <use style="fill:#677d00;fill-opacity:0.4;" x="163.413554" xlink:href="#m6acaa6351f" y="181.244102"/>
     <use style="fill:#677d00;fill-opacity:0.4;" x="229.931425" xlink:href="#m6acaa6351f" y="164.892898"/>
     <use style="fill:#677d00;fill-opacity:0.4;" x="125.753217" xlink:href="#m6acaa6351f" y="199.618967"/>
     <use style="fill:#677d00;fill-opacity:0.4;" x="132.642779" xlink:href="#m6acaa6351f" y="197.322446"/>
     <use style="fill:#677d00;fill-opacity:0.4;" x="147.888288" xlink:href="#m6acaa6351f" y="191.913975"/>
     <use style="fill:#677d00;fill-opacity:0.4;" x="127.643537" xlink:href="#m6acaa6351f" y="177.037596"/>
     <use style="fill:#677d00;fill-opacity:0.4;" x="499.603951" xlink:href="#m6acaa6351f" y="75.274997"/>
     <use style="fill:#677d00;fill-opacity:0.4;" x="154.650449" xlink:href="#m6acaa6351f" y="189.986556"/>
     <use style="fill:#677d00;fill-opacity:0.4;" x="213.038298" xlink:href="#m6acaa6351f" y="170.456453"/>
     <use style="fill:#677d00;fill-opacity:0.4;" x="124.974841" xlink:href="#m6acaa6351f" y="190.446129"/>
     <use style="fill:#677d00;fill-opacity:0.4;" x="316.040895" xlink:href="#m6acaa6351f" y="136.189741"/>
     <use style="fill:#677d00;fill-opacity:0.4;" x="147.700505" xlink:href="#m6acaa6351f" y="192.303204"/>
     <use style="fill:#677d00;fill-opacity:0.4;" x="128.440338" xlink:href="#m6acaa6351f" y="198.72326"/>
     <use style="fill:#677d00;fill-opacity:0.4;" x="132.065542" xlink:href="#m6acaa6351f" y="174.112956"/>
     <use style="fill:#677d00;fill-opacity:0.4;" x="125.516168" xlink:href="#m6acaa6351f" y="190.612948"/>
     <use style="fill:#677d00;fill-opacity:0.4;" x="144.814707" xlink:href="#m6acaa6351f" y="193.265137"/>
     <use style="fill:#677d00;fill-opacity:0.4;" x="124.130875" xlink:href="#m6acaa6351f" y="200.159748"/>
     <use style="fill:#677d00;fill-opacity:0.4;" x="151.214358" xlink:href="#m6acaa6351f" y="185.123732"/>
     <use style="fill:#677d00;fill-opacity:0.4;" x="386.406959" xlink:href="#m6acaa6351f" y="112.734387"/>
    </g>
   </g>
   <g id="matplotlib.axis_1">
    <g id="xtick_1">
     <g id="line2d_1">
      <defs>
       <path d="M 0 0 
L 0 3.5 
" id="m0301ef331c" style="stroke:#000000;stroke-width:0.8;"/>
      </defs>
      <g>
       <use style="stroke:#000000;stroke-width:0.8;" x="72" xlink:href="#m0301ef331c" y="217.536706"/>
      </g>
     </g>
     <g id="text_1">
      <!-- 0 -->
      <g transform="translate(68.81875 232.135144)scale(0.1 -0.1)">
       <defs>
        <path d="M 31.78125 66.40625 
Q 24.171875 66.40625 20.328125 58.90625 
Q 16.5 51.421875 16.5 36.375 
Q 16.5 21.390625 20.328125 13.890625 
Q 24.171875 6.390625 31.78125 6.390625 
Q 39.453125 6.390625 43.28125 13.890625 
Q 47.125 21.390625 47.125 36.375 
Q 47.125 51.421875 43.28125 58.90625 
Q 39.453125 66.40625 31.78125 66.40625 
z
M 31.78125 74.21875 
Q 44.046875 74.21875 50.515625 64.515625 
Q 56.984375 54.828125 56.984375 36.375 
Q 56.984375 17.96875 50.515625 8.265625 
Q 44.046875 -1.421875 31.78125 -1.421875 
Q 19.53125 -1.421875 13.0625 8.265625 
Q 6.59375 17.96875 6.59375 36.375 
Q 6.59375 54.828125 13.0625 64.515625 
Q 19.53125 74.21875 31.78125 74.21875 
z
" id="DejaVuSans-48"/>
       </defs>
       <use xlink:href="#DejaVuSans-48"/>
      </g>
     </g>
    </g>
    <g id="xtick_2">
     <g id="line2d_2">
      <g>
       <use style="stroke:#000000;stroke-width:0.8;" x="129.243011" xlink:href="#m0301ef331c" y="217.536706"/>
      </g>
     </g>
     <g id="text_2">
      <!-- 2000 -->
      <g transform="translate(116.518011 232.135144)scale(0.1 -0.1)">
       <defs>
        <path d="M 19.1875 8.296875 
L 53.609375 8.296875 
L 53.609375 0 
L 7.328125 0 
L 7.328125 8.296875 
Q 12.9375 14.109375 22.625 23.890625 
Q 32.328125 33.6875 34.8125 36.53125 
Q 39.546875 41.84375 41.421875 45.53125 
Q 43.3125 49.21875 43.3125 52.78125 
Q 43.3125 58.59375 39.234375 62.25 
Q 35.15625 65.921875 28.609375 65.921875 
Q 23.96875 65.921875 18.8125 64.3125 
Q 13.671875 62.703125 7.8125 59.421875 
L 7.8125 69.390625 
Q 13.765625 71.78125 18.9375 73 
Q 24.125 74.21875 28.421875 74.21875 
Q 39.75 74.21875 46.484375 68.546875 
Q 53.21875 62.890625 53.21875 53.421875 
Q 53.21875 48.921875 51.53125 44.890625 
Q 49.859375 40.875 45.40625 35.40625 
Q 44.1875 33.984375 37.640625 27.21875 
Q 31.109375 20.453125 19.1875 8.296875 
z
" id="DejaVuSans-50"/>
       </defs>
       <use xlink:href="#DejaVuSans-50"/>
       <use x="63.623047" xlink:href="#DejaVuSans-48"/>
       <use x="127.246094" xlink:href="#DejaVuSans-48"/>
       <use x="190.869141" xlink:href="#DejaVuSans-48"/>
      </g>
     </g>
    </g>
    <g id="xtick_3">
     <g id="line2d_3">
      <g>
       <use style="stroke:#000000;stroke-width:0.8;" x="186.486022" xlink:href="#m0301ef331c" y="217.536706"/>
      </g>
     </g>
     <g id="text_3">
      <!-- 4000 -->
      <g transform="translate(173.761022 232.135144)scale(0.1 -0.1)">
       <defs>
        <path d="M 37.796875 64.3125 
L 12.890625 25.390625 
L 37.796875 25.390625 
z
M 35.203125 72.90625 
L 47.609375 72.90625 
L 47.609375 25.390625 
L 58.015625 25.390625 
L 58.015625 17.1875 
L 47.609375 17.1875 
L 47.609375 0 
L 37.796875 0 
L 37.796875 17.1875 
L 4.890625 17.1875 
L 4.890625 26.703125 
z
" id="DejaVuSans-52"/>
       </defs>
       <use xlink:href="#DejaVuSans-52"/>
       <use x="63.623047" xlink:href="#DejaVuSans-48"/>
       <use x="127.246094" xlink:href="#DejaVuSans-48"/>
       <use x="190.869141" xlink:href="#DejaVuSans-48"/>
      </g>
     </g>
    </g>
    <g id="xtick_4">
     <g id="line2d_4">
      <g>
       <use style="stroke:#000000;stroke-width:0.8;" x="243.729032" xlink:href="#m0301ef331c" y="217.536706"/>
      </g>
     </g>
     <g id="text_4">
      <!-- 6000 -->
      <g transform="translate(231.004032 232.135144)scale(0.1 -0.1)">
       <defs>
        <path d="M 33.015625 40.375 
Q 26.375 40.375 22.484375 35.828125 
Q 18.609375 31.296875 18.609375 23.390625 
Q 18.609375 15.53125 22.484375 10.953125 
Q 26.375 6.390625 33.015625 6.390625 
Q 39.65625 6.390625 43.53125 10.953125 
Q 47.40625 15.53125 47.40625 23.390625 
Q 47.40625 31.296875 43.53125 35.828125 
Q 39.65625 40.375 33.015625 40.375 
z
M 52.59375 71.296875 
L 52.59375 62.3125 
Q 48.875 64.0625 45.09375 64.984375 
Q 41.3125 65.921875 37.59375 65.921875 
Q 27.828125 65.921875 22.671875 59.328125 
Q 17.53125 52.734375 16.796875 39.40625 
Q 19.671875 43.65625 24.015625 45.921875 
Q 28.375 48.1875 33.59375 48.1875 
Q 44.578125 48.1875 50.953125 41.515625 
Q 57.328125 34.859375 57.328125 23.390625 
Q 57.328125 12.15625 50.6875 5.359375 
Q 44.046875 -1.421875 33.015625 -1.421875 
Q 20.359375 -1.421875 13.671875 8.265625 
Q 6.984375 17.96875 6.984375 36.375 
Q 6.984375 53.65625 15.1875 63.9375 
Q 23.390625 74.21875 37.203125 74.21875 
Q 40.921875 74.21875 44.703125 73.484375 
Q 48.484375 72.75 52.59375 71.296875 
z
" id="DejaVuSans-54"/>
       </defs>
       <use xlink:href="#DejaVuSans-54"/>
       <use x="63.623047" xlink:href="#DejaVuSans-48"/>
       <use x="127.246094" xlink:href="#DejaVuSans-48"/>
       <use x="190.869141" xlink:href="#DejaVuSans-48"/>
      </g>
     </g>
    </g>
    <g id="xtick_5">
     <g id="line2d_5">
      <g>
       <use style="stroke:#000000;stroke-width:0.8;" x="300.972043" xlink:href="#m0301ef331c" y="217.536706"/>
      </g>
     </g>
     <g id="text_5">
      <!-- 8000 -->
      <g transform="translate(288.247043 232.135144)scale(0.1 -0.1)">
       <defs>
        <path d="M 31.78125 34.625 
Q 24.75 34.625 20.71875 30.859375 
Q 16.703125 27.09375 16.703125 20.515625 
Q 16.703125 13.921875 20.71875 10.15625 
Q 24.75 6.390625 31.78125 6.390625 
Q 38.8125 6.390625 42.859375 10.171875 
Q 46.921875 13.96875 46.921875 20.515625 
Q 46.921875 27.09375 42.890625 30.859375 
Q 38.875 34.625 31.78125 34.625 
z
M 21.921875 38.8125 
Q 15.578125 40.375 12.03125 44.71875 
Q 8.5 49.078125 8.5 55.328125 
Q 8.5 64.0625 14.71875 69.140625 
Q 20.953125 74.21875 31.78125 74.21875 
Q 42.671875 74.21875 48.875 69.140625 
Q 55.078125 64.0625 55.078125 55.328125 
Q 55.078125 49.078125 51.53125 44.71875 
Q 48 40.375 41.703125 38.8125 
Q 48.828125 37.15625 52.796875 32.3125 
Q 56.78125 27.484375 56.78125 20.515625 
Q 56.78125 9.90625 50.3125 4.234375 
Q 43.84375 -1.421875 31.78125 -1.421875 
Q 19.734375 -1.421875 13.25 4.234375 
Q 6.78125 9.90625 6.78125 20.515625 
Q 6.78125 27.484375 10.78125 32.3125 
Q 14.796875 37.15625 21.921875 38.8125 
z
M 18.3125 54.390625 
Q 18.3125 48.734375 21.84375 45.5625 
Q 25.390625 42.390625 31.78125 42.390625 
Q 38.140625 42.390625 41.71875 45.5625 
Q 45.3125 48.734375 45.3125 54.390625 
Q 45.3125 60.0625 41.71875 63.234375 
Q 38.140625 66.40625 31.78125 66.40625 
Q 25.390625 66.40625 21.84375 63.234375 
Q 18.3125 60.0625 18.3125 54.390625 
z
" id="DejaVuSans-56"/>
       </defs>
       <use xlink:href="#DejaVuSans-56"/>
       <use x="63.623047" xlink:href="#DejaVuSans-48"/>
       <use x="127.246094" xlink:href="#DejaVuSans-48"/>
       <use x="190.869141" xlink:href="#DejaVuSans-48"/>
      </g>
     </g>
    </g>
    <g id="xtick_6">
     <g id="line2d_6">
      <g>
       <use style="stroke:#000000;stroke-width:0.8;" x="358.215054" xlink:href="#m0301ef331c" y="217.536706"/>
      </g>
     </g>
     <g id="text_6">
      <!-- 10000 -->
      <g transform="translate(342.308804 232.135144)scale(0.1 -0.1)">
       <defs>
        <path d="M 12.40625 8.296875 
L 28.515625 8.296875 
L 28.515625 63.921875 
L 10.984375 60.40625 
L 10.984375 69.390625 
L 28.421875 72.90625 
L 38.28125 72.90625 
L 38.28125 8.296875 
L 54.390625 8.296875 
L 54.390625 0 
L 12.40625 0 
z
" id="DejaVuSans-49"/>
       </defs>
       <use xlink:href="#DejaVuSans-49"/>
       <use x="63.623047" xlink:href="#DejaVuSans-48"/>
       <use x="127.246094" xlink:href="#DejaVuSans-48"/>
       <use x="190.869141" xlink:href="#DejaVuSans-48"/>
       <use x="254.492188" xlink:href="#DejaVuSans-48"/>
      </g>
     </g>
    </g>
    <g id="xtick_7">
     <g id="line2d_7">
      <g>
       <use style="stroke:#000000;stroke-width:0.8;" x="415.458065" xlink:href="#m0301ef331c" y="217.536706"/>
      </g>
     </g>
     <g id="text_7">
      <!-- 12000 -->
      <g transform="translate(399.551815 232.135144)scale(0.1 -0.1)">
       <use xlink:href="#DejaVuSans-49"/>
       <use x="63.623047" xlink:href="#DejaVuSans-50"/>
       <use x="127.246094" xlink:href="#DejaVuSans-48"/>
       <use x="190.869141" xlink:href="#DejaVuSans-48"/>
       <use x="254.492188" xlink:href="#DejaVuSans-48"/>
      </g>
     </g>
    </g>
    <g id="xtick_8">
     <g id="line2d_8">
      <g>
       <use style="stroke:#000000;stroke-width:0.8;" x="472.701076" xlink:href="#m0301ef331c" y="217.536706"/>
      </g>
     </g>
     <g id="text_8">
      <!-- 14000 -->
      <g transform="translate(456.794826 232.135144)scale(0.1 -0.1)">
       <use xlink:href="#DejaVuSans-49"/>
       <use x="63.623047" xlink:href="#DejaVuSans-52"/>
       <use x="127.246094" xlink:href="#DejaVuSans-48"/>
       <use x="190.869141" xlink:href="#DejaVuSans-48"/>
       <use x="254.492188" xlink:href="#DejaVuSans-48"/>
      </g>
     </g>
    </g>
    <g id="text_9">
     <!-- quarterly income ($) -->
     <g transform="translate(243.722656 245.813269)scale(0.1 -0.1)">
      <defs>
       <path d="M 14.796875 27.296875 
Q 14.796875 17.390625 18.875 11.75 
Q 22.953125 6.109375 30.078125 6.109375 
Q 37.203125 6.109375 41.296875 11.75 
Q 45.40625 17.390625 45.40625 27.296875 
Q 45.40625 37.203125 41.296875 42.84375 
Q 37.203125 48.484375 30.078125 48.484375 
Q 22.953125 48.484375 18.875 42.84375 
Q 14.796875 37.203125 14.796875 27.296875 
z
M 45.40625 8.203125 
Q 42.578125 3.328125 38.25 0.953125 
Q 33.9375 -1.421875 27.875 -1.421875 
Q 17.96875 -1.421875 11.734375 6.484375 
Q 5.515625 14.40625 5.515625 27.296875 
Q 5.515625 40.1875 11.734375 48.09375 
Q 17.96875 56 27.875 56 
Q 33.9375 56 38.25 53.625 
Q 42.578125 51.265625 45.40625 46.390625 
L 45.40625 54.6875 
L 54.390625 54.6875 
L 54.390625 -20.796875 
L 45.40625 -20.796875 
z
" id="DejaVuSans-113"/>
       <path d="M 8.5 21.578125 
L 8.5 54.6875 
L 17.484375 54.6875 
L 17.484375 21.921875 
Q 17.484375 14.15625 20.5 10.265625 
Q 23.53125 6.390625 29.59375 6.390625 
Q 36.859375 6.390625 41.078125 11.03125 
Q 45.3125 15.671875 45.3125 23.6875 
L 45.3125 54.6875 
L 54.296875 54.6875 
L 54.296875 0 
L 45.3125 0 
L 45.3125 8.40625 
Q 42.046875 3.421875 37.71875 1 
Q 33.40625 -1.421875 27.6875 -1.421875 
Q 18.265625 -1.421875 13.375 4.4375 
Q 8.5 10.296875 8.5 21.578125 
z
M 31.109375 56 
z
" id="DejaVuSans-117"/>
       <path d="M 34.28125 27.484375 
Q 23.390625 27.484375 19.1875 25 
Q 14.984375 22.515625 14.984375 16.5 
Q 14.984375 11.71875 18.140625 8.90625 
Q 21.296875 6.109375 26.703125 6.109375 
Q 34.1875 6.109375 38.703125 11.40625 
Q 43.21875 16.703125 43.21875 25.484375 
L 43.21875 27.484375 
z
M 52.203125 31.203125 
L 52.203125 0 
L 43.21875 0 
L 43.21875 8.296875 
Q 40.140625 3.328125 35.546875 0.953125 
Q 30.953125 -1.421875 24.3125 -1.421875 
Q 15.921875 -1.421875 10.953125 3.296875 
Q 6 8.015625 6 15.921875 
Q 6 25.140625 12.171875 29.828125 
Q 18.359375 34.515625 30.609375 34.515625 
L 43.21875 34.515625 
L 43.21875 35.40625 
Q 43.21875 41.609375 39.140625 45 
Q 35.0625 48.390625 27.6875 48.390625 
Q 23 48.390625 18.546875 47.265625 
Q 14.109375 46.140625 10.015625 43.890625 
L 10.015625 52.203125 
Q 14.9375 54.109375 19.578125 55.046875 
Q 24.21875 56 28.609375 56 
Q 40.484375 56 46.34375 49.84375 
Q 52.203125 43.703125 52.203125 31.203125 
z
" id="DejaVuSans-97"/>
       <path d="M 41.109375 46.296875 
Q 39.59375 47.171875 37.8125 47.578125 
Q 36.03125 48 33.890625 48 
Q 26.265625 48 22.1875 43.046875 
Q 18.109375 38.09375 18.109375 28.8125 
L 18.109375 0 
L 9.078125 0 
L 9.078125 54.6875 
L 18.109375 54.6875 
L 18.109375 46.1875 
Q 20.953125 51.171875 25.484375 53.578125 
Q 30.03125 56 36.53125 56 
Q 37.453125 56 38.578125 55.875 
Q 39.703125 55.765625 41.0625 55.515625 
z
" id="DejaVuSans-114"/>
       <path d="M 18.3125 70.21875 
L 18.3125 54.6875 
L 36.8125 54.6875 
L 36.8125 47.703125 
L 18.3125 47.703125 
L 18.3125 18.015625 
Q 18.3125 11.328125 20.140625 9.421875 
Q 21.96875 7.515625 27.59375 7.515625 
L 36.8125 7.515625 
L 36.8125 0 
L 27.59375 0 
Q 17.1875 0 13.234375 3.875 
Q 9.28125 7.765625 9.28125 18.015625 
L 9.28125 47.703125 
L 2.6875 47.703125 
L 2.6875 54.6875 
L 9.28125 54.6875 
L 9.28125 70.21875 
z
" id="DejaVuSans-116"/>
       <path d="M 56.203125 29.59375 
L 56.203125 25.203125 
L 14.890625 25.203125 
Q 15.484375 15.921875 20.484375 11.0625 
Q 25.484375 6.203125 34.421875 6.203125 
Q 39.59375 6.203125 44.453125 7.46875 
Q 49.3125 8.734375 54.109375 11.28125 
L 54.109375 2.78125 
Q 49.265625 0.734375 44.1875 -0.34375 
Q 39.109375 -1.421875 33.890625 -1.421875 
Q 20.796875 -1.421875 13.15625 6.1875 
Q 5.515625 13.8125 5.515625 26.8125 
Q 5.515625 40.234375 12.765625 48.109375 
Q 20.015625 56 32.328125 56 
Q 43.359375 56 49.78125 48.890625 
Q 56.203125 41.796875 56.203125 29.59375 
z
M 47.21875 32.234375 
Q 47.125 39.59375 43.09375 43.984375 
Q 39.0625 48.390625 32.421875 48.390625 
Q 24.90625 48.390625 20.390625 44.140625 
Q 15.875 39.890625 15.1875 32.171875 
z
" id="DejaVuSans-101"/>
       <path d="M 9.421875 75.984375 
L 18.40625 75.984375 
L 18.40625 0 
L 9.421875 0 
z
" id="DejaVuSans-108"/>
       <path d="M 32.171875 -5.078125 
Q 28.375 -14.84375 24.75 -17.8125 
Q 21.140625 -20.796875 15.09375 -20.796875 
L 7.90625 -20.796875 
L 7.90625 -13.28125 
L 13.1875 -13.28125 
Q 16.890625 -13.28125 18.9375 -11.515625 
Q 21 -9.765625 23.484375 -3.21875 
L 25.09375 0.875 
L 2.984375 54.6875 
L 12.5 54.6875 
L 29.59375 11.921875 
L 46.6875 54.6875 
L 56.203125 54.6875 
z
" id="DejaVuSans-121"/>
       <path id="DejaVuSans-32"/>
       <path d="M 9.421875 54.6875 
L 18.40625 54.6875 
L 18.40625 0 
L 9.421875 0 
z
M 9.421875 75.984375 
L 18.40625 75.984375 
L 18.40625 64.59375 
L 9.421875 64.59375 
z
" id="DejaVuSans-105"/>
       <path d="M 54.890625 33.015625 
L 54.890625 0 
L 45.90625 0 
L 45.90625 32.71875 
Q 45.90625 40.484375 42.875 44.328125 
Q 39.84375 48.1875 33.796875 48.1875 
Q 26.515625 48.1875 22.3125 43.546875 
Q 18.109375 38.921875 18.109375 30.90625 
L 18.109375 0 
L 9.078125 0 
L 9.078125 54.6875 
L 18.109375 54.6875 
L 18.109375 46.1875 
Q 21.34375 51.125 25.703125 53.5625 
Q 30.078125 56 35.796875 56 
Q 45.21875 56 50.046875 50.171875 
Q 54.890625 44.34375 54.890625 33.015625 
z
" id="DejaVuSans-110"/>
       <path d="M 48.78125 52.59375 
L 48.78125 44.1875 
Q 44.96875 46.296875 41.140625 47.34375 
Q 37.3125 48.390625 33.40625 48.390625 
Q 24.65625 48.390625 19.8125 42.84375 
Q 14.984375 37.3125 14.984375 27.296875 
Q 14.984375 17.28125 19.8125 11.734375 
Q 24.65625 6.203125 33.40625 6.203125 
Q 37.3125 6.203125 41.140625 7.25 
Q 44.96875 8.296875 48.78125 10.40625 
L 48.78125 2.09375 
Q 45.015625 0.34375 40.984375 -0.53125 
Q 36.96875 -1.421875 32.421875 -1.421875 
Q 20.0625 -1.421875 12.78125 6.34375 
Q 5.515625 14.109375 5.515625 27.296875 
Q 5.515625 40.671875 12.859375 48.328125 
Q 20.21875 56 33.015625 56 
Q 37.15625 56 41.109375 55.140625 
Q 45.0625 54.296875 48.78125 52.59375 
z
" id="DejaVuSans-99"/>
       <path d="M 30.609375 48.390625 
Q 23.390625 48.390625 19.1875 42.75 
Q 14.984375 37.109375 14.984375 27.296875 
Q 14.984375 17.484375 19.15625 11.84375 
Q 23.34375 6.203125 30.609375 6.203125 
Q 37.796875 6.203125 41.984375 11.859375 
Q 46.1875 17.53125 46.1875 27.296875 
Q 46.1875 37.015625 41.984375 42.703125 
Q 37.796875 48.390625 30.609375 48.390625 
z
M 30.609375 56 
Q 42.328125 56 49.015625 48.375 
Q 55.71875 40.765625 55.71875 27.296875 
Q 55.71875 13.875 49.015625 6.21875 
Q 42.328125 -1.421875 30.609375 -1.421875 
Q 18.84375 -1.421875 12.171875 6.21875 
Q 5.515625 13.875 5.515625 27.296875 
Q 5.515625 40.765625 12.171875 48.375 
Q 18.84375 56 30.609375 56 
z
" id="DejaVuSans-111"/>
       <path d="M 52 44.1875 
Q 55.375 50.25 60.0625 53.125 
Q 64.75 56 71.09375 56 
Q 79.640625 56 84.28125 50.015625 
Q 88.921875 44.046875 88.921875 33.015625 
L 88.921875 0 
L 79.890625 0 
L 79.890625 32.71875 
Q 79.890625 40.578125 77.09375 44.375 
Q 74.3125 48.1875 68.609375 48.1875 
Q 61.625 48.1875 57.5625 43.546875 
Q 53.515625 38.921875 53.515625 30.90625 
L 53.515625 0 
L 44.484375 0 
L 44.484375 32.71875 
Q 44.484375 40.625 41.703125 44.40625 
Q 38.921875 48.1875 33.109375 48.1875 
Q 26.21875 48.1875 22.15625 43.53125 
Q 18.109375 38.875 18.109375 30.90625 
L 18.109375 0 
L 9.078125 0 
L 9.078125 54.6875 
L 18.109375 54.6875 
L 18.109375 46.1875 
Q 21.1875 51.21875 25.484375 53.609375 
Q 29.78125 56 35.6875 56 
Q 41.65625 56 45.828125 52.96875 
Q 50 49.953125 52 44.1875 
z
" id="DejaVuSans-109"/>
       <path d="M 31 75.875 
Q 24.46875 64.65625 21.28125 53.65625 
Q 18.109375 42.671875 18.109375 31.390625 
Q 18.109375 20.125 21.3125 9.0625 
Q 24.515625 -2 31 -13.1875 
L 23.1875 -13.1875 
Q 15.875 -1.703125 12.234375 9.375 
Q 8.59375 20.453125 8.59375 31.390625 
Q 8.59375 42.28125 12.203125 53.3125 
Q 15.828125 64.359375 23.1875 75.875 
z
" id="DejaVuSans-40"/>
       <path d="M 33.796875 -14.703125 
L 28.90625 -14.703125 
L 28.859375 0 
Q 23.734375 0.09375 18.609375 1.1875 
Q 13.484375 2.296875 8.296875 4.5 
L 8.296875 13.28125 
Q 13.28125 10.15625 18.375 8.5625 
Q 23.484375 6.984375 28.90625 6.9375 
L 28.90625 29.203125 
Q 18.109375 30.953125 13.203125 35.15625 
Q 8.296875 39.359375 8.296875 46.6875 
Q 8.296875 54.640625 13.625 59.21875 
Q 18.953125 63.8125 28.90625 64.5 
L 28.90625 75.984375 
L 33.796875 75.984375 
L 33.796875 64.65625 
Q 38.328125 64.453125 42.578125 63.6875 
Q 46.828125 62.9375 50.875 61.625 
L 50.875 53.078125 
Q 46.828125 55.125 42.546875 56.25 
Q 38.28125 57.375 33.796875 57.5625 
L 33.796875 36.71875 
Q 44.875 35.015625 50.09375 30.609375 
Q 55.328125 26.21875 55.328125 18.609375 
Q 55.328125 10.359375 49.78125 5.59375 
Q 44.234375 0.828125 33.796875 0.09375 
z
M 28.90625 37.59375 
L 28.90625 57.625 
Q 23.25 56.984375 20.265625 54.390625 
Q 17.28125 51.8125 17.28125 47.515625 
Q 17.28125 43.3125 20.03125 40.96875 
Q 22.796875 38.625 28.90625 37.59375 
z
M 33.796875 28.21875 
L 33.796875 7.078125 
Q 39.984375 7.90625 43.140625 10.59375 
Q 46.296875 13.28125 46.296875 17.671875 
Q 46.296875 21.96875 43.28125 24.5 
Q 40.28125 27.046875 33.796875 28.21875 
z
" id="DejaVuSans-36"/>
       <path d="M 8.015625 75.875 
L 15.828125 75.875 
Q 23.140625 64.359375 26.78125 53.3125 
Q 30.421875 42.28125 30.421875 31.390625 
Q 30.421875 20.453125 26.78125 9.375 
Q 23.140625 -1.703125 15.828125 -13.1875 
L 8.015625 -13.1875 
Q 14.5 -2 17.703125 9.0625 
Q 20.90625 20.125 20.90625 31.390625 
Q 20.90625 42.671875 17.703125 53.65625 
Q 14.5 64.65625 8.015625 75.875 
z
" id="DejaVuSans-41"/>
      </defs>
      <use xlink:href="#DejaVuSans-113"/>
      <use x="63.476562" xlink:href="#DejaVuSans-117"/>
      <use x="126.855469" xlink:href="#DejaVuSans-97"/>
      <use x="188.134766" xlink:href="#DejaVuSans-114"/>
      <use x="229.248047" xlink:href="#DejaVuSans-116"/>
      <use x="268.457031" xlink:href="#DejaVuSans-101"/>
      <use x="329.980469" xlink:href="#DejaVuSans-114"/>
      <use x="371.09375" xlink:href="#DejaVuSans-108"/>
      <use x="398.876953" xlink:href="#DejaVuSans-121"/>
      <use x="458.056641" xlink:href="#DejaVuSans-32"/>
      <use x="489.84375" xlink:href="#DejaVuSans-105"/>
      <use x="517.626953" xlink:href="#DejaVuSans-110"/>
      <use x="581.005859" xlink:href="#DejaVuSans-99"/>
      <use x="635.986328" xlink:href="#DejaVuSans-111"/>
      <use x="697.167969" xlink:href="#DejaVuSans-109"/>
      <use x="794.580078" xlink:href="#DejaVuSans-101"/>
      <use x="856.103516" xlink:href="#DejaVuSans-32"/>
      <use x="887.890625" xlink:href="#DejaVuSans-40"/>
      <use x="926.904297" xlink:href="#DejaVuSans-36"/>
      <use x="990.527344" xlink:href="#DejaVuSans-41"/>
     </g>
    </g>
   </g>
   <g id="matplotlib.axis_2">
    <g id="ytick_1">
     <g id="line2d_9">
      <defs>
       <path d="M 0 0 
L -3.5 0 
" id="mec34be6020" style="stroke:#000000;stroke-width:0.8;"/>
      </defs>
      <g>
       <use style="stroke:#000000;stroke-width:0.8;" x="72" xlink:href="#mec34be6020" y="217.536706"/>
      </g>
     </g>
     <g id="text_10">
      <!-- 0 -->
      <g transform="translate(58.6375 221.335925)scale(0.1 -0.1)">
       <use xlink:href="#DejaVuSans-48"/>
      </g>
     </g>
    </g>
    <g id="ytick_2">
     <g id="line2d_10">
      <g>
       <use style="stroke:#000000;stroke-width:0.8;" x="72" xlink:href="#mec34be6020" y="188.915201"/>
      </g>
     </g>
     <g id="text_11">
      <!-- 1000 -->
      <g transform="translate(39.55 192.714419)scale(0.1 -0.1)">
       <use xlink:href="#DejaVuSans-49"/>
       <use x="63.623047" xlink:href="#DejaVuSans-48"/>
       <use x="127.246094" xlink:href="#DejaVuSans-48"/>
       <use x="190.869141" xlink:href="#DejaVuSans-48"/>
      </g>
     </g>
    </g>
    <g id="ytick_3">
     <g id="line2d_11">
      <g>
       <use style="stroke:#000000;stroke-width:0.8;" x="72" xlink:href="#mec34be6020" y="160.293695"/>
      </g>
     </g>
     <g id="text_12">
      <!-- 2000 -->
      <g transform="translate(39.55 164.092914)scale(0.1 -0.1)">
       <use xlink:href="#DejaVuSans-50"/>
       <use x="63.623047" xlink:href="#DejaVuSans-48"/>
       <use x="127.246094" xlink:href="#DejaVuSans-48"/>
       <use x="190.869141" xlink:href="#DejaVuSans-48"/>
      </g>
     </g>
    </g>
    <g id="ytick_4">
     <g id="line2d_12">
      <g>
       <use style="stroke:#000000;stroke-width:0.8;" x="72" xlink:href="#mec34be6020" y="131.67219"/>
      </g>
     </g>
     <g id="text_13">
      <!-- 3000 -->
      <g transform="translate(39.55 135.471409)scale(0.1 -0.1)">
       <defs>
        <path d="M 40.578125 39.3125 
Q 47.65625 37.796875 51.625 33 
Q 55.609375 28.21875 55.609375 21.1875 
Q 55.609375 10.40625 48.1875 4.484375 
Q 40.765625 -1.421875 27.09375 -1.421875 
Q 22.515625 -1.421875 17.65625 -0.515625 
Q 12.796875 0.390625 7.625 2.203125 
L 7.625 11.71875 
Q 11.71875 9.328125 16.59375 8.109375 
Q 21.484375 6.890625 26.8125 6.890625 
Q 36.078125 6.890625 40.9375 10.546875 
Q 45.796875 14.203125 45.796875 21.1875 
Q 45.796875 27.640625 41.28125 31.265625 
Q 36.765625 34.90625 28.71875 34.90625 
L 20.21875 34.90625 
L 20.21875 43.015625 
L 29.109375 43.015625 
Q 36.375 43.015625 40.234375 45.921875 
Q 44.09375 48.828125 44.09375 54.296875 
Q 44.09375 59.90625 40.109375 62.90625 
Q 36.140625 65.921875 28.71875 65.921875 
Q 24.65625 65.921875 20.015625 65.03125 
Q 15.375 64.15625 9.8125 62.3125 
L 9.8125 71.09375 
Q 15.4375 72.65625 20.34375 73.4375 
Q 25.25 74.21875 29.59375 74.21875 
Q 40.828125 74.21875 47.359375 69.109375 
Q 53.90625 64.015625 53.90625 55.328125 
Q 53.90625 49.265625 50.4375 45.09375 
Q 46.96875 40.921875 40.578125 39.3125 
z
" id="DejaVuSans-51"/>
       </defs>
       <use xlink:href="#DejaVuSans-51"/>
       <use x="63.623047" xlink:href="#DejaVuSans-48"/>
       <use x="127.246094" xlink:href="#DejaVuSans-48"/>
       <use x="190.869141" xlink:href="#DejaVuSans-48"/>
      </g>
     </g>
    </g>
    <g id="ytick_5">
     <g id="line2d_13">
      <g>
       <use style="stroke:#000000;stroke-width:0.8;" x="72" xlink:href="#mec34be6020" y="103.050685"/>
      </g>
     </g>
     <g id="text_14">
      <!-- 4000 -->
      <g transform="translate(39.55 106.849903)scale(0.1 -0.1)">
       <use xlink:href="#DejaVuSans-52"/>
       <use x="63.623047" xlink:href="#DejaVuSans-48"/>
       <use x="127.246094" xlink:href="#DejaVuSans-48"/>
       <use x="190.869141" xlink:href="#DejaVuSans-48"/>
      </g>
     </g>
    </g>
    <g id="ytick_6">
     <g id="line2d_14">
      <g>
       <use style="stroke:#000000;stroke-width:0.8;" x="72" xlink:href="#mec34be6020" y="74.429179"/>
      </g>
     </g>
     <g id="text_15">
      <!-- 5000 -->
      <g transform="translate(39.55 78.228398)scale(0.1 -0.1)">
       <defs>
        <path d="M 10.796875 72.90625 
L 49.515625 72.90625 
L 49.515625 64.59375 
L 19.828125 64.59375 
L 19.828125 46.734375 
Q 21.96875 47.46875 24.109375 47.828125 
Q 26.265625 48.1875 28.421875 48.1875 
Q 40.625 48.1875 47.75 41.5 
Q 54.890625 34.8125 54.890625 23.390625 
Q 54.890625 11.625 47.5625 5.09375 
Q 40.234375 -1.421875 26.90625 -1.421875 
Q 22.3125 -1.421875 17.546875 -0.640625 
Q 12.796875 0.140625 7.71875 1.703125 
L 7.71875 11.625 
Q 12.109375 9.234375 16.796875 8.0625 
Q 21.484375 6.890625 26.703125 6.890625 
Q 35.15625 6.890625 40.078125 11.328125 
Q 45.015625 15.765625 45.015625 23.390625 
Q 45.015625 31 40.078125 35.4375 
Q 35.15625 39.890625 26.703125 39.890625 
Q 22.75 39.890625 18.8125 39.015625 
Q 14.890625 38.140625 10.796875 36.28125 
z
" id="DejaVuSans-53"/>
       </defs>
       <use xlink:href="#DejaVuSans-53"/>
       <use x="63.623047" xlink:href="#DejaVuSans-48"/>
       <use x="127.246094" xlink:href="#DejaVuSans-48"/>
       <use x="190.869141" xlink:href="#DejaVuSans-48"/>
      </g>
     </g>
    </g>
    <g id="text_16">
     <!-- monthly salary ($) -->
     <g transform="translate(33.470312 189.253438)rotate(-90)scale(0.1 -0.1)">
      <defs>
       <path d="M 54.890625 33.015625 
L 54.890625 0 
L 45.90625 0 
L 45.90625 32.71875 
Q 45.90625 40.484375 42.875 44.328125 
Q 39.84375 48.1875 33.796875 48.1875 
Q 26.515625 48.1875 22.3125 43.546875 
Q 18.109375 38.921875 18.109375 30.90625 
L 18.109375 0 
L 9.078125 0 
L 9.078125 75.984375 
L 18.109375 75.984375 
L 18.109375 46.1875 
Q 21.34375 51.125 25.703125 53.5625 
Q 30.078125 56 35.796875 56 
Q 45.21875 56 50.046875 50.171875 
Q 54.890625 44.34375 54.890625 33.015625 
z
" id="DejaVuSans-104"/>
       <path d="M 44.28125 53.078125 
L 44.28125 44.578125 
Q 40.484375 46.53125 36.375 47.5 
Q 32.28125 48.484375 27.875 48.484375 
Q 21.1875 48.484375 17.84375 46.4375 
Q 14.5 44.390625 14.5 40.28125 
Q 14.5 37.15625 16.890625 35.375 
Q 19.28125 33.59375 26.515625 31.984375 
L 29.59375 31.296875 
Q 39.15625 29.25 43.1875 25.515625 
Q 47.21875 21.78125 47.21875 15.09375 
Q 47.21875 7.46875 41.1875 3.015625 
Q 35.15625 -1.421875 24.609375 -1.421875 
Q 20.21875 -1.421875 15.453125 -0.5625 
Q 10.6875 0.296875 5.421875 2 
L 5.421875 11.28125 
Q 10.40625 8.6875 15.234375 7.390625 
Q 20.0625 6.109375 24.8125 6.109375 
Q 31.15625 6.109375 34.5625 8.28125 
Q 37.984375 10.453125 37.984375 14.40625 
Q 37.984375 18.0625 35.515625 20.015625 
Q 33.0625 21.96875 24.703125 23.78125 
L 21.578125 24.515625 
Q 13.234375 26.265625 9.515625 29.90625 
Q 5.8125 33.546875 5.8125 39.890625 
Q 5.8125 47.609375 11.28125 51.796875 
Q 16.75 56 26.8125 56 
Q 31.78125 56 36.171875 55.265625 
Q 40.578125 54.546875 44.28125 53.078125 
z
" id="DejaVuSans-115"/>
      </defs>
      <use xlink:href="#DejaVuSans-109"/>
      <use x="97.412109" xlink:href="#DejaVuSans-111"/>
      <use x="158.59375" xlink:href="#DejaVuSans-110"/>
      <use x="221.972656" xlink:href="#DejaVuSans-116"/>
      <use x="261.181641" xlink:href="#DejaVuSans-104"/>
      <use x="324.560547" xlink:href="#DejaVuSans-108"/>
      <use x="352.34375" xlink:href="#DejaVuSans-121"/>
      <use x="411.523438" xlink:href="#DejaVuSans-32"/>
      <use x="443.310547" xlink:href="#DejaVuSans-115"/>
      <use x="495.410156" xlink:href="#DejaVuSans-97"/>
      <use x="556.689453" xlink:href="#DejaVuSans-108"/>
      <use x="584.472656" xlink:href="#DejaVuSans-97"/>
      <use x="645.751953" xlink:href="#DejaVuSans-114"/>
      <use x="686.865234" xlink:href="#DejaVuSans-121"/>
      <use x="746.044922" xlink:href="#DejaVuSans-32"/>
      <use x="777.832031" xlink:href="#DejaVuSans-40"/>
      <use x="816.845703" xlink:href="#DejaVuSans-36"/>
      <use x="880.46875" xlink:href="#DejaVuSans-41"/>
     </g>
    </g>
   </g>
   <g id="patch_3">
    <path d="M 72 217.536706 
L 72 69.023294 
" style="fill:none;stroke:#000000;stroke-linecap:square;stroke-linejoin:miter;stroke-width:0.8;"/>
   </g>
   <g id="patch_4">
    <path d="M 72 217.536706 
L 518.4 217.536706 
" style="fill:none;stroke:#000000;stroke-linecap:square;stroke-linejoin:miter;stroke-width:0.8;"/>
   </g>
  </g>
 </g>
 <defs>
  <clipPath id="pe6367fd166">
   <rect height="148.513412" width="446.4" x="72" y="69.023294"/>
  </clipPath>
 </defs>
</svg>
