<?xml version="1.0" encoding="utf-8" standalone="no"?>
<!DOCTYPE svg PUBLIC "-//W3C//DTD SVG 1.1//EN"
  "http://www.w3.org/Graphics/SVG/1.1/DTD/svg11.dtd">
<!-- Created with matplotlib (https://matplotlib.org/) -->
<svg height="193.53625pt" version="1.1" viewBox="0 0 479.232812 193.53625" width="479.232812pt" xmlns="http://www.w3.org/2000/svg" xmlns:xlink="http://www.w3.org/1999/xlink">
 <metadata>
  <rdf:RDF xmlns:cc="http://creativecommons.org/ns#" xmlns:dc="http://purl.org/dc/elements/1.1/" xmlns:rdf="http://www.w3.org/1999/02/22-rdf-syntax-ns#">
   <cc:Work>
    <dc:type rdf:resource="http://purl.org/dc/dcmitype/StillImage"/>
    <dc:date>2020-09-22T22:38:39.213149</dc:date>
    <dc:format>image/svg+xml</dc:format>
    <dc:creator>
     <cc:Agent>
      <dc:title>Matplotlib v3.3.0, https://matplotlib.org/</dc:title>
     </cc:Agent>
    </dc:creator>
   </cc:Work>
  </rdf:RDF>
 </metadata>
 <defs>
  <style type="text/css">*{stroke-linecap:butt;stroke-linejoin:round;}</style>
 </defs>
 <g id="figure_1">
  <g id="patch_1">
   <path d="M 0 193.53625 
L 479.232812 193.53625 
L 479.232812 0 
L 0 0 
z
" style="fill:none;"/>
  </g>
  <g id="axes_1">
   <g id="patch_2">
    <path d="M 32.832813 163.08 
L 479.232812 163.08 
L 479.232812 0 
L 32.832813 0 
z
" style="fill:none;"/>
   </g>
   <g id="matplotlib.axis_1">
    <g id="xtick_1">
     <g id="line2d_1">
      <defs>
       <path d="M 0 0 
L 0 3.5 
" id="m65eeb6aa6a" style="stroke:#000000;stroke-width:0.8;"/>
      </defs>
      <g>
       <use style="stroke:#000000;stroke-width:0.8;" x="52.106633" xlink:href="#m65eeb6aa6a" y="163.08"/>
      </g>
     </g>
     <g id="text_1">
      <!-- 0 -->
      <g transform="translate(49.037883 177.639375)scale(0.1 -0.1)">
       <defs>
        <path d="M 50.140625 45.609375 
Q 53.265625 41.84375 54.796875 36.78125 
Q 56.34375 31.734375 56.34375 26.21875 
Q 56.34375 19.578125 54.4375 14.328125 
Q 52.546875 9.078125 49.21875 5.609375 
Q 45.796875 2.046875 41.109375 0.234375 
Q 36.421875 -1.5625 30.671875 -1.5625 
Q 24.359375 -1.5625 19.421875 0.53125 
Q 14.5 2.640625 11.421875 6.296875 
Q 8.203125 10.109375 6.609375 15.203125 
Q 5.03125 20.3125 5.03125 26.21875 
Q 5.03125 32.03125 6.5625 36.90625 
Q 8.109375 41.796875 11.375 45.75 
Q 14.5 49.5625 19.421875 51.75 
Q 24.359375 53.953125 30.71875 53.953125 
Q 37.40625 53.953125 42.1875 51.703125 
Q 46.96875 49.46875 50.140625 45.609375 
z
M 45.5625 26.21875 
Q 45.5625 37.84375 41.578125 44.234375 
Q 37.59375 50.640625 30.765625 50.640625 
Q 23.828125 50.640625 19.828125 44.234375 
Q 15.828125 37.84375 15.828125 26.21875 
Q 15.828125 15.1875 19.65625 8.46875 
Q 23.484375 1.765625 30.671875 1.765625 
Q 37.84375 1.765625 41.703125 8.46875 
Q 45.5625 15.1875 45.5625 26.21875 
z
" id="Georgia-48"/>
       </defs>
       <use xlink:href="#Georgia-48"/>
      </g>
     </g>
    </g>
    <g id="xtick_2">
     <g id="line2d_2">
      <g>
       <use style="stroke:#000000;stroke-width:0.8;" x="102.961042" xlink:href="#m65eeb6aa6a" y="163.08"/>
      </g>
     </g>
     <g id="text_2">
      <!-- 50 -->
      <g transform="translate(97.250886 177.639375)scale(0.1 -0.1)">
       <defs>
        <path d="M 41.15625 22.90625 
Q 44.390625 20.359375 46.515625 16.359375 
Q 48.640625 12.359375 48.640625 6.34375 
Q 48.640625 -4.15625 41.453125 -10.984375 
Q 34.28125 -17.828125 23.25 -17.828125 
Q 14.703125 -17.828125 8.78125 -13.765625 
Q 2.875 -9.71875 2.875 -4.34375 
Q 2.875 -1.859375 4.09375 0 
Q 5.328125 1.859375 7.859375 1.859375 
Q 10.796875 1.859375 12.328125 0.3125 
Q 13.875 -1.21875 13.875 -3.03125 
Q 13.875 -4.59375 13.328125 -6.9375 
Q 12.796875 -9.28125 12.5 -10.40625 
Q 12.890625 -10.75 13.765625 -11.328125 
Q 14.65625 -11.921875 15.875 -12.453125 
Q 17.140625 -12.984375 18.96875 -13.390625 
Q 20.796875 -13.8125 23.25 -13.8125 
Q 26.375 -13.8125 29.15625 -12.546875 
Q 31.9375 -11.28125 33.84375 -8.796875 
Q 35.9375 -6.0625 36.984375 -2.5625 
Q 38.03125 0.921875 38.03125 6.296875 
Q 38.03125 13.1875 34.203125 17.703125 
Q 30.375 22.21875 24.125 22.21875 
Q 20.21875 22.21875 16.8125 20.75 
Q 13.421875 19.28125 10.75 15.875 
L 7.46875 17.140625 
L 11.625 52.390625 
L 46.578125 52.390625 
L 46.578125 43.703125 
L 15.578125 43.703125 
L 13.03125 23 
Q 15.234375 24.5625 18.8125 26.09375 
Q 22.40625 27.640625 26.703125 27.640625 
Q 30.28125 27.640625 34.109375 26.53125 
Q 37.9375 25.4375 41.15625 22.90625 
z
" id="Georgia-53"/>
       </defs>
       <use xlink:href="#Georgia-53"/>
       <use x="52.832031" xlink:href="#Georgia-48"/>
      </g>
     </g>
    </g>
    <g id="xtick_3">
     <g id="line2d_3">
      <g>
       <use style="stroke:#000000;stroke-width:0.8;" x="153.815451" xlink:href="#m65eeb6aa6a" y="163.08"/>
      </g>
     </g>
     <g id="text_3">
      <!-- 100 -->
      <g transform="translate(145.529513 177.639375)scale(0.1 -0.1)">
       <defs>
        <path d="M 39.5 0 
L 6.59375 0 
L 6.59375 3.46875 
Q 8.0625 3.5625 11.15625 3.875 
Q 14.265625 4.203125 15.4375 4.546875 
Q 16.9375 5.03125 17.75 6.125 
Q 18.5625 7.234375 18.5625 9.421875 
L 18.5625 43.703125 
L 6.390625 43.703125 
L 6.390625 47.796875 
L 9.078125 47.796875 
Q 14.359375 47.796875 18.53125 49.75 
Q 22.703125 51.703125 24.515625 53.953125 
L 28.5625 53.953125 
Q 28.421875 50.78125 28.265625 46.53125 
Q 28.125 42.28125 28.125 38.921875 
L 28.125 9.96875 
Q 28.125 8.25 28.875 6.90625 
Q 29.640625 5.5625 31.0625 4.9375 
Q 32.328125 4.390625 35.203125 3.953125 
Q 38.09375 3.515625 39.5 3.46875 
z
" id="Georgia-49"/>
       </defs>
       <use xlink:href="#Georgia-49"/>
       <use x="42.96875" xlink:href="#Georgia-48"/>
       <use x="104.345703" xlink:href="#Georgia-48"/>
      </g>
     </g>
    </g>
    <g id="xtick_4">
     <g id="line2d_4">
      <g>
       <use style="stroke:#000000;stroke-width:0.8;" x="204.66986" xlink:href="#m65eeb6aa6a" y="163.08"/>
      </g>
     </g>
     <g id="text_4">
      <!-- 150 -->
      <g transform="translate(196.811266 177.639375)scale(0.1 -0.1)">
       <use xlink:href="#Georgia-49"/>
       <use x="42.96875" xlink:href="#Georgia-53"/>
       <use x="95.800781" xlink:href="#Georgia-48"/>
      </g>
     </g>
    </g>
    <g id="xtick_5">
     <g id="line2d_5">
      <g>
       <use style="stroke:#000000;stroke-width:0.8;" x="255.524268" xlink:href="#m65eeb6aa6a" y="163.08"/>
      </g>
     </g>
     <g id="text_5">
      <!-- 200 -->
      <g transform="translate(246.5938 177.639375)scale(0.1 -0.1)">
       <defs>
        <path d="M 51.125 0 
L 5.375 0 
L 5.375 6.640625 
Q 6.6875 8.15625 9.03125 10.03125 
Q 11.375 11.921875 14.59375 14.109375 
Q 16.546875 15.4375 19.28125 17 
Q 22.015625 18.5625 25.484375 20.40625 
Q 29.34375 22.46875 31.421875 24.03125 
Q 33.5 25.59375 35.203125 27.875 
Q 36.328125 29.390625 37.015625 31.65625 
Q 37.703125 33.9375 37.703125 38.140625 
Q 37.703125 44.234375 34.421875 47.09375 
Q 31.15625 49.953125 26.03125 49.953125 
Q 22.859375 49.953125 20.015625 48.703125 
Q 17.1875 47.46875 15.765625 45.265625 
Q 16.109375 43.703125 16.625 41.546875 
Q 17.140625 39.40625 17.140625 37.359375 
Q 17.140625 35.5 15.59375 34.0625 
Q 14.0625 32.625 11.03125 32.625 
Q 8.59375 32.625 7.265625 34.296875 
Q 5.953125 35.984375 5.953125 38.8125 
Q 5.953125 41.453125 7.421875 44.109375 
Q 8.890625 46.78125 11.625 49.03125 
Q 14.3125 51.21875 18.265625 52.578125 
Q 22.21875 53.953125 26.8125 53.953125 
Q 36.8125 53.953125 42.6875 49.484375 
Q 48.578125 45.015625 48.578125 37.546875 
Q 48.578125 33.984375 47.53125 31.046875 
Q 46.484375 28.125 44.140625 25.875 
Q 41.546875 23.390625 38.078125 21.609375 
Q 34.625 19.828125 27.484375 16.65625 
Q 23.25 14.75 19.578125 12.671875 
Q 15.921875 10.59375 13.578125 8.640625 
L 51.125 8.640625 
z
" id="Georgia-50"/>
       </defs>
       <use xlink:href="#Georgia-50"/>
       <use x="55.859375" xlink:href="#Georgia-48"/>
       <use x="117.236328" xlink:href="#Georgia-48"/>
      </g>
     </g>
    </g>
    <g id="xtick_6">
     <g id="line2d_6">
      <g>
       <use style="stroke:#000000;stroke-width:0.8;" x="306.378677" xlink:href="#m65eeb6aa6a" y="163.08"/>
      </g>
     </g>
     <g id="text_6">
      <!-- 250 -->
      <g transform="translate(297.875552 177.639375)scale(0.1 -0.1)">
       <use xlink:href="#Georgia-50"/>
       <use x="55.859375" xlink:href="#Georgia-53"/>
       <use x="108.691406" xlink:href="#Georgia-48"/>
      </g>
     </g>
    </g>
    <g id="xtick_7">
     <g id="line2d_7">
      <g>
       <use style="stroke:#000000;stroke-width:0.8;" x="357.233086" xlink:href="#m65eeb6aa6a" y="163.08"/>
      </g>
     </g>
     <g id="text_7">
      <!-- 300 -->
      <g transform="translate(348.336992 177.639375)scale(0.1 -0.1)">
       <defs>
        <path d="M 23.78125 -17.828125 
Q 19.1875 -17.828125 15.375 -16.671875 
Q 11.578125 -15.53125 8.84375 -13.578125 
Q 6.109375 -11.625 4.609375 -9.078125 
Q 3.125 -6.546875 3.125 -3.859375 
Q 3.125 -1.46875 4.296875 0.453125 
Q 5.46875 2.390625 8.0625 2.390625 
Q 10.984375 2.390625 12.515625 0.953125 
Q 14.0625 -0.484375 14.0625 -2.34375 
Q 14.0625 -3.90625 13.546875 -6.296875 
Q 13.03125 -8.6875 12.75 -9.71875 
Q 13.09375 -10.15625 13.984375 -10.890625 
Q 14.890625 -11.625 16.21875 -12.203125 
Q 17.78125 -12.9375 19.484375 -13.375 
Q 21.1875 -13.8125 24.3125 -13.8125 
Q 27.25 -13.8125 29.953125 -12.828125 
Q 32.671875 -11.859375 34.71875 -9.71875 
Q 36.859375 -7.46875 38.0625 -4.46875 
Q 39.265625 -1.46875 39.265625 3.421875 
Q 39.265625 6.0625 38.703125 8.640625 
Q 38.140625 11.234375 36.625 13.140625 
Q 35.109375 15.046875 32.5 16.09375 
Q 29.890625 17.140625 25.875 17.140625 
L 19.484375 17.140625 
L 19.484375 22.75 
L 23.734375 22.75 
Q 30.46875 22.75 33.4375 26.453125 
Q 36.421875 30.171875 36.421875 37.640625 
Q 36.421875 43.75 33.546875 46.84375 
Q 30.671875 49.953125 25.390625 49.953125 
Q 22.859375 49.953125 21.21875 49.34375 
Q 19.578125 48.734375 18.5625 48.140625 
Q 17.328125 47.46875 16.546875 46.625 
Q 15.765625 45.796875 15.375 45.40625 
Q 15.71875 43.84375 16.203125 41.578125 
Q 16.703125 39.3125 16.703125 37.25 
Q 16.703125 35.453125 15.15625 34 
Q 13.625 32.5625 10.640625 32.5625 
Q 8.0625 32.5625 6.859375 34.421875 
Q 5.671875 36.28125 5.671875 38.71875 
Q 5.671875 41.265625 7.078125 43.890625 
Q 8.5 46.53125 11.28125 48.828125 
Q 14.0625 51.125 18.0625 52.53125 
Q 22.078125 53.953125 27.296875 53.953125 
Q 33.296875 53.953125 37.21875 52.171875 
Q 41.15625 50.390625 43.40625 47.859375 
Q 45.609375 45.359375 46.4375 42.625 
Q 47.265625 39.890625 47.265625 37.9375 
Q 47.265625 35.5 46.578125 33.03125 
Q 45.90625 30.5625 44.34375 28.46875 
Q 42.625 26.171875 39.8125 24.28125 
Q 37.015625 22.40625 32.765625 21.234375 
L 32.765625 20.453125 
Q 35.5 20.21875 38.59375 19.234375 
Q 41.703125 18.265625 44.1875 16.359375 
Q 46.78125 14.359375 48.4375 11.203125 
Q 50.09375 8.0625 50.09375 3.21875 
Q 50.09375 -6.15625 42.578125 -11.984375 
Q 35.0625 -17.828125 23.78125 -17.828125 
z
" id="Georgia-51"/>
       </defs>
       <use xlink:href="#Georgia-51"/>
       <use x="55.175781" xlink:href="#Georgia-48"/>
       <use x="116.552734" xlink:href="#Georgia-48"/>
      </g>
     </g>
    </g>
    <g id="xtick_8">
     <g id="line2d_8">
      <g>
       <use style="stroke:#000000;stroke-width:0.8;" x="408.087495" xlink:href="#m65eeb6aa6a" y="163.08"/>
      </g>
     </g>
     <g id="text_8">
      <!-- 350 -->
      <g transform="translate(399.618745 177.639375)scale(0.1 -0.1)">
       <use xlink:href="#Georgia-51"/>
       <use x="55.175781" xlink:href="#Georgia-53"/>
       <use x="108.007812" xlink:href="#Georgia-48"/>
      </g>
     </g>
    </g>
    <g id="xtick_9">
     <g id="line2d_9">
      <g>
       <use style="stroke:#000000;stroke-width:0.8;" x="458.941903" xlink:href="#m65eeb6aa6a" y="163.08"/>
      </g>
     </g>
     <g id="text_9">
      <!-- 400 -->
      <g transform="translate(449.979403 177.639375)scale(0.1 -0.1)">
       <defs>
        <path d="M 52.9375 4.390625 
L 43.015625 4.390625 
L 43.015625 -17.828125 
L 33.640625 -17.828125 
L 33.640625 4.390625 
L 2.390625 4.390625 
L 2.390625 11.921875 
L 36.625 53.65625 
L 43.015625 53.65625 
L 43.015625 10.796875 
L 52.9375 10.796875 
z
M 33.640625 10.796875 
L 33.640625 42.78125 
L 7.28125 10.796875 
z
" id="Georgia-52"/>
       </defs>
       <use xlink:href="#Georgia-52"/>
       <use x="56.494141" xlink:href="#Georgia-48"/>
       <use x="117.871094" xlink:href="#Georgia-48"/>
      </g>
     </g>
    </g>
    <g id="text_10">
     <!-- number of PCs -->
     <g transform="translate(223.378906 191.3675)scale(0.1 -0.1)">
      <defs>
       <path d="M 56.6875 0 
L 33.109375 0 
L 33.109375 3.21875 
Q 34.234375 3.328125 35.578125 3.421875 
Q 36.921875 3.515625 37.796875 3.8125 
Q 39.15625 4.25 39.8125 5.34375 
Q 40.484375 6.453125 40.484375 8.203125 
L 40.484375 32.953125 
Q 40.484375 38.09375 38.0625 40.875 
Q 35.640625 43.65625 32.171875 43.65625 
Q 29.59375 43.65625 27.4375 42.84375 
Q 25.296875 42.046875 23.640625 40.875 
Q 22.015625 39.75 21.0625 38.453125 
Q 20.125 37.15625 19.671875 36.375 
L 19.671875 8.6875 
Q 19.671875 7.03125 20.359375 5.953125 
Q 21.046875 4.890625 22.40625 4.296875 
Q 23.4375 3.8125 24.625 3.5625 
Q 25.828125 3.328125 27.09375 3.21875 
L 27.09375 0 
L 3.515625 0 
L 3.515625 3.21875 
Q 4.640625 3.328125 5.828125 3.421875 
Q 7.03125 3.515625 7.90625 3.8125 
Q 9.28125 4.25 9.9375 5.34375 
Q 10.59375 6.453125 10.59375 8.203125 
L 10.59375 37.9375 
Q 10.59375 39.59375 9.890625 40.984375 
Q 9.1875 42.390625 7.90625 43.265625 
Q 6.984375 43.84375 5.703125 44.109375 
Q 4.4375 44.390625 2.984375 44.484375 
L 2.984375 47.65625 
L 19 48.734375 
L 19.671875 48.046875 
L 19.671875 41.265625 
L 19.921875 41.265625 
Q 21.09375 42.4375 22.84375 44.0625 
Q 24.609375 45.703125 26.171875 46.734375 
Q 27.984375 47.90625 30.46875 48.6875 
Q 32.953125 49.46875 36.078125 49.46875 
Q 43.015625 49.46875 46.359375 45.140625 
Q 49.703125 40.828125 49.703125 33.640625 
L 49.703125 8.59375 
Q 49.703125 6.890625 50.28125 5.828125 
Q 50.875 4.78125 52.296875 4.203125 
Q 53.46875 3.71875 54.3125 3.515625 
Q 55.171875 3.328125 56.6875 3.21875 
z
" id="Georgia-110"/>
       <path d="M 55.125 0.875 
L 39.453125 -0.203125 
L 38.71875 0.484375 
L 38.71875 6.59375 
L 38.421875 6.59375 
Q 37.25 5.375 35.78125 3.984375 
Q 34.328125 2.59375 32.421875 1.46875 
Q 30.21875 0.140625 28.171875 -0.53125 
Q 26.125 -1.21875 22.359375 -1.21875 
Q 15.96875 -1.21875 12.625 2.953125 
Q 9.28125 7.125 9.28125 15.09375 
L 9.28125 38.140625 
Q 9.28125 39.890625 8.609375 41.078125 
Q 7.953125 42.28125 6.6875 43.171875 
Q 5.8125 43.75 4.484375 44.015625 
Q 3.171875 44.28125 1.703125 44.390625 
L 1.703125 47.5625 
L 17.78125 48.734375 
L 18.5 48.046875 
L 18.5 14.59375 
Q 18.5 9.375 20.84375 6.734375 
Q 23.1875 4.109375 26.46875 4.109375 
Q 29.15625 4.109375 31.25 4.9375 
Q 33.34375 5.765625 34.765625 6.890625 
Q 36.078125 7.90625 37.078125 9.046875 
Q 38.09375 10.203125 38.625 11.1875 
L 38.625 38.484375 
Q 38.625 40.09375 37.9375 41.328125 
Q 37.25 42.578125 36.03125 43.453125 
Q 35.15625 44.046875 33.421875 44.15625 
Q 31.6875 44.28125 29.546875 44.390625 
L 29.546875 47.5625 
L 47.015625 48.734375 
L 47.75 48.046875 
L 47.75 9.8125 
Q 47.75 8.15625 48.4375 6.984375 
Q 49.125 5.8125 50.34375 4.984375 
Q 51.21875 4.4375 52.4375 4.265625 
Q 53.65625 4.109375 55.125 4.046875 
z
" id="Georgia-117"/>
       <path d="M 85.984375 0 
L 62.5 0 
L 62.5 3.21875 
Q 63.625 3.328125 64.765625 3.421875 
Q 65.921875 3.515625 66.796875 3.8125 
Q 68.171875 4.25 68.828125 5.34375 
Q 69.484375 6.453125 69.484375 8.203125 
L 69.484375 33.0625 
Q 69.484375 38.140625 67.15625 40.890625 
Q 64.84375 43.65625 61.375 43.65625 
Q 58.984375 43.65625 56.875 42.921875 
Q 54.78125 42.1875 53.03125 40.875 
Q 51.609375 39.796875 50.65625 38.546875 
Q 49.703125 37.3125 49.21875 36.46875 
L 49.21875 8.6875 
Q 49.21875 6.984375 49.796875 5.875 
Q 50.390625 4.78125 51.8125 4.203125 
Q 52.9375 3.765625 53.828125 3.546875 
Q 54.734375 3.328125 56.203125 3.21875 
L 56.203125 0 
L 33.203125 0 
L 33.203125 3.21875 
Q 34.328125 3.328125 35.375 3.421875 
Q 36.421875 3.515625 37.3125 3.8125 
Q 38.671875 4.25 39.328125 5.34375 
Q 39.984375 6.453125 39.984375 8.203125 
L 39.984375 33.0625 
Q 39.984375 38.140625 37.671875 40.890625 
Q 35.359375 43.65625 31.890625 43.65625 
Q 29.5 43.65625 27.390625 42.890625 
Q 25.296875 42.140625 23.53125 40.828125 
Q 22.125 39.75 21.140625 38.40625 
Q 20.171875 37.0625 19.671875 36.375 
L 19.671875 8.796875 
Q 19.671875 7.125 20.359375 6 
Q 21.046875 4.890625 22.40625 4.296875 
Q 23.4375 3.8125 24.515625 3.5625 
Q 25.59375 3.328125 26.90625 3.21875 
L 26.90625 0 
L 3.515625 0 
L 3.515625 3.21875 
Q 4.640625 3.328125 5.828125 3.421875 
Q 7.03125 3.515625 7.90625 3.8125 
Q 9.28125 4.25 9.9375 5.34375 
Q 10.59375 6.453125 10.59375 8.203125 
L 10.59375 38.140625 
Q 10.59375 39.703125 9.890625 40.9375 
Q 9.1875 42.1875 7.90625 43.0625 
Q 6.984375 43.65625 5.609375 44.015625 
Q 4.25 44.390625 2.78125 44.484375 
L 2.78125 47.65625 
L 18.890625 48.734375 
L 19.578125 48.046875 
L 19.578125 41.15625 
L 19.921875 41.15625 
Q 21.140625 42.390625 22.890625 44.046875 
Q 24.65625 45.703125 26.171875 46.734375 
Q 27.875 47.90625 30.4375 48.6875 
Q 33.015625 49.46875 35.984375 49.46875 
Q 40.671875 49.46875 44.03125 46.953125 
Q 47.40625 44.4375 48.875 40.875 
Q 50.640625 42.578125 51.984375 43.875 
Q 53.328125 45.171875 55.515625 46.625 
Q 57.375 47.90625 59.890625 48.6875 
Q 62.40625 49.46875 65.484375 49.46875 
Q 71.578125 49.46875 75.140625 45.453125 
Q 78.71875 41.453125 78.71875 33.15625 
L 78.71875 8.6875 
Q 78.71875 6.984375 79.296875 5.875 
Q 79.890625 4.78125 81.296875 4.203125 
Q 82.421875 3.765625 83.515625 3.546875 
Q 84.625 3.328125 85.984375 3.21875 
z
" id="Georgia-109"/>
       <path d="M 52.390625 24.125 
Q 52.390625 13.28125 45.546875 5.90625 
Q 38.71875 -1.46875 29.6875 -1.46875 
Q 25.734375 -1.46875 21.890625 -0.234375 
Q 18.0625 0.984375 14.703125 3.03125 
L 11.078125 -2.59375 
L 8.0625 -1.90625 
Q 8.296875 1.703125 8.390625 6.78125 
Q 8.5 11.859375 8.5 16.609375 
L 8.5 64.265625 
Q 8.5 65.921875 7.734375 67.578125 
Q 6.984375 69.234375 5.8125 69.96875 
Q 4.890625 70.609375 2.703125 70.921875 
Q 0.53125 71.234375 -0.78125 71.34375 
L -0.78125 74.46875 
L 16.890625 75.59375 
L 17.578125 74.859375 
L 17.578125 43.109375 
L 17.921875 43.015625 
Q 20.953125 46.234375 24.53125 47.84375 
Q 28.125 49.46875 31.59375 49.46875 
Q 40.484375 49.46875 46.4375 42.4375 
Q 52.390625 35.40625 52.390625 24.125 
z
M 42.1875 23.78125 
Q 42.1875 27.390625 41.40625 31.140625 
Q 40.625 34.90625 38.96875 37.703125 
Q 37.3125 40.53125 34.625 42.28125 
Q 31.9375 44.046875 28.171875 44.046875 
Q 24.75 44.046875 22.1875 42.703125 
Q 19.625 41.359375 17.578125 39.0625 
L 17.578125 11.03125 
Q 17.875 9.859375 18.71875 8.296875 
Q 19.578125 6.734375 21.046875 5.328125 
Q 22.515625 3.953125 24.359375 3.09375 
Q 26.21875 2.25 28.90625 2.25 
Q 34.859375 2.25 38.515625 8 
Q 42.1875 13.765625 42.1875 23.78125 
z
" id="Georgia-98"/>
       <path d="M 46.296875 11.328125 
Q 43.265625 5.5625 38.1875 2.140625 
Q 33.109375 -1.265625 26.515625 -1.265625 
Q 20.703125 -1.265625 16.328125 0.78125 
Q 11.96875 2.828125 9.125 6.34375 
Q 6.296875 9.859375 4.90625 14.546875 
Q 3.515625 19.234375 3.515625 24.46875 
Q 3.515625 29.15625 5 33.671875 
Q 6.5 38.1875 9.375 41.796875 
Q 12.15625 45.265625 16.28125 47.390625 
Q 20.40625 49.515625 25.53125 49.515625 
Q 30.8125 49.515625 34.5625 47.84375 
Q 38.328125 46.1875 40.671875 43.3125 
Q 42.921875 40.578125 44.015625 36.859375 
Q 45.125 33.15625 45.125 28.8125 
L 45.125 25.59375 
L 13.234375 25.59375 
Q 13.234375 20.84375 14.140625 16.984375 
Q 15.046875 13.140625 17 10.203125 
Q 18.890625 7.375 21.96875 5.734375 
Q 25.046875 4.109375 29.296875 4.109375 
Q 33.640625 4.109375 36.78125 6.125 
Q 39.9375 8.15625 42.875 13.421875 
z
M 35.5 29.6875 
Q 35.5 32.421875 35.03125 35.546875 
Q 34.578125 38.671875 33.546875 40.765625 
Q 32.421875 43.015625 30.46875 44.421875 
Q 28.515625 45.84375 25.4375 45.84375 
Q 20.3125 45.84375 16.921875 41.578125 
Q 13.53125 37.3125 13.234375 29.6875 
z
" id="Georgia-101"/>
       <path d="M 40.375 41.9375 
Q 40.375 39.453125 39.15625 37.515625 
Q 37.9375 35.59375 35.40625 35.59375 
Q 32.671875 35.59375 31.21875 37 
Q 29.78125 38.421875 29.78125 40.140625 
Q 29.78125 41.21875 29.953125 42.09375 
Q 30.125 42.96875 30.28125 43.84375 
Q 27.984375 43.84375 24.90625 41.984375 
Q 21.828125 40.140625 19.671875 36.71875 
L 19.671875 8.6875 
Q 19.671875 6.984375 20.328125 5.90625 
Q 21 4.828125 22.40625 4.296875 
Q 23.640625 3.8125 25.5625 3.5625 
Q 27.484375 3.328125 28.90625 3.21875 
L 28.90625 0 
L 3.515625 0 
L 3.515625 3.21875 
Q 4.640625 3.328125 5.828125 3.421875 
Q 7.03125 3.515625 7.90625 3.8125 
Q 9.28125 4.25 9.9375 5.34375 
Q 10.59375 6.453125 10.59375 8.203125 
L 10.59375 37.9375 
Q 10.59375 39.453125 9.890625 40.921875 
Q 9.1875 42.390625 7.90625 43.265625 
Q 6.984375 43.84375 5.703125 44.109375 
Q 4.4375 44.390625 2.984375 44.484375 
L 2.984375 47.65625 
L 19 48.734375 
L 19.671875 48.046875 
L 19.671875 41.265625 
L 19.921875 41.265625 
Q 22.953125 45.21875 26.65625 47.265625 
Q 30.375 49.3125 33.453125 49.3125 
Q 36.53125 49.3125 38.453125 47.3125 
Q 40.375 45.3125 40.375 41.9375 
z
" id="Georgia-114"/>
       <path id="Georgia-32"/>
       <path d="M 50.4375 24.5625 
Q 50.4375 19.484375 48.828125 14.578125 
Q 47.21875 9.671875 44.234375 6.25 
Q 40.875 2.34375 36.421875 0.4375 
Q 31.984375 -1.46875 26.46875 -1.46875 
Q 21.875 -1.46875 17.71875 0.265625 
Q 13.578125 2 10.359375 5.328125 
Q 7.171875 8.59375 5.296875 13.296875 
Q 3.421875 18.015625 3.421875 23.875 
Q 3.421875 35.15625 9.984375 42.328125 
Q 16.546875 49.515625 27.203125 49.515625 
Q 37.3125 49.515625 43.875 42.703125 
Q 50.4375 35.890625 50.4375 24.5625 
z
M 40.328125 24.46875 
Q 40.328125 28.125 39.59375 32.203125 
Q 38.875 36.28125 37.40625 39.109375 
Q 35.84375 42.140625 33.296875 43.96875 
Q 30.765625 45.796875 27.09375 45.796875 
Q 23.34375 45.796875 20.671875 43.9375 
Q 18.015625 42.09375 16.359375 38.875 
Q 14.796875 35.890625 14.15625 32.078125 
Q 13.53125 28.265625 13.53125 24.703125 
Q 13.53125 20.015625 14.28125 16.03125 
Q 15.046875 12.0625 16.703125 8.9375 
Q 18.359375 5.8125 20.875 4.03125 
Q 23.390625 2.25 27.09375 2.25 
Q 33.203125 2.25 36.765625 8.15625 
Q 40.328125 14.0625 40.328125 24.46875 
z
" id="Georgia-111"/>
       <path d="M 39.359375 69.78125 
Q 39.359375 67.578125 38.1875 66.0625 
Q 37.015625 64.546875 34.625 64.546875 
Q 33.109375 64.546875 31.953125 65.1875 
Q 30.8125 65.828125 29.828125 66.890625 
Q 28.859375 67.96875 28.03125 69.328125 
Q 27.203125 70.703125 26.609375 71.53125 
Q 23.34375 71.390625 21.5625 66.96875 
Q 19.78125 62.546875 19.78125 52.875 
L 19.78125 47.953125 
L 32.171875 47.953125 
L 32.171875 43.265625 
L 19.78125 43.265625 
L 19.78125 8.6875 
Q 19.78125 6.984375 20.4375 5.90625 
Q 21.09375 4.828125 22.515625 4.296875 
Q 23.6875 3.859375 25.640625 3.59375 
Q 27.59375 3.328125 29 3.21875 
L 29 0 
L 3.609375 0 
L 3.609375 3.21875 
Q 4.734375 3.328125 5.921875 3.421875 
Q 7.125 3.515625 8.015625 3.8125 
Q 9.375 4.25 10.03125 5.34375 
Q 10.6875 6.453125 10.6875 8.203125 
L 10.6875 43.265625 
L 1.171875 43.265625 
L 1.171875 47.953125 
L 10.6875 47.953125 
L 10.6875 51.03125 
Q 10.6875 62.015625 16.375 68.828125 
Q 22.078125 75.640625 30.609375 75.640625 
Q 34.96875 75.640625 37.15625 73.921875 
Q 39.359375 72.21875 39.359375 69.78125 
z
" id="Georgia-102"/>
       <path d="M 57.8125 52.203125 
Q 57.8125 46.78125 55.6875 42.59375 
Q 53.5625 38.421875 49.8125 35.6875 
Q 46.09375 32.953125 41.640625 31.6875 
Q 37.203125 30.421875 32.234375 30.421875 
L 24.46875 30.421875 
L 24.46875 9.421875 
Q 24.46875 7.71875 25.03125 6.421875 
Q 25.59375 5.125 27.34375 4.4375 
Q 28.21875 4.109375 30.4375 3.8125 
Q 32.671875 3.515625 34.515625 3.46875 
L 34.515625 0 
L 4.78125 0 
L 4.78125 3.46875 
Q 5.953125 3.5625 8.171875 3.796875 
Q 10.40625 4.046875 11.28125 4.4375 
Q 12.75 5.078125 13.40625 6.296875 
Q 14.0625 7.515625 14.0625 9.421875 
L 14.0625 59.421875 
Q 14.0625 61.140625 13.578125 62.5 
Q 13.09375 63.875 11.28125 64.546875 
Q 9.421875 65.1875 7.59375 65.453125 
Q 5.765625 65.71875 4.4375 65.828125 
L 4.4375 69.28125 
L 36.078125 69.28125 
Q 45.75 69.28125 51.78125 64.625 
Q 57.8125 59.96875 57.8125 52.203125 
z
M 42.96875 40.375 
Q 44.625 42.71875 45.15625 45.234375 
Q 45.703125 47.75 45.703125 49.75 
Q 45.703125 52.546875 45.046875 55.421875 
Q 44.390625 58.296875 42.78125 60.453125 
Q 41.0625 62.75 38.28125 64.015625 
Q 35.5 65.28125 31.34375 65.28125 
L 24.46875 65.28125 
L 24.46875 34.671875 
L 29.4375 34.671875 
Q 34.71875 34.671875 38.015625 36.296875 
Q 41.3125 37.9375 42.96875 40.375 
z
" id="Georgia-80"/>
       <path d="M 35.296875 -1.609375 
Q 29.109375 -1.609375 23.40625 0.828125 
Q 17.71875 3.265625 13.328125 7.859375 
Q 8.984375 12.453125 6.390625 19.0625 
Q 3.8125 25.6875 3.8125 33.984375 
Q 3.8125 42.28125 6.34375 49.046875 
Q 8.890625 55.8125 13.375 60.6875 
Q 17.828125 65.53125 23.875 68.15625 
Q 29.9375 70.796875 36.8125 70.796875 
Q 41.9375 70.796875 46.09375 69.53125 
Q 50.25 68.265625 54 65.96875 
L 56 69.28125 
L 59.90625 69.28125 
L 60.359375 44.578125 
L 56.34375 44.578125 
Q 55.5625 48.1875 54 52.40625 
Q 52.4375 56.640625 50.34375 59.578125 
Q 48 62.890625 44.765625 64.765625 
Q 41.546875 66.65625 37.40625 66.65625 
Q 32.671875 66.65625 28.59375 64.546875 
Q 24.515625 62.453125 21.53125 58.34375 
Q 18.703125 54.390625 17.09375 48.28125 
Q 15.484375 42.1875 15.484375 34.671875 
Q 15.484375 28.03125 17.15625 22.484375 
Q 18.84375 16.9375 21.96875 12.75 
Q 25.09375 8.59375 29.359375 6.25 
Q 33.640625 3.90625 38.921875 3.90625 
Q 42.875 3.90625 46.1875 5.140625 
Q 49.515625 6.390625 51.953125 8.453125 
Q 54.390625 10.59375 56.25 13.328125 
Q 58.109375 16.0625 59.28125 19.28125 
L 62.9375 17.53125 
Q 58.734375 7.234375 51.796875 2.8125 
Q 44.875 -1.609375 35.296875 -1.609375 
z
" id="Georgia-67"/>
       <path d="M 35.296875 23.578125 
Q 37.3125 21.828125 38.375 19.53125 
Q 39.453125 17.234375 39.453125 13.921875 
Q 39.453125 7.234375 34.4375 2.984375 
Q 29.4375 -1.265625 21.484375 -1.265625 
Q 17.28125 -1.265625 13.734375 0.25 
Q 10.203125 1.765625 8.6875 3.03125 
L 7.71875 -0.140625 
L 4.046875 -0.140625 
L 3.5625 16.609375 
L 6.9375 16.609375 
Q 7.328125 14.703125 8.59375 12.15625 
Q 9.859375 9.625 11.671875 7.5625 
Q 13.578125 5.421875 16.234375 3.953125 
Q 18.890625 2.484375 22.21875 2.484375 
Q 26.90625 2.484375 29.4375 4.609375 
Q 31.984375 6.734375 31.984375 10.6875 
Q 31.984375 12.75 31.171875 14.234375 
Q 30.375 15.71875 28.8125 16.84375 
Q 27.203125 17.96875 24.859375 18.875 
Q 22.515625 19.78125 19.625 20.65625 
Q 17.328125 21.34375 14.515625 22.53125 
Q 11.71875 23.734375 9.71875 25.34375 
Q 7.5625 27.046875 6.1875 29.53125 
Q 4.828125 32.03125 4.828125 35.40625 
Q 4.828125 41.3125 9.21875 45.40625 
Q 13.625 49.515625 21 49.515625 
Q 23.828125 49.515625 26.78125 48.78125 
Q 29.734375 48.046875 31.59375 47.015625 
L 32.71875 49.5625 
L 36.234375 49.5625 
L 36.96875 34.078125 
L 33.59375 34.078125 
Q 32.5625 39.265625 29.171875 42.5 
Q 25.78125 45.75 20.90625 45.75 
Q 16.890625 45.75 14.59375 43.75 
Q 12.3125 41.75 12.3125 38.921875 
Q 12.3125 36.71875 13.0625 35.25 
Q 13.8125 33.796875 15.328125 32.765625 
Q 16.796875 31.78125 19.015625 30.921875 
Q 21.234375 30.078125 24.515625 29 
Q 27.734375 27.984375 30.59375 26.609375 
Q 33.453125 25.25 35.296875 23.578125 
z
" id="Georgia-115"/>
      </defs>
      <use xlink:href="#Georgia-110"/>
      <use x="59.082031" xlink:href="#Georgia-117"/>
      <use x="116.601562" xlink:href="#Georgia-109"/>
      <use x="204.6875" xlink:href="#Georgia-98"/>
      <use x="260.693359" xlink:href="#Georgia-101"/>
      <use x="309.033203" xlink:href="#Georgia-114"/>
      <use x="350" xlink:href="#Georgia-32"/>
      <use x="374.121094" xlink:href="#Georgia-111"/>
      <use x="428.027344" xlink:href="#Georgia-102"/>
      <use x="460.546875" xlink:href="#Georgia-32"/>
      <use x="484.667969" xlink:href="#Georgia-80"/>
      <use x="545.654297" xlink:href="#Georgia-67"/>
      <use x="609.863281" xlink:href="#Georgia-115"/>
     </g>
    </g>
   </g>
   <g id="matplotlib.axis_2">
    <g id="ytick_1">
     <g id="line2d_10">
      <defs>
       <path d="M 0 0 
L -3.5 0 
" id="mc3f442a033" style="stroke:#000000;stroke-width:0.8;"/>
      </defs>
      <g>
       <use style="stroke:#000000;stroke-width:0.8;" x="32.832813" xlink:href="#mc3f442a033" y="152.691413"/>
      </g>
     </g>
     <g id="text_11">
      <!-- 20 -->
      <g transform="translate(14.109375 156.471101)scale(0.1 -0.1)">
       <use xlink:href="#Georgia-50"/>
       <use x="55.859375" xlink:href="#Georgia-48"/>
      </g>
     </g>
    </g>
    <g id="ytick_2">
     <g id="line2d_11">
      <g>
       <use style="stroke:#000000;stroke-width:0.8;" x="32.832813" xlink:href="#mc3f442a033" y="128.034601"/>
      </g>
     </g>
     <g id="text_12">
      <!-- 30 -->
      <g transform="translate(14.178125 131.814289)scale(0.1 -0.1)">
       <use xlink:href="#Georgia-51"/>
       <use x="55.175781" xlink:href="#Georgia-48"/>
      </g>
     </g>
    </g>
    <g id="ytick_3">
     <g id="line2d_12">
      <g>
       <use style="stroke:#000000;stroke-width:0.8;" x="32.832813" xlink:href="#mc3f442a033" y="103.377789"/>
      </g>
     </g>
     <g id="text_13">
      <!-- 40 -->
      <g transform="translate(14.045313 107.157477)scale(0.1 -0.1)">
       <use xlink:href="#Georgia-52"/>
       <use x="56.494141" xlink:href="#Georgia-48"/>
      </g>
     </g>
    </g>
    <g id="ytick_4">
     <g id="line2d_13">
      <g>
       <use style="stroke:#000000;stroke-width:0.8;" x="32.832813" xlink:href="#mc3f442a033" y="78.720977"/>
      </g>
     </g>
     <g id="text_14">
      <!-- 50 -->
      <g transform="translate(14.4125 82.500665)scale(0.1 -0.1)">
       <use xlink:href="#Georgia-53"/>
       <use x="52.832031" xlink:href="#Georgia-48"/>
      </g>
     </g>
    </g>
    <g id="ytick_5">
     <g id="line2d_14">
      <g>
       <use style="stroke:#000000;stroke-width:0.8;" x="32.832813" xlink:href="#mc3f442a033" y="54.064165"/>
      </g>
     </g>
     <g id="text_15">
      <!-- 60 -->
      <g transform="translate(14.035938 57.843853)scale(0.1 -0.1)">
       <defs>
        <path d="M 52.484375 22.515625 
Q 52.484375 17.4375 50.65625 12.984375 
Q 48.828125 8.546875 45.75 5.421875 
Q 42.1875 1.859375 37.859375 0.140625 
Q 33.546875 -1.5625 28.859375 -1.5625 
Q 23.4375 -1.5625 19.046875 0.4375 
Q 14.65625 2.4375 11.578125 6.109375 
Q 8.453125 9.8125 6.734375 15.1875 
Q 5.03125 20.5625 5.03125 27.25 
Q 5.03125 44.671875 15.40625 56.640625 
Q 25.78125 68.609375 43.21875 71 
L 44.09375 66.609375 
L 39.703125 65.828125 
Q 29.109375 62.40625 23.3125 55.171875 
Q 17.53125 47.953125 15.828125 37.640625 
Q 20.015625 41.3125 24.109375 42.828125 
Q 28.21875 44.34375 32.765625 44.34375 
Q 40.921875 44.34375 46.703125 38.09375 
Q 52.484375 31.84375 52.484375 22.515625 
z
M 41.890625 21.1875 
Q 41.890625 29.109375 38.25 33.890625 
Q 34.625 38.671875 28.515625 38.671875 
Q 24.859375 38.671875 21.703125 37.296875 
Q 18.5625 35.9375 15.625 32.71875 
Q 15.578125 32.125 15.46875 30 
Q 15.375 27.875 15.375 26.65625 
Q 15.375 15.234375 19.109375 8.765625 
Q 22.859375 2.296875 28.953125 2.296875 
Q 34.765625 2.296875 38.328125 7.34375 
Q 41.890625 12.40625 41.890625 21.1875 
z
" id="Georgia-54"/>
       </defs>
       <use xlink:href="#Georgia-54"/>
       <use x="56.591797" xlink:href="#Georgia-48"/>
      </g>
     </g>
    </g>
    <g id="ytick_6">
     <g id="line2d_15">
      <g>
       <use style="stroke:#000000;stroke-width:0.8;" x="32.832813" xlink:href="#mc3f442a033" y="29.407353"/>
      </g>
     </g>
     <g id="text_16">
      <!-- 70 -->
      <g transform="translate(14.670313 33.18704)scale(0.1 -0.1)">
       <defs>
        <path d="M 50.25 49.21875 
L 15.4375 -17.828125 
L 9.328125 -17.828125 
L 42.09375 44.1875 
L 22.90625 44.1875 
Q 18.65625 44.1875 16.265625 44.09375 
Q 13.875 44 11.859375 43.171875 
Q 10.359375 42.53125 9.15625 39.921875 
Q 7.953125 37.3125 7.328125 33.25 
L 4.34375 33.25 
L 4.34375 52.390625 
L 50.25 52.390625 
z
" id="Georgia-55"/>
       </defs>
       <use xlink:href="#Georgia-55"/>
       <use x="50.244141" xlink:href="#Georgia-48"/>
      </g>
     </g>
    </g>
    <g id="ytick_7">
     <g id="line2d_16">
      <g>
       <use style="stroke:#000000;stroke-width:0.8;" x="32.832813" xlink:href="#mc3f442a033" y="4.750541"/>
      </g>
     </g>
     <g id="text_17">
      <!-- 80 -->
      <g transform="translate(13.732813 8.530228)scale(0.1 -0.1)">
       <defs>
        <path d="M 54.546875 18.359375 
Q 54.546875 10.15625 47.453125 4.25 
Q 40.375 -1.65625 28.859375 -1.65625 
Q 18.0625 -1.65625 11.5625 3.765625 
Q 5.078125 9.1875 5.078125 17.71875 
Q 5.078125 24.03125 8.90625 28.25 
Q 12.75 32.46875 20.265625 35.40625 
Q 14.0625 38.875 10.984375 43.015625 
Q 7.90625 47.171875 7.90625 52.390625 
Q 7.90625 60.359375 14.671875 65.71875 
Q 21.4375 71.09375 30.859375 71.09375 
Q 40.28125 71.09375 46.109375 66.015625 
Q 51.953125 60.9375 51.953125 53.265625 
Q 51.953125 48.34375 48.734375 43.921875 
Q 45.515625 39.5 39.265625 36.671875 
Q 47.359375 33.203125 50.953125 29 
Q 54.546875 24.8125 54.546875 18.359375 
z
M 42.71875 53.8125 
Q 42.71875 59.765625 39.171875 63.5 
Q 35.640625 67.234375 30.125 67.234375 
Q 24.609375 67.234375 21.09375 63.640625 
Q 17.578125 60.0625 17.578125 54.734375 
Q 17.578125 49.609375 21.578125 46.046875 
Q 25.59375 42.484375 35.84375 38.421875 
Q 39.5 40.765625 41.109375 44.625 
Q 42.71875 48.484375 42.71875 53.8125 
z
M 44.78125 16.0625 
Q 44.78125 19.140625 43.453125 21.453125 
Q 42.140625 23.78125 39.65625 25.6875 
Q 37.25 27.546875 32.984375 29.5625 
Q 28.71875 31.59375 23.734375 33.6875 
Q 19.046875 31.15625 16.84375 27.21875 
Q 14.65625 23.296875 14.65625 18.265625 
Q 14.65625 11.078125 18.875 6.65625 
Q 23.09375 2.25 30.125 2.25 
Q 36.859375 2.25 40.8125 6.15625 
Q 44.78125 10.0625 44.78125 16.0625 
z
" id="Georgia-56"/>
       </defs>
       <use xlink:href="#Georgia-56"/>
       <use x="59.619141" xlink:href="#Georgia-48"/>
      </g>
     </g>
    </g>
    <g id="text_18">
     <!-- sum of squared variances -->
     <g transform="translate(7.564062 137.449375)rotate(-90)scale(0.1 -0.1)">
      <defs>
       <path d="M 56.34375 -21.6875 
L 30.328125 -21.6875 
L 30.328125 -18.40625 
Q 31.84375 -18.3125 33.296875 -18.15625 
Q 34.765625 -18.015625 35.9375 -17.671875 
Q 37.453125 -17.1875 38.03125 -15.96875 
Q 38.625 -14.75 38.625 -13.09375 
L 38.625 4.6875 
L 38.328125 4.78125 
Q 37.546875 3.90625 36.109375 2.75 
Q 34.671875 1.609375 33.109375 0.875 
Q 31.15625 -0.140625 29.34375 -0.703125 
Q 27.546875 -1.265625 24.8125 -1.265625 
Q 20.40625 -1.265625 16.515625 0.5625 
Q 12.640625 2.390625 9.765625 5.765625 
Q 6.890625 9.078125 5.203125 13.9375 
Q 3.515625 18.796875 3.515625 24.609375 
Q 3.515625 30.125 5.46875 34.640625 
Q 7.421875 39.15625 10.640625 42.53125 
Q 13.71875 45.703125 18.03125 47.578125 
Q 22.359375 49.46875 26.609375 49.46875 
Q 29.78125 49.46875 32.25 48.859375 
Q 34.71875 48.25 36.46875 47.40625 
Q 37.984375 46.78125 39.5 45.78125 
Q 41.015625 44.78125 41.65625 44.4375 
L 45.796875 50.78125 
L 48.578125 50.390625 
Q 48.390625 46.78125 48.0625 41.5 
Q 47.75 36.234375 47.75 32.28125 
L 47.75 -12.25 
Q 47.75 -13.96875 48.390625 -15.203125 
Q 49.03125 -16.453125 50.4375 -17.09375 
Q 51.609375 -17.578125 53.40625 -17.9375 
Q 55.21875 -18.3125 56.34375 -18.40625 
z
M 38.625 8.9375 
L 38.625 37.703125 
Q 38.234375 38.921875 37.296875 40.40625 
Q 36.375 41.890625 35.109375 43.015625 
Q 33.734375 44.1875 31.75 44.96875 
Q 29.78125 45.75 27.203125 45.75 
Q 21.484375 45.75 17.59375 39.84375 
Q 13.71875 33.9375 13.71875 23.578125 
Q 13.71875 19.484375 14.46875 16.15625 
Q 15.234375 12.84375 17.09375 9.96875 
Q 18.84375 7.234375 21.53125 5.59375 
Q 24.21875 3.953125 28.328125 3.953125 
Q 31.84375 3.953125 34.328125 5.4375 
Q 36.8125 6.9375 38.625 8.9375 
z
" id="Georgia-113"/>
       <path d="M 49.125 0.875 
Q 46.828125 0.046875 45.09375 -0.46875 
Q 43.359375 -0.984375 41.15625 -0.984375 
Q 37.359375 -0.984375 35.078125 0.796875 
Q 32.8125 2.59375 32.171875 6 
L 31.890625 6 
Q 28.71875 2.484375 25.078125 0.625 
Q 21.4375 -1.21875 16.3125 -1.21875 
Q 10.890625 -1.21875 7.390625 2.09375 
Q 3.90625 5.421875 3.90625 10.796875 
Q 3.90625 13.578125 4.6875 15.765625 
Q 5.46875 17.96875 7.03125 19.734375 
Q 8.25 21.1875 10.25 22.328125 
Q 12.25 23.484375 14.015625 24.171875 
Q 16.21875 25 22.921875 27.25 
Q 29.640625 29.5 31.984375 30.765625 
L 31.984375 35.59375 
Q 31.984375 36.234375 31.71875 38.03125 
Q 31.453125 39.84375 30.5625 41.453125 
Q 29.59375 43.265625 27.8125 44.609375 
Q 26.03125 45.953125 22.75 45.953125 
Q 20.515625 45.953125 18.578125 45.1875 
Q 16.65625 44.4375 15.875 43.609375 
Q 15.875 42.625 16.328125 40.71875 
Q 16.796875 38.8125 16.796875 37.203125 
Q 16.796875 35.5 15.25 34.078125 
Q 13.71875 32.671875 10.984375 32.671875 
Q 8.546875 32.671875 7.390625 34.40625 
Q 6.25 36.140625 6.25 38.28125 
Q 6.25 40.53125 7.828125 42.578125 
Q 9.421875 44.625 11.96875 46.234375 
Q 14.15625 47.609375 17.28125 48.5625 
Q 20.40625 49.515625 23.390625 49.515625 
Q 27.484375 49.515625 30.53125 48.953125 
Q 33.59375 48.390625 36.078125 46.53125 
Q 38.578125 44.734375 39.859375 41.625 
Q 41.15625 38.53125 41.15625 33.640625 
Q 41.15625 26.65625 41.015625 21.265625 
Q 40.875 15.875 40.875 9.46875 
Q 40.875 7.5625 41.53125 6.4375 
Q 42.1875 5.328125 43.5625 4.546875 
Q 44.28125 4.109375 45.875 4.046875 
Q 47.46875 4 49.125 4 
z
M 32.078125 26.65625 
Q 27.9375 25.4375 24.8125 24.265625 
Q 21.6875 23.09375 19 21.34375 
Q 16.546875 19.671875 15.125 17.40625 
Q 13.71875 15.140625 13.71875 12.015625 
Q 13.71875 7.953125 15.84375 6.046875 
Q 17.96875 4.15625 21.234375 4.15625 
Q 24.703125 4.15625 27.34375 5.828125 
Q 29.984375 7.515625 31.78125 9.8125 
z
" id="Georgia-97"/>
       <path d="M 56.25 0.875 
L 39.453125 -0.203125 
L 38.71875 0.484375 
L 38.71875 4.984375 
L 38.328125 5.078125 
Q 35.796875 2.25 32.0625 0.4375 
Q 28.328125 -1.375 24.359375 -1.375 
Q 20.265625 -1.375 16.421875 0.453125 
Q 12.59375 2.296875 9.765625 5.609375 
Q 6.890625 8.984375 5.203125 13.71875 
Q 3.515625 18.453125 3.515625 24.171875 
Q 3.515625 29.390625 5.3125 34.078125 
Q 7.125 38.765625 10.296875 42.28125 
Q 13.28125 45.5625 17.59375 47.515625 
Q 21.921875 49.46875 26.421875 49.46875 
Q 29.78125 49.46875 33.03125 48.609375 
Q 36.28125 47.75 38.625 46.4375 
L 38.625 63.1875 
Q 38.625 65.234375 37.9375 66.921875 
Q 37.25 68.609375 36.03125 69.484375 
Q 34.671875 70.40625 32.34375 70.8125 
Q 30.03125 71.234375 27.34375 71.4375 
L 27.34375 74.46875 
L 47.015625 75.59375 
L 47.75 74.859375 
L 47.75 9.90625 
Q 47.75 8.203125 48.40625 7 
Q 49.078125 5.8125 50.34375 4.984375 
Q 51.265625 4.390625 53.015625 4.25 
Q 54.78125 4.109375 56.25 4.046875 
z
M 38.625 9.328125 
L 38.625 37.5 
Q 38.234375 38.765625 37.34375 40.234375 
Q 36.46875 41.703125 35.15625 42.921875 
Q 33.734375 44.140625 31.828125 44.9375 
Q 29.9375 45.75 27.390625 45.75 
Q 24.46875 45.75 22 44.234375 
Q 19.53125 42.71875 17.625 39.890625 
Q 15.828125 37.15625 14.765625 32.9375 
Q 13.71875 28.71875 13.71875 23.578125 
Q 13.71875 19.484375 14.5 16.140625 
Q 15.28125 12.796875 17.140625 9.90625 
Q 18.84375 7.171875 21.5 5.515625 
Q 24.171875 3.859375 27.828125 3.859375 
Q 31.734375 3.859375 34.296875 5.5625 
Q 36.859375 7.28125 38.625 9.328125 
z
" id="Georgia-100"/>
       <path d="M 51.078125 45.171875 
Q 48.875 44.78125 46.890625 43.578125 
Q 44.921875 42.390625 43.5 39.359375 
Q 40.625 32.8125 37.546875 25.703125 
Q 34.46875 18.609375 31.15625 10.796875 
Q 30.171875 8.546875 29.078125 5.46875 
Q 27.984375 2.390625 27.046875 -0.4375 
L 23.25 -0.4375 
Q 18.609375 11.03125 14.703125 20.484375 
Q 10.796875 29.9375 6.59375 39.84375 
Q 5.609375 42.09375 3.4375 43.328125 
Q 1.265625 44.578125 -0.921875 44.921875 
L -0.921875 48.140625 
L 21.34375 48.140625 
L 21.34375 44.734375 
Q 19.875 44.671875 17.671875 44.109375 
Q 15.484375 43.5625 15.484375 42.578125 
Q 15.484375 42.4375 15.71875 41.828125 
Q 15.96875 41.21875 16.21875 40.4375 
Q 18.21875 35.453125 21.875 26.515625 
Q 25.53125 17.578125 27.828125 12.109375 
Q 29.59375 16.3125 32.25 22.5625 
Q 34.90625 28.8125 37.984375 36.53125 
Q 38.484375 37.84375 38.921875 38.984375 
Q 39.359375 40.140625 39.359375 41.3125 
Q 39.359375 42.140625 38.546875 42.796875 
Q 37.75 43.453125 36.625 43.953125 
Q 35.5 44.4375 34.421875 44.671875 
Q 33.34375 44.921875 32.671875 45.015625 
L 32.671875 48.140625 
L 51.078125 48.140625 
z
" id="Georgia-118"/>
       <path d="M 26.90625 0 
L 3.609375 0 
L 3.609375 3.21875 
Q 4.734375 3.328125 5.921875 3.421875 
Q 7.125 3.515625 8.015625 3.8125 
Q 9.375 4.25 10.03125 5.34375 
Q 10.6875 6.453125 10.6875 8.203125 
L 10.6875 37.9375 
Q 10.6875 39.5 9.984375 40.796875 
Q 9.28125 42.09375 8.015625 42.96875 
Q 7.078125 43.5625 5.3125 43.96875 
Q 3.5625 44.390625 2.09375 44.484375 
L 2.09375 47.65625 
L 19.09375 48.734375 
L 19.78125 48.046875 
L 19.78125 8.796875 
Q 19.78125 7.078125 20.4375 5.953125 
Q 21.09375 4.828125 22.515625 4.296875 
Q 23.578125 3.859375 24.609375 3.59375 
Q 25.640625 3.328125 26.90625 3.21875 
z
M 20.75 67.71875 
Q 20.75 64.9375 18.921875 62.859375 
Q 17.09375 60.796875 14.40625 60.796875 
Q 11.921875 60.796875 10.078125 62.765625 
Q 8.25 64.75 8.25 67.28125 
Q 8.25 69.96875 10.078125 71.96875 
Q 11.921875 73.96875 14.40625 73.96875 
Q 17.1875 73.96875 18.96875 72.09375 
Q 20.75 70.21875 20.75 67.71875 
z
" id="Georgia-105"/>
       <path d="M 25.78125 -1.265625 
Q 15.328125 -1.265625 9.421875 5.65625 
Q 3.515625 12.59375 3.515625 24.265625 
Q 3.515625 29.34375 5.09375 33.765625 
Q 6.6875 38.1875 9.71875 41.796875 
Q 12.59375 45.265625 16.9375 47.390625 
Q 21.296875 49.515625 26.421875 49.515625 
Q 33.5 49.515625 37.9375 46.109375 
Q 42.390625 42.71875 42.390625 36.859375 
Q 42.390625 34.421875 41.21875 32.546875 
Q 40.046875 30.671875 37.359375 30.671875 
Q 34.46875 30.671875 32.875 32.125 
Q 31.296875 33.59375 31.296875 35.40625 
Q 31.296875 37.59375 31.875 39.90625 
Q 32.46875 42.234375 32.5625 43.3125 
Q 31.6875 44.828125 29.953125 45.328125 
Q 28.21875 45.84375 26.21875 45.84375 
Q 23.875 45.84375 21.75 44.84375 
Q 19.625 43.84375 17.625 41.15625 
Q 15.828125 38.71875 14.703125 34.5625 
Q 13.578125 30.421875 13.578125 24.65625 
Q 13.578125 15.578125 17.59375 9.84375 
Q 21.625 4.109375 28.171875 4.109375 
Q 32.90625 4.109375 36.109375 6.390625 
Q 39.3125 8.6875 42.046875 13.28125 
L 45.171875 11.234375 
Q 41.9375 5.46875 36.65625 2.09375 
Q 31.390625 -1.265625 25.78125 -1.265625 
z
" id="Georgia-99"/>
      </defs>
      <use xlink:href="#Georgia-115"/>
      <use x="43.212891" xlink:href="#Georgia-117"/>
      <use x="100.732422" xlink:href="#Georgia-109"/>
      <use x="188.818359" xlink:href="#Georgia-32"/>
      <use x="212.939453" xlink:href="#Georgia-111"/>
      <use x="266.845703" xlink:href="#Georgia-102"/>
      <use x="299.365234" xlink:href="#Georgia-32"/>
      <use x="323.486328" xlink:href="#Georgia-115"/>
      <use x="366.699219" xlink:href="#Georgia-113"/>
      <use x="422.65625" xlink:href="#Georgia-117"/>
      <use x="480.175781" xlink:href="#Georgia-97"/>
      <use x="530.566406" xlink:href="#Georgia-114"/>
      <use x="571.533203" xlink:href="#Georgia-101"/>
      <use x="619.873047" xlink:href="#Georgia-100"/>
      <use x="677.294922" xlink:href="#Georgia-32"/>
      <use x="701.416016" xlink:href="#Georgia-118"/>
      <use x="751.074219" xlink:href="#Georgia-97"/>
      <use x="801.464844" xlink:href="#Georgia-114"/>
      <use x="842.431641" xlink:href="#Georgia-105"/>
      <use x="871.728516" xlink:href="#Georgia-97"/>
      <use x="922.119141" xlink:href="#Georgia-110"/>
      <use x="981.201172" xlink:href="#Georgia-99"/>
      <use x="1026.611328" xlink:href="#Georgia-101"/>
      <use x="1074.951172" xlink:href="#Georgia-115"/>
     </g>
    </g>
   </g>
   <g id="line2d_17">
    <path clip-path="url(#p95897ecedb)" d="M 53.123722 155.667273 
L 54.14081 128.436072 
L 55.157898 112.929824 
L 56.174986 103.20341 
L 57.192074 96.178938 
L 58.209162 90.035762 
L 59.226251 85.313368 
L 61.260427 77.540369 
L 63.294603 71.182391 
L 64.311692 68.386111 
L 66.345868 63.727786 
L 68.380044 59.757168 
L 70.414221 56.381906 
L 73.465485 52.101731 
L 76.51675 48.660714 
L 79.568014 45.563373 
L 81.60219 43.707867 
L 83.636367 42.067483 
L 85.670543 40.615212 
L 89.738896 38.135472 
L 92.79016 36.511693 
L 96.858513 34.573527 
L 101.943954 32.416175 
L 110.080659 29.553759 
L 114.149012 28.331264 
L 120.251541 26.63597 
L 124.319894 25.622136 
L 129.405335 24.453945 
L 135.507864 23.166711 
L 146.695834 21.161706 
L 163.986333 18.680828 
L 174.157214 17.469472 
L 191.447713 15.743564 
L 208.738212 14.321375 
L 226.028711 13.138755 
L 246.370475 11.98007 
L 274.848944 10.714546 
L 307.395765 9.633852 
L 359.267262 8.4623 
L 413.172936 7.722191 
L 455.890639 7.419815 
L 458.941903 7.412727 
L 458.941903 7.412727 
" style="fill:none;stroke:#b13e26;stroke-linecap:square;stroke-width:1.5;"/>
   </g>
   <g id="line2d_18">
    <path clip-path="url(#p95897ecedb)" d="M 32.832813 7.41273 
L 479.232812 7.41273 
" style="fill:none;stroke:#677d00;stroke-linecap:square;stroke-width:1.5;"/>
   </g>
   <g id="patch_3">
    <path d="M 32.832813 163.08 
L 32.832813 0 
" style="fill:none;stroke:#000000;stroke-linecap:square;stroke-linejoin:miter;stroke-width:0.8;"/>
   </g>
   <g id="patch_4">
    <path d="M 32.832813 163.08 
L 479.232812 163.08 
" style="fill:none;stroke:#000000;stroke-linecap:square;stroke-linejoin:miter;stroke-width:0.8;"/>
   </g>
  </g>
 </g>
 <defs>
  <clipPath id="p95897ecedb">
   <rect height="163.08" width="446.4" x="32.832813" y="0"/>
  </clipPath>
 </defs>
</svg>
